<?xml version="1.0" encoding="utf-8" standalone="no"?>
<!DOCTYPE svg PUBLIC "-//W3C//DTD SVG 1.1//EN"
  "http://www.w3.org/Graphics/SVG/1.1/DTD/svg11.dtd">
<svg xmlns:xlink="http://www.w3.org/1999/xlink" width="465.708125pt" height="424.1735pt" viewBox="0 0 465.708125 424.1735" xmlns="http://www.w3.org/2000/svg" version="1.1">
 <metadata>
  <rdf:RDF xmlns:dc="http://purl.org/dc/elements/1.1/" xmlns:cc="http://creativecommons.org/ns#" xmlns:rdf="http://www.w3.org/1999/02/22-rdf-syntax-ns#">
   <cc:Work>
    <dc:type rdf:resource="http://purl.org/dc/dcmitype/StillImage"/>
    <dc:date>2025-12-09T01:04:08.156569</dc:date>
    <dc:format>image/svg+xml</dc:format>
    <dc:creator>
     <cc:Agent>
      <dc:title>Matplotlib v3.10.6, https://matplotlib.org/</dc:title>
     </cc:Agent>
    </dc:creator>
   </cc:Work>
  </rdf:RDF>
 </metadata>
 <defs>
  <style type="text/css">*{stroke-linejoin: round; stroke-linecap: butt}</style>
 </defs>
 <g id="figure_1">
  <g id="patch_1">
   <path d="M 0 424.1735 
L 465.708125 424.1735 
L 465.708125 0 
L 0 0 
z
" style="fill: #ffffff"/>
  </g>
  <g id="axes_1">
   <g id="patch_2">
    <path d="M 151.635625 382.746 
L 417.560625 382.746 
L 417.560625 57.274 
L 151.635625 57.274 
z
" style="fill: #ffffff"/>
   </g>
   <g id="patch_3">
    <path d="M 151.635625 367.951818 
L 178.909984 367.951818 
L 178.909984 336.25 
L 151.635625 336.25 
z
" clip-path="url(#p6ab5813b84)" style="fill: #003a7d; opacity: 0.8"/>
   </g>
   <g id="patch_4">
    <path d="M 151.635625 315.115455 
L 183.45571 315.115455 
L 183.45571 283.413636 
L 151.635625 283.413636 
z
" clip-path="url(#p6ab5813b84)" style="fill: #003a7d; opacity: 0.8"/>
   </g>
   <g id="patch_5">
    <path d="M 151.635625 262.279091 
L 188.001437 262.279091 
L 188.001437 230.577273 
L 151.635625 230.577273 
z
" clip-path="url(#p6ab5813b84)" style="fill: #003a7d; opacity: 0.8"/>
   </g>
   <g id="patch_6">
    <path d="M 151.635625 209.442727 
L 238.004428 209.442727 
L 238.004428 177.740909 
L 151.635625 177.740909 
z
" clip-path="url(#p6ab5813b84)" style="fill: #003a7d; opacity: 0.8"/>
   </g>
   <g id="patch_7">
    <path d="M 151.635625 156.606364 
L 319.827505 156.606364 
L 319.827505 124.904545 
L 151.635625 124.904545 
z
" clip-path="url(#p6ab5813b84)" style="fill: #003a7d; opacity: 0.8"/>
   </g>
   <g id="patch_8">
    <path d="M 151.635625 103.77 
L 356.193317 103.77 
L 356.193317 72.068182 
L 151.635625 72.068182 
z
" clip-path="url(#p6ab5813b84)" style="fill: #003a7d; opacity: 0.8"/>
   </g>
   <g id="matplotlib.axis_1">
    <g id="xtick_1">
     <g id="line2d_1">
      <path d="M 151.635625 382.746 
L 151.635625 57.274 
" clip-path="url(#p6ab5813b84)" style="fill: none; stroke: #b0b0b0; stroke-opacity: 0.7; stroke-width: 0.3; stroke-linecap: square"/>
     </g>
     <g id="line2d_2">
      <defs>
       <path id="ma29ece85a9" d="M 0 0 
L 0 3.5 
" style="stroke: #000000; stroke-width: 0.8"/>
      </defs>
      <g>
       <use xlink:href="#ma29ece85a9" x="151.635625" y="382.746" style="stroke: #000000; stroke-width: 0.8"/>
      </g>
     </g>
     <g id="text_1">
      <!-- 0 -->
      <g transform="translate(148.454375 397.344437) scale(0.1 -0.1)">
       <defs>
        <path id="DejaVuSans-30" d="M 2034 4250 
Q 1547 4250 1301 3770 
Q 1056 3291 1056 2328 
Q 1056 1369 1301 889 
Q 1547 409 2034 409 
Q 2525 409 2770 889 
Q 3016 1369 3016 2328 
Q 3016 3291 2770 3770 
Q 2525 4250 2034 4250 
z
M 2034 4750 
Q 2819 4750 3233 4129 
Q 3647 3509 3647 2328 
Q 3647 1150 3233 529 
Q 2819 -91 2034 -91 
Q 1250 -91 836 529 
Q 422 1150 422 2328 
Q 422 3509 836 4129 
Q 1250 4750 2034 4750 
z
" transform="scale(0.015625)"/>
       </defs>
       <use xlink:href="#DejaVuSans-30"/>
      </g>
     </g>
    </g>
    <g id="xtick_2">
     <g id="line2d_3">
      <path d="M 197.09289 382.746 
L 197.09289 57.274 
" clip-path="url(#p6ab5813b84)" style="fill: none; stroke: #b0b0b0; stroke-opacity: 0.7; stroke-width: 0.3; stroke-linecap: square"/>
     </g>
     <g id="line2d_4">
      <g>
       <use xlink:href="#ma29ece85a9" x="197.09289" y="382.746" style="stroke: #000000; stroke-width: 0.8"/>
      </g>
     </g>
     <g id="text_2">
      <!-- 10 -->
      <g transform="translate(190.73039 397.344437) scale(0.1 -0.1)">
       <defs>
        <path id="DejaVuSans-31" d="M 794 531 
L 1825 531 
L 1825 4091 
L 703 3866 
L 703 4441 
L 1819 4666 
L 2450 4666 
L 2450 531 
L 3481 531 
L 3481 0 
L 794 0 
L 794 531 
z
" transform="scale(0.015625)"/>
       </defs>
       <use xlink:href="#DejaVuSans-31"/>
       <use xlink:href="#DejaVuSans-30" transform="translate(63.623047 0)"/>
      </g>
     </g>
    </g>
    <g id="xtick_3">
     <g id="line2d_5">
      <path d="M 242.550155 382.746 
L 242.550155 57.274 
" clip-path="url(#p6ab5813b84)" style="fill: none; stroke: #b0b0b0; stroke-opacity: 0.7; stroke-width: 0.3; stroke-linecap: square"/>
     </g>
     <g id="line2d_6">
      <g>
       <use xlink:href="#ma29ece85a9" x="242.550155" y="382.746" style="stroke: #000000; stroke-width: 0.8"/>
      </g>
     </g>
     <g id="text_3">
      <!-- 20 -->
      <g transform="translate(236.187655 397.344437) scale(0.1 -0.1)">
       <defs>
        <path id="DejaVuSans-32" d="M 1228 531 
L 3431 531 
L 3431 0 
L 469 0 
L 469 531 
Q 828 903 1448 1529 
Q 2069 2156 2228 2338 
Q 2531 2678 2651 2914 
Q 2772 3150 2772 3378 
Q 2772 3750 2511 3984 
Q 2250 4219 1831 4219 
Q 1534 4219 1204 4116 
Q 875 4013 500 3803 
L 500 4441 
Q 881 4594 1212 4672 
Q 1544 4750 1819 4750 
Q 2544 4750 2975 4387 
Q 3406 4025 3406 3419 
Q 3406 3131 3298 2873 
Q 3191 2616 2906 2266 
Q 2828 2175 2409 1742 
Q 1991 1309 1228 531 
z
" transform="scale(0.015625)"/>
       </defs>
       <use xlink:href="#DejaVuSans-32"/>
       <use xlink:href="#DejaVuSans-30" transform="translate(63.623047 0)"/>
      </g>
     </g>
    </g>
    <g id="xtick_4">
     <g id="line2d_7">
      <path d="M 288.00742 382.746 
L 288.00742 57.274 
" clip-path="url(#p6ab5813b84)" style="fill: none; stroke: #b0b0b0; stroke-opacity: 0.7; stroke-width: 0.3; stroke-linecap: square"/>
     </g>
     <g id="line2d_8">
      <g>
       <use xlink:href="#ma29ece85a9" x="288.00742" y="382.746" style="stroke: #000000; stroke-width: 0.8"/>
      </g>
     </g>
     <g id="text_4">
      <!-- 30 -->
      <g transform="translate(281.64492 397.344437) scale(0.1 -0.1)">
       <defs>
        <path id="DejaVuSans-33" d="M 2597 2516 
Q 3050 2419 3304 2112 
Q 3559 1806 3559 1356 
Q 3559 666 3084 287 
Q 2609 -91 1734 -91 
Q 1441 -91 1130 -33 
Q 819 25 488 141 
L 488 750 
Q 750 597 1062 519 
Q 1375 441 1716 441 
Q 2309 441 2620 675 
Q 2931 909 2931 1356 
Q 2931 1769 2642 2001 
Q 2353 2234 1838 2234 
L 1294 2234 
L 1294 2753 
L 1863 2753 
Q 2328 2753 2575 2939 
Q 2822 3125 2822 3475 
Q 2822 3834 2567 4026 
Q 2313 4219 1838 4219 
Q 1578 4219 1281 4162 
Q 984 4106 628 3988 
L 628 4550 
Q 988 4650 1302 4700 
Q 1616 4750 1894 4750 
Q 2613 4750 3031 4423 
Q 3450 4097 3450 3541 
Q 3450 3153 3228 2886 
Q 3006 2619 2597 2516 
z
" transform="scale(0.015625)"/>
       </defs>
       <use xlink:href="#DejaVuSans-33"/>
       <use xlink:href="#DejaVuSans-30" transform="translate(63.623047 0)"/>
      </g>
     </g>
    </g>
    <g id="xtick_5">
     <g id="line2d_9">
      <path d="M 333.464685 382.746 
L 333.464685 57.274 
" clip-path="url(#p6ab5813b84)" style="fill: none; stroke: #b0b0b0; stroke-opacity: 0.7; stroke-width: 0.3; stroke-linecap: square"/>
     </g>
     <g id="line2d_10">
      <g>
       <use xlink:href="#ma29ece85a9" x="333.464685" y="382.746" style="stroke: #000000; stroke-width: 0.8"/>
      </g>
     </g>
     <g id="text_5">
      <!-- 40 -->
      <g transform="translate(327.102185 397.344437) scale(0.1 -0.1)">
       <defs>
        <path id="DejaVuSans-34" d="M 2419 4116 
L 825 1625 
L 2419 1625 
L 2419 4116 
z
M 2253 4666 
L 3047 4666 
L 3047 1625 
L 3713 1625 
L 3713 1100 
L 3047 1100 
L 3047 0 
L 2419 0 
L 2419 1100 
L 313 1100 
L 313 1709 
L 2253 4666 
z
" transform="scale(0.015625)"/>
       </defs>
       <use xlink:href="#DejaVuSans-34"/>
       <use xlink:href="#DejaVuSans-30" transform="translate(63.623047 0)"/>
      </g>
     </g>
    </g>
    <g id="xtick_6">
     <g id="line2d_11">
      <path d="M 378.92195 382.746 
L 378.92195 57.274 
" clip-path="url(#p6ab5813b84)" style="fill: none; stroke: #b0b0b0; stroke-opacity: 0.7; stroke-width: 0.3; stroke-linecap: square"/>
     </g>
     <g id="line2d_12">
      <g>
       <use xlink:href="#ma29ece85a9" x="378.92195" y="382.746" style="stroke: #000000; stroke-width: 0.8"/>
      </g>
     </g>
     <g id="text_6">
      <!-- 50 -->
      <g transform="translate(372.55945 397.344437) scale(0.1 -0.1)">
       <defs>
        <path id="DejaVuSans-35" d="M 691 4666 
L 3169 4666 
L 3169 4134 
L 1269 4134 
L 1269 2991 
Q 1406 3038 1543 3061 
Q 1681 3084 1819 3084 
Q 2600 3084 3056 2656 
Q 3513 2228 3513 1497 
Q 3513 744 3044 326 
Q 2575 -91 1722 -91 
Q 1428 -91 1123 -41 
Q 819 9 494 109 
L 494 744 
Q 775 591 1075 516 
Q 1375 441 1709 441 
Q 2250 441 2565 725 
Q 2881 1009 2881 1497 
Q 2881 1984 2565 2268 
Q 2250 2553 1709 2553 
Q 1456 2553 1204 2497 
Q 953 2441 691 2322 
L 691 4666 
z
" transform="scale(0.015625)"/>
       </defs>
       <use xlink:href="#DejaVuSans-35"/>
       <use xlink:href="#DejaVuSans-30" transform="translate(63.623047 0)"/>
      </g>
     </g>
    </g>
    <g id="text_7">
     <!-- Number of Articles -->
     <g transform="translate(219.17875 414.061937) scale(0.14 -0.14)">
      <defs>
       <path id="DejaVuSans-4e" d="M 628 4666 
L 1478 4666 
L 3547 763 
L 3547 4666 
L 4159 4666 
L 4159 0 
L 3309 0 
L 1241 3903 
L 1241 0 
L 628 0 
L 628 4666 
z
" transform="scale(0.015625)"/>
       <path id="DejaVuSans-75" d="M 544 1381 
L 544 3500 
L 1119 3500 
L 1119 1403 
Q 1119 906 1312 657 
Q 1506 409 1894 409 
Q 2359 409 2629 706 
Q 2900 1003 2900 1516 
L 2900 3500 
L 3475 3500 
L 3475 0 
L 2900 0 
L 2900 538 
Q 2691 219 2414 64 
Q 2138 -91 1772 -91 
Q 1169 -91 856 284 
Q 544 659 544 1381 
z
M 1991 3584 
L 1991 3584 
z
" transform="scale(0.015625)"/>
       <path id="DejaVuSans-6d" d="M 3328 2828 
Q 3544 3216 3844 3400 
Q 4144 3584 4550 3584 
Q 5097 3584 5394 3201 
Q 5691 2819 5691 2113 
L 5691 0 
L 5113 0 
L 5113 2094 
Q 5113 2597 4934 2840 
Q 4756 3084 4391 3084 
Q 3944 3084 3684 2787 
Q 3425 2491 3425 1978 
L 3425 0 
L 2847 0 
L 2847 2094 
Q 2847 2600 2669 2842 
Q 2491 3084 2119 3084 
Q 1678 3084 1418 2786 
Q 1159 2488 1159 1978 
L 1159 0 
L 581 0 
L 581 3500 
L 1159 3500 
L 1159 2956 
Q 1356 3278 1631 3431 
Q 1906 3584 2284 3584 
Q 2666 3584 2933 3390 
Q 3200 3197 3328 2828 
z
" transform="scale(0.015625)"/>
       <path id="DejaVuSans-62" d="M 3116 1747 
Q 3116 2381 2855 2742 
Q 2594 3103 2138 3103 
Q 1681 3103 1420 2742 
Q 1159 2381 1159 1747 
Q 1159 1113 1420 752 
Q 1681 391 2138 391 
Q 2594 391 2855 752 
Q 3116 1113 3116 1747 
z
M 1159 2969 
Q 1341 3281 1617 3432 
Q 1894 3584 2278 3584 
Q 2916 3584 3314 3078 
Q 3713 2572 3713 1747 
Q 3713 922 3314 415 
Q 2916 -91 2278 -91 
Q 1894 -91 1617 61 
Q 1341 213 1159 525 
L 1159 0 
L 581 0 
L 581 4863 
L 1159 4863 
L 1159 2969 
z
" transform="scale(0.015625)"/>
       <path id="DejaVuSans-65" d="M 3597 1894 
L 3597 1613 
L 953 1613 
Q 991 1019 1311 708 
Q 1631 397 2203 397 
Q 2534 397 2845 478 
Q 3156 559 3463 722 
L 3463 178 
Q 3153 47 2828 -22 
Q 2503 -91 2169 -91 
Q 1331 -91 842 396 
Q 353 884 353 1716 
Q 353 2575 817 3079 
Q 1281 3584 2069 3584 
Q 2775 3584 3186 3129 
Q 3597 2675 3597 1894 
z
M 3022 2063 
Q 3016 2534 2758 2815 
Q 2500 3097 2075 3097 
Q 1594 3097 1305 2825 
Q 1016 2553 972 2059 
L 3022 2063 
z
" transform="scale(0.015625)"/>
       <path id="DejaVuSans-72" d="M 2631 2963 
Q 2534 3019 2420 3045 
Q 2306 3072 2169 3072 
Q 1681 3072 1420 2755 
Q 1159 2438 1159 1844 
L 1159 0 
L 581 0 
L 581 3500 
L 1159 3500 
L 1159 2956 
Q 1341 3275 1631 3429 
Q 1922 3584 2338 3584 
Q 2397 3584 2469 3576 
Q 2541 3569 2628 3553 
L 2631 2963 
z
" transform="scale(0.015625)"/>
       <path id="DejaVuSans-20" transform="scale(0.015625)"/>
       <path id="DejaVuSans-6f" d="M 1959 3097 
Q 1497 3097 1228 2736 
Q 959 2375 959 1747 
Q 959 1119 1226 758 
Q 1494 397 1959 397 
Q 2419 397 2687 759 
Q 2956 1122 2956 1747 
Q 2956 2369 2687 2733 
Q 2419 3097 1959 3097 
z
M 1959 3584 
Q 2709 3584 3137 3096 
Q 3566 2609 3566 1747 
Q 3566 888 3137 398 
Q 2709 -91 1959 -91 
Q 1206 -91 779 398 
Q 353 888 353 1747 
Q 353 2609 779 3096 
Q 1206 3584 1959 3584 
z
" transform="scale(0.015625)"/>
       <path id="DejaVuSans-66" d="M 2375 4863 
L 2375 4384 
L 1825 4384 
Q 1516 4384 1395 4259 
Q 1275 4134 1275 3809 
L 1275 3500 
L 2222 3500 
L 2222 3053 
L 1275 3053 
L 1275 0 
L 697 0 
L 697 3053 
L 147 3053 
L 147 3500 
L 697 3500 
L 697 3744 
Q 697 4328 969 4595 
Q 1241 4863 1831 4863 
L 2375 4863 
z
" transform="scale(0.015625)"/>
       <path id="DejaVuSans-41" d="M 2188 4044 
L 1331 1722 
L 3047 1722 
L 2188 4044 
z
M 1831 4666 
L 2547 4666 
L 4325 0 
L 3669 0 
L 3244 1197 
L 1141 1197 
L 716 0 
L 50 0 
L 1831 4666 
z
" transform="scale(0.015625)"/>
       <path id="DejaVuSans-74" d="M 1172 4494 
L 1172 3500 
L 2356 3500 
L 2356 3053 
L 1172 3053 
L 1172 1153 
Q 1172 725 1289 603 
Q 1406 481 1766 481 
L 2356 481 
L 2356 0 
L 1766 0 
Q 1100 0 847 248 
Q 594 497 594 1153 
L 594 3053 
L 172 3053 
L 172 3500 
L 594 3500 
L 594 4494 
L 1172 4494 
z
" transform="scale(0.015625)"/>
       <path id="DejaVuSans-69" d="M 603 3500 
L 1178 3500 
L 1178 0 
L 603 0 
L 603 3500 
z
M 603 4863 
L 1178 4863 
L 1178 4134 
L 603 4134 
L 603 4863 
z
" transform="scale(0.015625)"/>
       <path id="DejaVuSans-63" d="M 3122 3366 
L 3122 2828 
Q 2878 2963 2633 3030 
Q 2388 3097 2138 3097 
Q 1578 3097 1268 2742 
Q 959 2388 959 1747 
Q 959 1106 1268 751 
Q 1578 397 2138 397 
Q 2388 397 2633 464 
Q 2878 531 3122 666 
L 3122 134 
Q 2881 22 2623 -34 
Q 2366 -91 2075 -91 
Q 1284 -91 818 406 
Q 353 903 353 1747 
Q 353 2603 823 3093 
Q 1294 3584 2113 3584 
Q 2378 3584 2631 3529 
Q 2884 3475 3122 3366 
z
" transform="scale(0.015625)"/>
       <path id="DejaVuSans-6c" d="M 603 4863 
L 1178 4863 
L 1178 0 
L 603 0 
L 603 4863 
z
" transform="scale(0.015625)"/>
       <path id="DejaVuSans-73" d="M 2834 3397 
L 2834 2853 
Q 2591 2978 2328 3040 
Q 2066 3103 1784 3103 
Q 1356 3103 1142 2972 
Q 928 2841 928 2578 
Q 928 2378 1081 2264 
Q 1234 2150 1697 2047 
L 1894 2003 
Q 2506 1872 2764 1633 
Q 3022 1394 3022 966 
Q 3022 478 2636 193 
Q 2250 -91 1575 -91 
Q 1294 -91 989 -36 
Q 684 19 347 128 
L 347 722 
Q 666 556 975 473 
Q 1284 391 1588 391 
Q 1994 391 2212 530 
Q 2431 669 2431 922 
Q 2431 1156 2273 1281 
Q 2116 1406 1581 1522 
L 1381 1569 
Q 847 1681 609 1914 
Q 372 2147 372 2553 
Q 372 3047 722 3315 
Q 1072 3584 1716 3584 
Q 2034 3584 2315 3537 
Q 2597 3491 2834 3397 
z
" transform="scale(0.015625)"/>
      </defs>
      <use xlink:href="#DejaVuSans-4e"/>
      <use xlink:href="#DejaVuSans-75" transform="translate(74.804688 0)"/>
      <use xlink:href="#DejaVuSans-6d" transform="translate(138.183594 0)"/>
      <use xlink:href="#DejaVuSans-62" transform="translate(235.595703 0)"/>
      <use xlink:href="#DejaVuSans-65" transform="translate(299.072266 0)"/>
      <use xlink:href="#DejaVuSans-72" transform="translate(360.595703 0)"/>
      <use xlink:href="#DejaVuSans-20" transform="translate(401.708984 0)"/>
      <use xlink:href="#DejaVuSans-6f" transform="translate(433.496094 0)"/>
      <use xlink:href="#DejaVuSans-66" transform="translate(494.677734 0)"/>
      <use xlink:href="#DejaVuSans-20" transform="translate(529.882812 0)"/>
      <use xlink:href="#DejaVuSans-41" transform="translate(561.669922 0)"/>
      <use xlink:href="#DejaVuSans-72" transform="translate(630.078125 0)"/>
      <use xlink:href="#DejaVuSans-74" transform="translate(671.191406 0)"/>
      <use xlink:href="#DejaVuSans-69" transform="translate(710.400391 0)"/>
      <use xlink:href="#DejaVuSans-63" transform="translate(738.183594 0)"/>
      <use xlink:href="#DejaVuSans-6c" transform="translate(793.164062 0)"/>
      <use xlink:href="#DejaVuSans-65" transform="translate(820.947266 0)"/>
      <use xlink:href="#DejaVuSans-73" transform="translate(882.470703 0)"/>
     </g>
    </g>
   </g>
   <g id="matplotlib.axis_2">
    <g id="ytick_1">
     <g id="line2d_13">
      <defs>
       <path id="m2a4631ad2c" d="M 0 0 
L -3.5 0 
" style="stroke: #000000; stroke-width: 0.8"/>
      </defs>
      <g>
       <use xlink:href="#m2a4631ad2c" x="151.635625" y="352.100909" style="stroke: #000000; stroke-width: 0.8"/>
      </g>
     </g>
     <g id="text_8">
      <!-- Automatic rating of -->
      <g transform="translate(28.35375 350.853097) scale(0.12 -0.12)">
       <defs>
        <path id="DejaVuSans-61" d="M 2194 1759 
Q 1497 1759 1228 1600 
Q 959 1441 959 1056 
Q 959 750 1161 570 
Q 1363 391 1709 391 
Q 2188 391 2477 730 
Q 2766 1069 2766 1631 
L 2766 1759 
L 2194 1759 
z
M 3341 1997 
L 3341 0 
L 2766 0 
L 2766 531 
Q 2569 213 2275 61 
Q 1981 -91 1556 -91 
Q 1019 -91 701 211 
Q 384 513 384 1019 
Q 384 1609 779 1909 
Q 1175 2209 1959 2209 
L 2766 2209 
L 2766 2266 
Q 2766 2663 2505 2880 
Q 2244 3097 1772 3097 
Q 1472 3097 1187 3025 
Q 903 2953 641 2809 
L 641 3341 
Q 956 3463 1253 3523 
Q 1550 3584 1831 3584 
Q 2591 3584 2966 3190 
Q 3341 2797 3341 1997 
z
" transform="scale(0.015625)"/>
        <path id="DejaVuSans-6e" d="M 3513 2113 
L 3513 0 
L 2938 0 
L 2938 2094 
Q 2938 2591 2744 2837 
Q 2550 3084 2163 3084 
Q 1697 3084 1428 2787 
Q 1159 2491 1159 1978 
L 1159 0 
L 581 0 
L 581 3500 
L 1159 3500 
L 1159 2956 
Q 1366 3272 1645 3428 
Q 1925 3584 2291 3584 
Q 2894 3584 3203 3211 
Q 3513 2838 3513 2113 
z
" transform="scale(0.015625)"/>
        <path id="DejaVuSans-67" d="M 2906 1791 
Q 2906 2416 2648 2759 
Q 2391 3103 1925 3103 
Q 1463 3103 1205 2759 
Q 947 2416 947 1791 
Q 947 1169 1205 825 
Q 1463 481 1925 481 
Q 2391 481 2648 825 
Q 2906 1169 2906 1791 
z
M 3481 434 
Q 3481 -459 3084 -895 
Q 2688 -1331 1869 -1331 
Q 1566 -1331 1297 -1286 
Q 1028 -1241 775 -1147 
L 775 -588 
Q 1028 -725 1275 -790 
Q 1522 -856 1778 -856 
Q 2344 -856 2625 -561 
Q 2906 -266 2906 331 
L 2906 616 
Q 2728 306 2450 153 
Q 2172 0 1784 0 
Q 1141 0 747 490 
Q 353 981 353 1791 
Q 353 2603 747 3093 
Q 1141 3584 1784 3584 
Q 2172 3584 2450 3431 
Q 2728 3278 2906 2969 
L 2906 3500 
L 3481 3500 
L 3481 434 
z
" transform="scale(0.015625)"/>
       </defs>
       <use xlink:href="#DejaVuSans-41"/>
       <use xlink:href="#DejaVuSans-75" transform="translate(68.408203 0)"/>
       <use xlink:href="#DejaVuSans-74" transform="translate(131.787109 0)"/>
       <use xlink:href="#DejaVuSans-6f" transform="translate(170.996094 0)"/>
       <use xlink:href="#DejaVuSans-6d" transform="translate(232.177734 0)"/>
       <use xlink:href="#DejaVuSans-61" transform="translate(329.589844 0)"/>
       <use xlink:href="#DejaVuSans-74" transform="translate(390.869141 0)"/>
       <use xlink:href="#DejaVuSans-69" transform="translate(430.078125 0)"/>
       <use xlink:href="#DejaVuSans-63" transform="translate(457.861328 0)"/>
       <use xlink:href="#DejaVuSans-20" transform="translate(512.841797 0)"/>
       <use xlink:href="#DejaVuSans-72" transform="translate(544.628906 0)"/>
       <use xlink:href="#DejaVuSans-61" transform="translate(585.742188 0)"/>
       <use xlink:href="#DejaVuSans-74" transform="translate(647.021484 0)"/>
       <use xlink:href="#DejaVuSans-69" transform="translate(686.230469 0)"/>
       <use xlink:href="#DejaVuSans-6e" transform="translate(714.013672 0)"/>
       <use xlink:href="#DejaVuSans-67" transform="translate(777.392578 0)"/>
       <use xlink:href="#DejaVuSans-20" transform="translate(840.869141 0)"/>
       <use xlink:href="#DejaVuSans-6f" transform="translate(872.65625 0)"/>
       <use xlink:href="#DejaVuSans-66" transform="translate(933.837891 0)"/>
      </g>
      <!-- safety or bias -->
      <g transform="translate(63.155625 364.290472) scale(0.12 -0.12)">
       <defs>
        <path id="DejaVuSans-79" d="M 2059 -325 
Q 1816 -950 1584 -1140 
Q 1353 -1331 966 -1331 
L 506 -1331 
L 506 -850 
L 844 -850 
Q 1081 -850 1212 -737 
Q 1344 -625 1503 -206 
L 1606 56 
L 191 3500 
L 800 3500 
L 1894 763 
L 2988 3500 
L 3597 3500 
L 2059 -325 
z
" transform="scale(0.015625)"/>
       </defs>
       <use xlink:href="#DejaVuSans-73"/>
       <use xlink:href="#DejaVuSans-61" transform="translate(52.099609 0)"/>
       <use xlink:href="#DejaVuSans-66" transform="translate(113.378906 0)"/>
       <use xlink:href="#DejaVuSans-65" transform="translate(148.583984 0)"/>
       <use xlink:href="#DejaVuSans-74" transform="translate(210.107422 0)"/>
       <use xlink:href="#DejaVuSans-79" transform="translate(249.316406 0)"/>
       <use xlink:href="#DejaVuSans-20" transform="translate(308.496094 0)"/>
       <use xlink:href="#DejaVuSans-6f" transform="translate(340.283203 0)"/>
       <use xlink:href="#DejaVuSans-72" transform="translate(401.464844 0)"/>
       <use xlink:href="#DejaVuSans-20" transform="translate(442.578125 0)"/>
       <use xlink:href="#DejaVuSans-62" transform="translate(474.365234 0)"/>
       <use xlink:href="#DejaVuSans-69" transform="translate(537.841797 0)"/>
       <use xlink:href="#DejaVuSans-61" transform="translate(565.625 0)"/>
       <use xlink:href="#DejaVuSans-73" transform="translate(626.904297 0)"/>
      </g>
     </g>
    </g>
    <g id="ytick_2">
     <g id="line2d_14">
      <g>
       <use xlink:href="#m2a4631ad2c" x="151.635625" y="299.264545" style="stroke: #000000; stroke-width: 0.8"/>
      </g>
     </g>
     <g id="text_9">
      <!-- Automatic rating of -->
      <g transform="translate(28.35375 298.016733) scale(0.12 -0.12)">
       <use xlink:href="#DejaVuSans-41"/>
       <use xlink:href="#DejaVuSans-75" transform="translate(68.408203 0)"/>
       <use xlink:href="#DejaVuSans-74" transform="translate(131.787109 0)"/>
       <use xlink:href="#DejaVuSans-6f" transform="translate(170.996094 0)"/>
       <use xlink:href="#DejaVuSans-6d" transform="translate(232.177734 0)"/>
       <use xlink:href="#DejaVuSans-61" transform="translate(329.589844 0)"/>
       <use xlink:href="#DejaVuSans-74" transform="translate(390.869141 0)"/>
       <use xlink:href="#DejaVuSans-69" transform="translate(430.078125 0)"/>
       <use xlink:href="#DejaVuSans-63" transform="translate(457.861328 0)"/>
       <use xlink:href="#DejaVuSans-20" transform="translate(512.841797 0)"/>
       <use xlink:href="#DejaVuSans-72" transform="translate(544.628906 0)"/>
       <use xlink:href="#DejaVuSans-61" transform="translate(585.742188 0)"/>
       <use xlink:href="#DejaVuSans-74" transform="translate(647.021484 0)"/>
       <use xlink:href="#DejaVuSans-69" transform="translate(686.230469 0)"/>
       <use xlink:href="#DejaVuSans-6e" transform="translate(714.013672 0)"/>
       <use xlink:href="#DejaVuSans-67" transform="translate(777.392578 0)"/>
       <use xlink:href="#DejaVuSans-20" transform="translate(840.869141 0)"/>
       <use xlink:href="#DejaVuSans-6f" transform="translate(872.65625 0)"/>
       <use xlink:href="#DejaVuSans-66" transform="translate(933.837891 0)"/>
      </g>
      <!-- other response quality -->
      <g transform="translate(9.489375 311.454108) scale(0.12 -0.12)">
       <defs>
        <path id="DejaVuSans-68" d="M 3513 2113 
L 3513 0 
L 2938 0 
L 2938 2094 
Q 2938 2591 2744 2837 
Q 2550 3084 2163 3084 
Q 1697 3084 1428 2787 
Q 1159 2491 1159 1978 
L 1159 0 
L 581 0 
L 581 4863 
L 1159 4863 
L 1159 2956 
Q 1366 3272 1645 3428 
Q 1925 3584 2291 3584 
Q 2894 3584 3203 3211 
Q 3513 2838 3513 2113 
z
" transform="scale(0.015625)"/>
        <path id="DejaVuSans-70" d="M 1159 525 
L 1159 -1331 
L 581 -1331 
L 581 3500 
L 1159 3500 
L 1159 2969 
Q 1341 3281 1617 3432 
Q 1894 3584 2278 3584 
Q 2916 3584 3314 3078 
Q 3713 2572 3713 1747 
Q 3713 922 3314 415 
Q 2916 -91 2278 -91 
Q 1894 -91 1617 61 
Q 1341 213 1159 525 
z
M 3116 1747 
Q 3116 2381 2855 2742 
Q 2594 3103 2138 3103 
Q 1681 3103 1420 2742 
Q 1159 2381 1159 1747 
Q 1159 1113 1420 752 
Q 1681 391 2138 391 
Q 2594 391 2855 752 
Q 3116 1113 3116 1747 
z
" transform="scale(0.015625)"/>
        <path id="DejaVuSans-71" d="M 947 1747 
Q 947 1113 1208 752 
Q 1469 391 1925 391 
Q 2381 391 2643 752 
Q 2906 1113 2906 1747 
Q 2906 2381 2643 2742 
Q 2381 3103 1925 3103 
Q 1469 3103 1208 2742 
Q 947 2381 947 1747 
z
M 2906 525 
Q 2725 213 2448 61 
Q 2172 -91 1784 -91 
Q 1150 -91 751 415 
Q 353 922 353 1747 
Q 353 2572 751 3078 
Q 1150 3584 1784 3584 
Q 2172 3584 2448 3432 
Q 2725 3281 2906 2969 
L 2906 3500 
L 3481 3500 
L 3481 -1331 
L 2906 -1331 
L 2906 525 
z
" transform="scale(0.015625)"/>
       </defs>
       <use xlink:href="#DejaVuSans-6f"/>
       <use xlink:href="#DejaVuSans-74" transform="translate(61.181641 0)"/>
       <use xlink:href="#DejaVuSans-68" transform="translate(100.390625 0)"/>
       <use xlink:href="#DejaVuSans-65" transform="translate(163.769531 0)"/>
       <use xlink:href="#DejaVuSans-72" transform="translate(225.292969 0)"/>
       <use xlink:href="#DejaVuSans-20" transform="translate(266.40625 0)"/>
       <use xlink:href="#DejaVuSans-72" transform="translate(298.193359 0)"/>
       <use xlink:href="#DejaVuSans-65" transform="translate(337.056641 0)"/>
       <use xlink:href="#DejaVuSans-73" transform="translate(398.580078 0)"/>
       <use xlink:href="#DejaVuSans-70" transform="translate(450.679688 0)"/>
       <use xlink:href="#DejaVuSans-6f" transform="translate(514.15625 0)"/>
       <use xlink:href="#DejaVuSans-6e" transform="translate(575.337891 0)"/>
       <use xlink:href="#DejaVuSans-73" transform="translate(638.716797 0)"/>
       <use xlink:href="#DejaVuSans-65" transform="translate(690.816406 0)"/>
       <use xlink:href="#DejaVuSans-20" transform="translate(752.339844 0)"/>
       <use xlink:href="#DejaVuSans-71" transform="translate(784.126953 0)"/>
       <use xlink:href="#DejaVuSans-75" transform="translate(847.603516 0)"/>
       <use xlink:href="#DejaVuSans-61" transform="translate(910.982422 0)"/>
       <use xlink:href="#DejaVuSans-6c" transform="translate(972.261719 0)"/>
       <use xlink:href="#DejaVuSans-69" transform="translate(1000.044922 0)"/>
       <use xlink:href="#DejaVuSans-74" transform="translate(1027.828125 0)"/>
       <use xlink:href="#DejaVuSans-79" transform="translate(1067.037109 0)"/>
      </g>
     </g>
    </g>
    <g id="ytick_3">
     <g id="line2d_15">
      <g>
       <use xlink:href="#m2a4631ad2c" x="151.635625" y="246.428182" style="stroke: #000000; stroke-width: 0.8"/>
      </g>
     </g>
     <g id="text_10">
      <!-- Automatic rating of -->
      <g transform="translate(28.35375 245.180369) scale(0.12 -0.12)">
       <use xlink:href="#DejaVuSans-41"/>
       <use xlink:href="#DejaVuSans-75" transform="translate(68.408203 0)"/>
       <use xlink:href="#DejaVuSans-74" transform="translate(131.787109 0)"/>
       <use xlink:href="#DejaVuSans-6f" transform="translate(170.996094 0)"/>
       <use xlink:href="#DejaVuSans-6d" transform="translate(232.177734 0)"/>
       <use xlink:href="#DejaVuSans-61" transform="translate(329.589844 0)"/>
       <use xlink:href="#DejaVuSans-74" transform="translate(390.869141 0)"/>
       <use xlink:href="#DejaVuSans-69" transform="translate(430.078125 0)"/>
       <use xlink:href="#DejaVuSans-63" transform="translate(457.861328 0)"/>
       <use xlink:href="#DejaVuSans-20" transform="translate(512.841797 0)"/>
       <use xlink:href="#DejaVuSans-72" transform="translate(544.628906 0)"/>
       <use xlink:href="#DejaVuSans-61" transform="translate(585.742188 0)"/>
       <use xlink:href="#DejaVuSans-74" transform="translate(647.021484 0)"/>
       <use xlink:href="#DejaVuSans-69" transform="translate(686.230469 0)"/>
       <use xlink:href="#DejaVuSans-6e" transform="translate(714.013672 0)"/>
       <use xlink:href="#DejaVuSans-67" transform="translate(777.392578 0)"/>
       <use xlink:href="#DejaVuSans-20" transform="translate(840.869141 0)"/>
       <use xlink:href="#DejaVuSans-6f" transform="translate(872.65625 0)"/>
       <use xlink:href="#DejaVuSans-66" transform="translate(933.837891 0)"/>
      </g>
      <!-- empathy or sentiment -->
      <g transform="translate(10.61625 258.617744) scale(0.12 -0.12)">
       <use xlink:href="#DejaVuSans-65"/>
       <use xlink:href="#DejaVuSans-6d" transform="translate(61.523438 0)"/>
       <use xlink:href="#DejaVuSans-70" transform="translate(158.935547 0)"/>
       <use xlink:href="#DejaVuSans-61" transform="translate(222.412109 0)"/>
       <use xlink:href="#DejaVuSans-74" transform="translate(283.691406 0)"/>
       <use xlink:href="#DejaVuSans-68" transform="translate(322.900391 0)"/>
       <use xlink:href="#DejaVuSans-79" transform="translate(386.279297 0)"/>
       <use xlink:href="#DejaVuSans-20" transform="translate(445.458984 0)"/>
       <use xlink:href="#DejaVuSans-6f" transform="translate(477.246094 0)"/>
       <use xlink:href="#DejaVuSans-72" transform="translate(538.427734 0)"/>
       <use xlink:href="#DejaVuSans-20" transform="translate(579.541016 0)"/>
       <use xlink:href="#DejaVuSans-73" transform="translate(611.328125 0)"/>
       <use xlink:href="#DejaVuSans-65" transform="translate(663.427734 0)"/>
       <use xlink:href="#DejaVuSans-6e" transform="translate(724.951172 0)"/>
       <use xlink:href="#DejaVuSans-74" transform="translate(788.330078 0)"/>
       <use xlink:href="#DejaVuSans-69" transform="translate(827.539062 0)"/>
       <use xlink:href="#DejaVuSans-6d" transform="translate(855.322266 0)"/>
       <use xlink:href="#DejaVuSans-65" transform="translate(952.734375 0)"/>
       <use xlink:href="#DejaVuSans-6e" transform="translate(1014.257812 0)"/>
       <use xlink:href="#DejaVuSans-74" transform="translate(1077.636719 0)"/>
      </g>
     </g>
    </g>
    <g id="ytick_4">
     <g id="line2d_16">
      <g>
       <use xlink:href="#m2a4631ad2c" x="151.635625" y="193.591818" style="stroke: #000000; stroke-width: 0.8"/>
      </g>
     </g>
     <g id="text_11">
      <!-- Linguistic properties -->
      <g transform="translate(22.520625 198.150881) scale(0.12 -0.12)">
       <defs>
        <path id="DejaVuSans-4c" d="M 628 4666 
L 1259 4666 
L 1259 531 
L 3531 531 
L 3531 0 
L 628 0 
L 628 4666 
z
" transform="scale(0.015625)"/>
       </defs>
       <use xlink:href="#DejaVuSans-4c"/>
       <use xlink:href="#DejaVuSans-69" transform="translate(55.712891 0)"/>
       <use xlink:href="#DejaVuSans-6e" transform="translate(83.496094 0)"/>
       <use xlink:href="#DejaVuSans-67" transform="translate(146.875 0)"/>
       <use xlink:href="#DejaVuSans-75" transform="translate(210.351562 0)"/>
       <use xlink:href="#DejaVuSans-69" transform="translate(273.730469 0)"/>
       <use xlink:href="#DejaVuSans-73" transform="translate(301.513672 0)"/>
       <use xlink:href="#DejaVuSans-74" transform="translate(353.613281 0)"/>
       <use xlink:href="#DejaVuSans-69" transform="translate(392.822266 0)"/>
       <use xlink:href="#DejaVuSans-63" transform="translate(420.605469 0)"/>
       <use xlink:href="#DejaVuSans-20" transform="translate(475.585938 0)"/>
       <use xlink:href="#DejaVuSans-70" transform="translate(507.373047 0)"/>
       <use xlink:href="#DejaVuSans-72" transform="translate(570.849609 0)"/>
       <use xlink:href="#DejaVuSans-6f" transform="translate(609.712891 0)"/>
       <use xlink:href="#DejaVuSans-70" transform="translate(670.894531 0)"/>
       <use xlink:href="#DejaVuSans-65" transform="translate(734.371094 0)"/>
       <use xlink:href="#DejaVuSans-72" transform="translate(795.894531 0)"/>
       <use xlink:href="#DejaVuSans-74" transform="translate(837.007812 0)"/>
       <use xlink:href="#DejaVuSans-69" transform="translate(876.216797 0)"/>
       <use xlink:href="#DejaVuSans-65" transform="translate(904 0)"/>
       <use xlink:href="#DejaVuSans-73" transform="translate(965.523438 0)"/>
      </g>
     </g>
    </g>
    <g id="ytick_5">
     <g id="line2d_17">
      <g>
       <use xlink:href="#m2a4631ad2c" x="151.635625" y="140.755455" style="stroke: #000000; stroke-width: 0.8"/>
      </g>
     </g>
     <g id="text_12">
      <!-- Human rating -->
      <g transform="translate(61.996875 145.314517) scale(0.12 -0.12)">
       <defs>
        <path id="DejaVuSans-48" d="M 628 4666 
L 1259 4666 
L 1259 2753 
L 3553 2753 
L 3553 4666 
L 4184 4666 
L 4184 0 
L 3553 0 
L 3553 2222 
L 1259 2222 
L 1259 0 
L 628 0 
L 628 4666 
z
" transform="scale(0.015625)"/>
       </defs>
       <use xlink:href="#DejaVuSans-48"/>
       <use xlink:href="#DejaVuSans-75" transform="translate(75.195312 0)"/>
       <use xlink:href="#DejaVuSans-6d" transform="translate(138.574219 0)"/>
       <use xlink:href="#DejaVuSans-61" transform="translate(235.986328 0)"/>
       <use xlink:href="#DejaVuSans-6e" transform="translate(297.265625 0)"/>
       <use xlink:href="#DejaVuSans-20" transform="translate(360.644531 0)"/>
       <use xlink:href="#DejaVuSans-72" transform="translate(392.431641 0)"/>
       <use xlink:href="#DejaVuSans-61" transform="translate(433.544922 0)"/>
       <use xlink:href="#DejaVuSans-74" transform="translate(494.824219 0)"/>
       <use xlink:href="#DejaVuSans-69" transform="translate(534.033203 0)"/>
       <use xlink:href="#DejaVuSans-6e" transform="translate(561.816406 0)"/>
       <use xlink:href="#DejaVuSans-67" transform="translate(625.195312 0)"/>
      </g>
     </g>
    </g>
    <g id="ytick_6">
     <g id="line2d_18">
      <g>
       <use xlink:href="#m2a4631ad2c" x="151.635625" y="87.919091" style="stroke: #000000; stroke-width: 0.8"/>
      </g>
     </g>
     <g id="text_13">
      <!-- Comparison against -->
      <g transform="translate(24.75375 86.671278) scale(0.12 -0.12)">
       <defs>
        <path id="DejaVuSans-43" d="M 4122 4306 
L 4122 3641 
Q 3803 3938 3442 4084 
Q 3081 4231 2675 4231 
Q 1875 4231 1450 3742 
Q 1025 3253 1025 2328 
Q 1025 1406 1450 917 
Q 1875 428 2675 428 
Q 3081 428 3442 575 
Q 3803 722 4122 1019 
L 4122 359 
Q 3791 134 3420 21 
Q 3050 -91 2638 -91 
Q 1578 -91 968 557 
Q 359 1206 359 2328 
Q 359 3453 968 4101 
Q 1578 4750 2638 4750 
Q 3056 4750 3426 4639 
Q 3797 4528 4122 4306 
z
" transform="scale(0.015625)"/>
       </defs>
       <use xlink:href="#DejaVuSans-43"/>
       <use xlink:href="#DejaVuSans-6f" transform="translate(69.824219 0)"/>
       <use xlink:href="#DejaVuSans-6d" transform="translate(131.005859 0)"/>
       <use xlink:href="#DejaVuSans-70" transform="translate(228.417969 0)"/>
       <use xlink:href="#DejaVuSans-61" transform="translate(291.894531 0)"/>
       <use xlink:href="#DejaVuSans-72" transform="translate(353.173828 0)"/>
       <use xlink:href="#DejaVuSans-69" transform="translate(394.287109 0)"/>
       <use xlink:href="#DejaVuSans-73" transform="translate(422.070312 0)"/>
       <use xlink:href="#DejaVuSans-6f" transform="translate(474.169922 0)"/>
       <use xlink:href="#DejaVuSans-6e" transform="translate(535.351562 0)"/>
       <use xlink:href="#DejaVuSans-20" transform="translate(598.730469 0)"/>
       <use xlink:href="#DejaVuSans-61" transform="translate(630.517578 0)"/>
       <use xlink:href="#DejaVuSans-67" transform="translate(691.796875 0)"/>
       <use xlink:href="#DejaVuSans-61" transform="translate(755.273438 0)"/>
       <use xlink:href="#DejaVuSans-69" transform="translate(816.552734 0)"/>
       <use xlink:href="#DejaVuSans-6e" transform="translate(844.335938 0)"/>
       <use xlink:href="#DejaVuSans-73" transform="translate(907.714844 0)"/>
       <use xlink:href="#DejaVuSans-74" transform="translate(959.814453 0)"/>
      </g>
      <!-- ground-truth reference -->
      <g transform="translate(7.2 100.108653) scale(0.12 -0.12)">
       <defs>
        <path id="DejaVuSans-64" d="M 2906 2969 
L 2906 4863 
L 3481 4863 
L 3481 0 
L 2906 0 
L 2906 525 
Q 2725 213 2448 61 
Q 2172 -91 1784 -91 
Q 1150 -91 751 415 
Q 353 922 353 1747 
Q 353 2572 751 3078 
Q 1150 3584 1784 3584 
Q 2172 3584 2448 3432 
Q 2725 3281 2906 2969 
z
M 947 1747 
Q 947 1113 1208 752 
Q 1469 391 1925 391 
Q 2381 391 2643 752 
Q 2906 1113 2906 1747 
Q 2906 2381 2643 2742 
Q 2381 3103 1925 3103 
Q 1469 3103 1208 2742 
Q 947 2381 947 1747 
z
" transform="scale(0.015625)"/>
        <path id="DejaVuSans-2d" d="M 313 2009 
L 1997 2009 
L 1997 1497 
L 313 1497 
L 313 2009 
z
" transform="scale(0.015625)"/>
       </defs>
       <use xlink:href="#DejaVuSans-67"/>
       <use xlink:href="#DejaVuSans-72" transform="translate(63.476562 0)"/>
       <use xlink:href="#DejaVuSans-6f" transform="translate(102.339844 0)"/>
       <use xlink:href="#DejaVuSans-75" transform="translate(163.521484 0)"/>
       <use xlink:href="#DejaVuSans-6e" transform="translate(226.900391 0)"/>
       <use xlink:href="#DejaVuSans-64" transform="translate(290.279297 0)"/>
       <use xlink:href="#DejaVuSans-2d" transform="translate(353.755859 0)"/>
       <use xlink:href="#DejaVuSans-74" transform="translate(389.839844 0)"/>
       <use xlink:href="#DejaVuSans-72" transform="translate(429.048828 0)"/>
       <use xlink:href="#DejaVuSans-75" transform="translate(470.162109 0)"/>
       <use xlink:href="#DejaVuSans-74" transform="translate(533.541016 0)"/>
       <use xlink:href="#DejaVuSans-68" transform="translate(572.75 0)"/>
       <use xlink:href="#DejaVuSans-20" transform="translate(636.128906 0)"/>
       <use xlink:href="#DejaVuSans-72" transform="translate(667.916016 0)"/>
       <use xlink:href="#DejaVuSans-65" transform="translate(706.779297 0)"/>
       <use xlink:href="#DejaVuSans-66" transform="translate(768.302734 0)"/>
       <use xlink:href="#DejaVuSans-65" transform="translate(803.507812 0)"/>
       <use xlink:href="#DejaVuSans-72" transform="translate(865.03125 0)"/>
       <use xlink:href="#DejaVuSans-65" transform="translate(903.894531 0)"/>
       <use xlink:href="#DejaVuSans-6e" transform="translate(965.417969 0)"/>
       <use xlink:href="#DejaVuSans-63" transform="translate(1028.796875 0)"/>
       <use xlink:href="#DejaVuSans-65" transform="translate(1083.777344 0)"/>
      </g>
     </g>
    </g>
   </g>
   <g id="patch_9">
    <path d="M 151.635625 382.746 
L 151.635625 57.274 
" style="fill: none; stroke: #000000; stroke-width: 0.8; stroke-linejoin: miter; stroke-linecap: square"/>
   </g>
   <g id="patch_10">
    <path d="M 151.635625 382.746 
L 417.560625 382.746 
" style="fill: none; stroke: #000000; stroke-width: 0.8; stroke-linejoin: miter; stroke-linecap: square"/>
   </g>
   <g id="text_14">
    <!-- 6 (6%) -->
    <g transform="translate(183.001138 355.412159) scale(0.12 -0.12)">
     <defs>
      <path id="DejaVuSans-36" d="M 2113 2584 
Q 1688 2584 1439 2293 
Q 1191 2003 1191 1497 
Q 1191 994 1439 701 
Q 1688 409 2113 409 
Q 2538 409 2786 701 
Q 3034 994 3034 1497 
Q 3034 2003 2786 2293 
Q 2538 2584 2113 2584 
z
M 3366 4563 
L 3366 3988 
Q 3128 4100 2886 4159 
Q 2644 4219 2406 4219 
Q 1781 4219 1451 3797 
Q 1122 3375 1075 2522 
Q 1259 2794 1537 2939 
Q 1816 3084 2150 3084 
Q 2853 3084 3261 2657 
Q 3669 2231 3669 1497 
Q 3669 778 3244 343 
Q 2819 -91 2113 -91 
Q 1303 -91 875 529 
Q 447 1150 447 2328 
Q 447 3434 972 4092 
Q 1497 4750 2381 4750 
Q 2619 4750 2861 4703 
Q 3103 4656 3366 4563 
z
" transform="scale(0.015625)"/>
      <path id="DejaVuSans-28" d="M 1984 4856 
Q 1566 4138 1362 3434 
Q 1159 2731 1159 2009 
Q 1159 1288 1364 580 
Q 1569 -128 1984 -844 
L 1484 -844 
Q 1016 -109 783 600 
Q 550 1309 550 2009 
Q 550 2706 781 3412 
Q 1013 4119 1484 4856 
L 1984 4856 
z
" transform="scale(0.015625)"/>
      <path id="DejaVuSans-25" d="M 4653 2053 
Q 4381 2053 4226 1822 
Q 4072 1591 4072 1178 
Q 4072 772 4226 539 
Q 4381 306 4653 306 
Q 4919 306 5073 539 
Q 5228 772 5228 1178 
Q 5228 1588 5073 1820 
Q 4919 2053 4653 2053 
z
M 4653 2450 
Q 5147 2450 5437 2106 
Q 5728 1763 5728 1178 
Q 5728 594 5436 251 
Q 5144 -91 4653 -91 
Q 4153 -91 3862 251 
Q 3572 594 3572 1178 
Q 3572 1766 3864 2108 
Q 4156 2450 4653 2450 
z
M 1428 4353 
Q 1159 4353 1004 4120 
Q 850 3888 850 3481 
Q 850 3069 1003 2837 
Q 1156 2606 1428 2606 
Q 1700 2606 1854 2837 
Q 2009 3069 2009 3481 
Q 2009 3884 1853 4118 
Q 1697 4353 1428 4353 
z
M 4250 4750 
L 4750 4750 
L 1831 -91 
L 1331 -91 
L 4250 4750 
z
M 1428 4750 
Q 1922 4750 2215 4408 
Q 2509 4066 2509 3481 
Q 2509 2891 2217 2550 
Q 1925 2209 1428 2209 
Q 931 2209 642 2551 
Q 353 2894 353 3481 
Q 353 4063 643 4406 
Q 934 4750 1428 4750 
z
" transform="scale(0.015625)"/>
      <path id="DejaVuSans-29" d="M 513 4856 
L 1013 4856 
Q 1481 4119 1714 3412 
Q 1947 2706 1947 2009 
Q 1947 1309 1714 600 
Q 1481 -109 1013 -844 
L 513 -844 
Q 928 -128 1133 580 
Q 1338 1288 1338 2009 
Q 1338 2731 1133 3434 
Q 928 4138 513 4856 
z
" transform="scale(0.015625)"/>
     </defs>
     <use xlink:href="#DejaVuSans-36"/>
     <use xlink:href="#DejaVuSans-20" transform="translate(63.623047 0)"/>
     <use xlink:href="#DejaVuSans-28" transform="translate(95.410156 0)"/>
     <use xlink:href="#DejaVuSans-36" transform="translate(134.423828 0)"/>
     <use xlink:href="#DejaVuSans-25" transform="translate(198.046875 0)"/>
     <use xlink:href="#DejaVuSans-29" transform="translate(293.066406 0)"/>
    </g>
   </g>
   <g id="text_15">
    <!-- 7 (8%) -->
    <g transform="translate(187.546864 302.575795) scale(0.12 -0.12)">
     <defs>
      <path id="DejaVuSans-37" d="M 525 4666 
L 3525 4666 
L 3525 4397 
L 1831 0 
L 1172 0 
L 2766 4134 
L 525 4134 
L 525 4666 
z
" transform="scale(0.015625)"/>
      <path id="DejaVuSans-38" d="M 2034 2216 
Q 1584 2216 1326 1975 
Q 1069 1734 1069 1313 
Q 1069 891 1326 650 
Q 1584 409 2034 409 
Q 2484 409 2743 651 
Q 3003 894 3003 1313 
Q 3003 1734 2745 1975 
Q 2488 2216 2034 2216 
z
M 1403 2484 
Q 997 2584 770 2862 
Q 544 3141 544 3541 
Q 544 4100 942 4425 
Q 1341 4750 2034 4750 
Q 2731 4750 3128 4425 
Q 3525 4100 3525 3541 
Q 3525 3141 3298 2862 
Q 3072 2584 2669 2484 
Q 3125 2378 3379 2068 
Q 3634 1759 3634 1313 
Q 3634 634 3220 271 
Q 2806 -91 2034 -91 
Q 1263 -91 848 271 
Q 434 634 434 1313 
Q 434 1759 690 2068 
Q 947 2378 1403 2484 
z
M 1172 3481 
Q 1172 3119 1398 2916 
Q 1625 2713 2034 2713 
Q 2441 2713 2670 2916 
Q 2900 3119 2900 3481 
Q 2900 3844 2670 4047 
Q 2441 4250 2034 4250 
Q 1625 4250 1398 4047 
Q 1172 3844 1172 3481 
z
" transform="scale(0.015625)"/>
     </defs>
     <use xlink:href="#DejaVuSans-37"/>
     <use xlink:href="#DejaVuSans-20" transform="translate(63.623047 0)"/>
     <use xlink:href="#DejaVuSans-28" transform="translate(95.410156 0)"/>
     <use xlink:href="#DejaVuSans-38" transform="translate(134.423828 0)"/>
     <use xlink:href="#DejaVuSans-25" transform="translate(198.046875 0)"/>
     <use xlink:href="#DejaVuSans-29" transform="translate(293.066406 0)"/>
    </g>
   </g>
   <g id="text_16">
    <!-- 8 (9%) -->
    <g transform="translate(192.092591 249.739432) scale(0.12 -0.12)">
     <defs>
      <path id="DejaVuSans-39" d="M 703 97 
L 703 672 
Q 941 559 1184 500 
Q 1428 441 1663 441 
Q 2288 441 2617 861 
Q 2947 1281 2994 2138 
Q 2813 1869 2534 1725 
Q 2256 1581 1919 1581 
Q 1219 1581 811 2004 
Q 403 2428 403 3163 
Q 403 3881 828 4315 
Q 1253 4750 1959 4750 
Q 2769 4750 3195 4129 
Q 3622 3509 3622 2328 
Q 3622 1225 3098 567 
Q 2575 -91 1691 -91 
Q 1453 -91 1209 -44 
Q 966 3 703 97 
z
M 1959 2075 
Q 2384 2075 2632 2365 
Q 2881 2656 2881 3163 
Q 2881 3666 2632 3958 
Q 2384 4250 1959 4250 
Q 1534 4250 1286 3958 
Q 1038 3666 1038 3163 
Q 1038 2656 1286 2365 
Q 1534 2075 1959 2075 
z
" transform="scale(0.015625)"/>
     </defs>
     <use xlink:href="#DejaVuSans-38"/>
     <use xlink:href="#DejaVuSans-20" transform="translate(63.623047 0)"/>
     <use xlink:href="#DejaVuSans-28" transform="translate(95.410156 0)"/>
     <use xlink:href="#DejaVuSans-39" transform="translate(134.423828 0)"/>
     <use xlink:href="#DejaVuSans-25" transform="translate(198.046875 0)"/>
     <use xlink:href="#DejaVuSans-29" transform="translate(293.066406 0)"/>
    </g>
   </g>
   <g id="text_17">
    <!-- 19 (20%) -->
    <g transform="translate(242.095582 196.903068) scale(0.12 -0.12)">
     <use xlink:href="#DejaVuSans-31"/>
     <use xlink:href="#DejaVuSans-39" transform="translate(63.623047 0)"/>
     <use xlink:href="#DejaVuSans-20" transform="translate(127.246094 0)"/>
     <use xlink:href="#DejaVuSans-28" transform="translate(159.033203 0)"/>
     <use xlink:href="#DejaVuSans-32" transform="translate(198.046875 0)"/>
     <use xlink:href="#DejaVuSans-30" transform="translate(261.669922 0)"/>
     <use xlink:href="#DejaVuSans-25" transform="translate(325.292969 0)"/>
     <use xlink:href="#DejaVuSans-29" transform="translate(420.3125 0)"/>
    </g>
   </g>
   <g id="text_18">
    <!-- 37 (40%) -->
    <g transform="translate(323.918659 144.066705) scale(0.12 -0.12)">
     <use xlink:href="#DejaVuSans-33"/>
     <use xlink:href="#DejaVuSans-37" transform="translate(63.623047 0)"/>
     <use xlink:href="#DejaVuSans-20" transform="translate(127.246094 0)"/>
     <use xlink:href="#DejaVuSans-28" transform="translate(159.033203 0)"/>
     <use xlink:href="#DejaVuSans-34" transform="translate(198.046875 0)"/>
     <use xlink:href="#DejaVuSans-30" transform="translate(261.669922 0)"/>
     <use xlink:href="#DejaVuSans-25" transform="translate(325.292969 0)"/>
     <use xlink:href="#DejaVuSans-29" transform="translate(420.3125 0)"/>
    </g>
   </g>
   <g id="text_19">
    <!-- 45 (48%) -->
    <g transform="translate(360.284471 91.230341) scale(0.12 -0.12)">
     <use xlink:href="#DejaVuSans-34"/>
     <use xlink:href="#DejaVuSans-35" transform="translate(63.623047 0)"/>
     <use xlink:href="#DejaVuSans-20" transform="translate(127.246094 0)"/>
     <use xlink:href="#DejaVuSans-28" transform="translate(159.033203 0)"/>
     <use xlink:href="#DejaVuSans-34" transform="translate(198.046875 0)"/>
     <use xlink:href="#DejaVuSans-38" transform="translate(261.669922 0)"/>
     <use xlink:href="#DejaVuSans-25" transform="translate(325.292969 0)"/>
     <use xlink:href="#DejaVuSans-29" transform="translate(420.3125 0)"/>
    </g>
   </g>
   <g id="text_20">
    <!-- How were applications evaluated in studies -->
    <g transform="translate(110.688125 19.3575) scale(0.16 -0.16)">
     <defs>
      <path id="DejaVuSans-77" d="M 269 3500 
L 844 3500 
L 1563 769 
L 2278 3500 
L 2956 3500 
L 3675 769 
L 4391 3500 
L 4966 3500 
L 4050 0 
L 3372 0 
L 2619 2869 
L 1863 0 
L 1184 0 
L 269 3500 
z
" transform="scale(0.015625)"/>
      <path id="DejaVuSans-76" d="M 191 3500 
L 800 3500 
L 1894 563 
L 2988 3500 
L 3597 3500 
L 2284 0 
L 1503 0 
L 191 3500 
z
" transform="scale(0.015625)"/>
     </defs>
     <use xlink:href="#DejaVuSans-48"/>
     <use xlink:href="#DejaVuSans-6f" transform="translate(75.195312 0)"/>
     <use xlink:href="#DejaVuSans-77" transform="translate(136.376953 0)"/>
     <use xlink:href="#DejaVuSans-20" transform="translate(218.164062 0)"/>
     <use xlink:href="#DejaVuSans-77" transform="translate(249.951172 0)"/>
     <use xlink:href="#DejaVuSans-65" transform="translate(331.738281 0)"/>
     <use xlink:href="#DejaVuSans-72" transform="translate(393.261719 0)"/>
     <use xlink:href="#DejaVuSans-65" transform="translate(432.125 0)"/>
     <use xlink:href="#DejaVuSans-20" transform="translate(493.648438 0)"/>
     <use xlink:href="#DejaVuSans-61" transform="translate(525.435547 0)"/>
     <use xlink:href="#DejaVuSans-70" transform="translate(586.714844 0)"/>
     <use xlink:href="#DejaVuSans-70" transform="translate(650.191406 0)"/>
     <use xlink:href="#DejaVuSans-6c" transform="translate(713.667969 0)"/>
     <use xlink:href="#DejaVuSans-69" transform="translate(741.451172 0)"/>
     <use xlink:href="#DejaVuSans-63" transform="translate(769.234375 0)"/>
     <use xlink:href="#DejaVuSans-61" transform="translate(824.214844 0)"/>
     <use xlink:href="#DejaVuSans-74" transform="translate(885.494141 0)"/>
     <use xlink:href="#DejaVuSans-69" transform="translate(924.703125 0)"/>
     <use xlink:href="#DejaVuSans-6f" transform="translate(952.486328 0)"/>
     <use xlink:href="#DejaVuSans-6e" transform="translate(1013.667969 0)"/>
     <use xlink:href="#DejaVuSans-73" transform="translate(1077.046875 0)"/>
     <use xlink:href="#DejaVuSans-20" transform="translate(1129.146484 0)"/>
     <use xlink:href="#DejaVuSans-65" transform="translate(1160.933594 0)"/>
     <use xlink:href="#DejaVuSans-76" transform="translate(1222.457031 0)"/>
     <use xlink:href="#DejaVuSans-61" transform="translate(1281.636719 0)"/>
     <use xlink:href="#DejaVuSans-6c" transform="translate(1342.916016 0)"/>
     <use xlink:href="#DejaVuSans-75" transform="translate(1370.699219 0)"/>
     <use xlink:href="#DejaVuSans-61" transform="translate(1434.078125 0)"/>
     <use xlink:href="#DejaVuSans-74" transform="translate(1495.357422 0)"/>
     <use xlink:href="#DejaVuSans-65" transform="translate(1534.566406 0)"/>
     <use xlink:href="#DejaVuSans-64" transform="translate(1596.089844 0)"/>
     <use xlink:href="#DejaVuSans-20" transform="translate(1659.566406 0)"/>
     <use xlink:href="#DejaVuSans-69" transform="translate(1691.353516 0)"/>
     <use xlink:href="#DejaVuSans-6e" transform="translate(1719.136719 0)"/>
     <use xlink:href="#DejaVuSans-20" transform="translate(1782.515625 0)"/>
     <use xlink:href="#DejaVuSans-73" transform="translate(1814.302734 0)"/>
     <use xlink:href="#DejaVuSans-74" transform="translate(1866.402344 0)"/>
     <use xlink:href="#DejaVuSans-75" transform="translate(1905.611328 0)"/>
     <use xlink:href="#DejaVuSans-64" transform="translate(1968.990234 0)"/>
     <use xlink:href="#DejaVuSans-69" transform="translate(2032.466797 0)"/>
     <use xlink:href="#DejaVuSans-65" transform="translate(2060.25 0)"/>
     <use xlink:href="#DejaVuSans-73" transform="translate(2121.773438 0)"/>
    </g>
    <!-- without human participants (n = 93)? -->
    <g transform="translate(133.860625 37.274) scale(0.16 -0.16)">
     <defs>
      <path id="DejaVuSans-3d" d="M 678 2906 
L 4684 2906 
L 4684 2381 
L 678 2381 
L 678 2906 
z
M 678 1631 
L 4684 1631 
L 4684 1100 
L 678 1100 
L 678 1631 
z
" transform="scale(0.015625)"/>
      <path id="DejaVuSans-3f" d="M 1222 794 
L 1856 794 
L 1856 0 
L 1222 0 
L 1222 794 
z
M 1838 1253 
L 1241 1253 
L 1241 1734 
Q 1241 2050 1328 2253 
Q 1416 2456 1697 2725 
L 1978 3003 
Q 2156 3169 2236 3316 
Q 2316 3463 2316 3616 
Q 2316 3894 2111 4066 
Q 1906 4238 1569 4238 
Q 1322 4238 1042 4128 
Q 763 4019 459 3809 
L 459 4397 
Q 753 4575 1054 4662 
Q 1356 4750 1678 4750 
Q 2253 4750 2601 4447 
Q 2950 4144 2950 3647 
Q 2950 3409 2837 3195 
Q 2725 2981 2444 2713 
L 2169 2444 
Q 2022 2297 1961 2214 
Q 1900 2131 1875 2053 
Q 1856 1988 1847 1894 
Q 1838 1800 1838 1638 
L 1838 1253 
z
" transform="scale(0.015625)"/>
     </defs>
     <use xlink:href="#DejaVuSans-77"/>
     <use xlink:href="#DejaVuSans-69" transform="translate(81.787109 0)"/>
     <use xlink:href="#DejaVuSans-74" transform="translate(109.570312 0)"/>
     <use xlink:href="#DejaVuSans-68" transform="translate(148.779297 0)"/>
     <use xlink:href="#DejaVuSans-6f" transform="translate(212.158203 0)"/>
     <use xlink:href="#DejaVuSans-75" transform="translate(273.339844 0)"/>
     <use xlink:href="#DejaVuSans-74" transform="translate(336.71875 0)"/>
     <use xlink:href="#DejaVuSans-20" transform="translate(375.927734 0)"/>
     <use xlink:href="#DejaVuSans-68" transform="translate(407.714844 0)"/>
     <use xlink:href="#DejaVuSans-75" transform="translate(471.09375 0)"/>
     <use xlink:href="#DejaVuSans-6d" transform="translate(534.472656 0)"/>
     <use xlink:href="#DejaVuSans-61" transform="translate(631.884766 0)"/>
     <use xlink:href="#DejaVuSans-6e" transform="translate(693.164062 0)"/>
     <use xlink:href="#DejaVuSans-20" transform="translate(756.542969 0)"/>
     <use xlink:href="#DejaVuSans-70" transform="translate(788.330078 0)"/>
     <use xlink:href="#DejaVuSans-61" transform="translate(851.806641 0)"/>
     <use xlink:href="#DejaVuSans-72" transform="translate(913.085938 0)"/>
     <use xlink:href="#DejaVuSans-74" transform="translate(954.199219 0)"/>
     <use xlink:href="#DejaVuSans-69" transform="translate(993.408203 0)"/>
     <use xlink:href="#DejaVuSans-63" transform="translate(1021.191406 0)"/>
     <use xlink:href="#DejaVuSans-69" transform="translate(1076.171875 0)"/>
     <use xlink:href="#DejaVuSans-70" transform="translate(1103.955078 0)"/>
     <use xlink:href="#DejaVuSans-61" transform="translate(1167.431641 0)"/>
     <use xlink:href="#DejaVuSans-6e" transform="translate(1228.710938 0)"/>
     <use xlink:href="#DejaVuSans-74" transform="translate(1292.089844 0)"/>
     <use xlink:href="#DejaVuSans-73" transform="translate(1331.298828 0)"/>
     <use xlink:href="#DejaVuSans-20" transform="translate(1383.398438 0)"/>
     <use xlink:href="#DejaVuSans-28" transform="translate(1415.185547 0)"/>
     <use xlink:href="#DejaVuSans-6e" transform="translate(1454.199219 0)"/>
     <use xlink:href="#DejaVuSans-20" transform="translate(1517.578125 0)"/>
     <use xlink:href="#DejaVuSans-3d" transform="translate(1549.365234 0)"/>
     <use xlink:href="#DejaVuSans-20" transform="translate(1633.154297 0)"/>
     <use xlink:href="#DejaVuSans-39" transform="translate(1664.941406 0)"/>
     <use xlink:href="#DejaVuSans-33" transform="translate(1728.564453 0)"/>
     <use xlink:href="#DejaVuSans-29" transform="translate(1792.1875 0)"/>
     <use xlink:href="#DejaVuSans-3f" transform="translate(1831.201172 0)"/>
    </g>
   </g>
  </g>
 </g>
 <defs>
  <clipPath id="p6ab5813b84">
   <rect x="151.635625" y="57.274" width="265.925" height="325.472"/>
  </clipPath>
 </defs>
</svg>
