<?xml version="1.0" encoding="utf-8" standalone="no"?>
<!DOCTYPE svg PUBLIC "-//W3C//DTD SVG 1.1//EN"
  "http://www.w3.org/Graphics/SVG/1.1/DTD/svg11.dtd">
<svg xmlns:xlink="http://www.w3.org/1999/xlink" width="414.83125pt" height="631.729688pt" viewBox="0 0 414.83125 631.729688" xmlns="http://www.w3.org/2000/svg" version="1.1">
 <metadata>
  <rdf:RDF xmlns:dc="http://purl.org/dc/elements/1.1/" xmlns:cc="http://creativecommons.org/ns#" xmlns:rdf="http://www.w3.org/1999/02/22-rdf-syntax-ns#">
   <cc:Work>
    <dc:type rdf:resource="http://purl.org/dc/dcmitype/StillImage"/>
    <dc:date>2025-12-09T01:04:06.481738</dc:date>
    <dc:format>image/svg+xml</dc:format>
    <dc:creator>
     <cc:Agent>
      <dc:title>Matplotlib v3.10.6, https://matplotlib.org/</dc:title>
     </cc:Agent>
    </dc:creator>
   </cc:Work>
  </rdf:RDF>
 </metadata>
 <defs>
  <style type="text/css">*{stroke-linejoin: round; stroke-linecap: butt}</style>
 </defs>
 <g id="figure_1">
  <g id="patch_1">
   <path d="M 0 631.729688 
L 414.83125 631.729688 
L 414.83125 0 
L 0 0 
z
" style="fill: #ffffff"/>
  </g>
  <g id="axes_1">
   <g id="patch_2">
    <path d="M 165.907813 293.714736 
L 389.107813 293.714736 
L 389.107813 37.837812 
L 165.907813 37.837812 
z
" style="fill: #ffffff"/>
   </g>
   <g id="patch_3">
    <path d="M 165.907813 282.083966 
L 195.34078 282.083966 
L 195.34078 260.937113 
L 165.907813 260.937113 
z
" clip-path="url(#p446ab4b565)" style="fill: #c3c3c3; opacity: 0.8"/>
   </g>
   <g id="patch_4">
    <path d="M 165.907813 246.839211 
L 293.45067 246.839211 
L 293.45067 225.692358 
L 165.907813 225.692358 
z
" clip-path="url(#p446ab4b565)" style="fill: #737373; opacity: 0.8"/>
   </g>
   <g id="patch_5">
    <path d="M 165.907813 211.594456 
L 195.34078 211.594456 
L 195.34078 190.447603 
L 165.907813 190.447603 
z
" clip-path="url(#p446ab4b565)" style="fill: #003a7d; opacity: 0.8"/>
   </g>
   <g id="patch_6">
    <path d="M 165.907813 176.349701 
L 205.151769 176.349701 
L 205.151769 155.202847 
L 165.907813 155.202847 
z
" clip-path="url(#p446ab4b565)" style="fill: #003a7d; opacity: 0.8"/>
   </g>
   <g id="patch_7">
    <path d="M 165.907813 141.104945 
L 205.151769 141.104945 
L 205.151769 119.958092 
L 165.907813 119.958092 
z
" clip-path="url(#p446ab4b565)" style="fill: #003a7d; opacity: 0.8"/>
   </g>
   <g id="patch_8">
    <path d="M 165.907813 105.86019 
L 249.301219 105.86019 
L 249.301219 84.713337 
L 165.907813 84.713337 
z
" clip-path="url(#p446ab4b565)" style="fill: #003a7d; opacity: 0.8"/>
   </g>
   <g id="patch_9">
    <path d="M 165.907813 70.615435 
L 259.112208 70.615435 
L 259.112208 49.468582 
L 165.907813 49.468582 
z
" clip-path="url(#p446ab4b565)" style="fill: #003a7d; opacity: 0.8"/>
   </g>
   <g id="matplotlib.axis_1">
    <g id="xtick_1">
     <g id="line2d_1">
      <path d="M 165.907813 293.714736 
L 165.907813 37.837812 
" clip-path="url(#p446ab4b565)" style="fill: none; stroke: #b0b0b0; stroke-opacity: 0.7; stroke-width: 0.3; stroke-linecap: square"/>
     </g>
     <g id="line2d_2">
      <defs>
       <path id="m2e38e80dac" d="M 0 0 
L 0 3.5 
" style="stroke: #000000; stroke-width: 0.8"/>
      </defs>
      <g>
       <use xlink:href="#m2e38e80dac" x="165.907813" y="293.714736" style="stroke: #000000; stroke-width: 0.8"/>
      </g>
     </g>
    </g>
    <g id="xtick_2">
     <g id="line2d_3">
      <path d="M 214.962758 293.714736 
L 214.962758 37.837812 
" clip-path="url(#p446ab4b565)" style="fill: none; stroke: #b0b0b0; stroke-opacity: 0.7; stroke-width: 0.3; stroke-linecap: square"/>
     </g>
     <g id="line2d_4">
      <g>
       <use xlink:href="#m2e38e80dac" x="214.962758" y="293.714736" style="stroke: #000000; stroke-width: 0.8"/>
      </g>
     </g>
    </g>
    <g id="xtick_3">
     <g id="line2d_5">
      <path d="M 264.017703 293.714736 
L 264.017703 37.837812 
" clip-path="url(#p446ab4b565)" style="fill: none; stroke: #b0b0b0; stroke-opacity: 0.7; stroke-width: 0.3; stroke-linecap: square"/>
     </g>
     <g id="line2d_6">
      <g>
       <use xlink:href="#m2e38e80dac" x="264.017703" y="293.714736" style="stroke: #000000; stroke-width: 0.8"/>
      </g>
     </g>
    </g>
    <g id="xtick_4">
     <g id="line2d_7">
      <path d="M 313.072648 293.714736 
L 313.072648 37.837812 
" clip-path="url(#p446ab4b565)" style="fill: none; stroke: #b0b0b0; stroke-opacity: 0.7; stroke-width: 0.3; stroke-linecap: square"/>
     </g>
     <g id="line2d_8">
      <g>
       <use xlink:href="#m2e38e80dac" x="313.072648" y="293.714736" style="stroke: #000000; stroke-width: 0.8"/>
      </g>
     </g>
    </g>
    <g id="xtick_5">
     <g id="line2d_9">
      <path d="M 362.127593 293.714736 
L 362.127593 37.837812 
" clip-path="url(#p446ab4b565)" style="fill: none; stroke: #b0b0b0; stroke-opacity: 0.7; stroke-width: 0.3; stroke-linecap: square"/>
     </g>
     <g id="line2d_10">
      <g>
       <use xlink:href="#m2e38e80dac" x="362.127593" y="293.714736" style="stroke: #000000; stroke-width: 0.8"/>
      </g>
     </g>
    </g>
   </g>
   <g id="matplotlib.axis_2">
    <g id="ytick_1">
     <g id="line2d_11">
      <defs>
       <path id="mae17ce026f" d="M 0 0 
L -3.5 0 
" style="stroke: #000000; stroke-width: 0.8"/>
      </defs>
      <g>
       <use xlink:href="#mae17ce026f" x="165.907813" y="271.51054" style="stroke: #000000; stroke-width: 0.8"/>
      </g>
     </g>
     <g id="text_1">
      <!-- Unspecified -->
      <g transform="translate(100.464063 275.309759) scale(0.1 -0.1)">
       <defs>
        <path id="DejaVuSans-55" d="M 556 4666 
L 1191 4666 
L 1191 1831 
Q 1191 1081 1462 751 
Q 1734 422 2344 422 
Q 2950 422 3222 751 
Q 3494 1081 3494 1831 
L 3494 4666 
L 4128 4666 
L 4128 1753 
Q 4128 841 3676 375 
Q 3225 -91 2344 -91 
Q 1459 -91 1007 375 
Q 556 841 556 1753 
L 556 4666 
z
" transform="scale(0.015625)"/>
        <path id="DejaVuSans-6e" d="M 3513 2113 
L 3513 0 
L 2938 0 
L 2938 2094 
Q 2938 2591 2744 2837 
Q 2550 3084 2163 3084 
Q 1697 3084 1428 2787 
Q 1159 2491 1159 1978 
L 1159 0 
L 581 0 
L 581 3500 
L 1159 3500 
L 1159 2956 
Q 1366 3272 1645 3428 
Q 1925 3584 2291 3584 
Q 2894 3584 3203 3211 
Q 3513 2838 3513 2113 
z
" transform="scale(0.015625)"/>
        <path id="DejaVuSans-73" d="M 2834 3397 
L 2834 2853 
Q 2591 2978 2328 3040 
Q 2066 3103 1784 3103 
Q 1356 3103 1142 2972 
Q 928 2841 928 2578 
Q 928 2378 1081 2264 
Q 1234 2150 1697 2047 
L 1894 2003 
Q 2506 1872 2764 1633 
Q 3022 1394 3022 966 
Q 3022 478 2636 193 
Q 2250 -91 1575 -91 
Q 1294 -91 989 -36 
Q 684 19 347 128 
L 347 722 
Q 666 556 975 473 
Q 1284 391 1588 391 
Q 1994 391 2212 530 
Q 2431 669 2431 922 
Q 2431 1156 2273 1281 
Q 2116 1406 1581 1522 
L 1381 1569 
Q 847 1681 609 1914 
Q 372 2147 372 2553 
Q 372 3047 722 3315 
Q 1072 3584 1716 3584 
Q 2034 3584 2315 3537 
Q 2597 3491 2834 3397 
z
" transform="scale(0.015625)"/>
        <path id="DejaVuSans-70" d="M 1159 525 
L 1159 -1331 
L 581 -1331 
L 581 3500 
L 1159 3500 
L 1159 2969 
Q 1341 3281 1617 3432 
Q 1894 3584 2278 3584 
Q 2916 3584 3314 3078 
Q 3713 2572 3713 1747 
Q 3713 922 3314 415 
Q 2916 -91 2278 -91 
Q 1894 -91 1617 61 
Q 1341 213 1159 525 
z
M 3116 1747 
Q 3116 2381 2855 2742 
Q 2594 3103 2138 3103 
Q 1681 3103 1420 2742 
Q 1159 2381 1159 1747 
Q 1159 1113 1420 752 
Q 1681 391 2138 391 
Q 2594 391 2855 752 
Q 3116 1113 3116 1747 
z
" transform="scale(0.015625)"/>
        <path id="DejaVuSans-65" d="M 3597 1894 
L 3597 1613 
L 953 1613 
Q 991 1019 1311 708 
Q 1631 397 2203 397 
Q 2534 397 2845 478 
Q 3156 559 3463 722 
L 3463 178 
Q 3153 47 2828 -22 
Q 2503 -91 2169 -91 
Q 1331 -91 842 396 
Q 353 884 353 1716 
Q 353 2575 817 3079 
Q 1281 3584 2069 3584 
Q 2775 3584 3186 3129 
Q 3597 2675 3597 1894 
z
M 3022 2063 
Q 3016 2534 2758 2815 
Q 2500 3097 2075 3097 
Q 1594 3097 1305 2825 
Q 1016 2553 972 2059 
L 3022 2063 
z
" transform="scale(0.015625)"/>
        <path id="DejaVuSans-63" d="M 3122 3366 
L 3122 2828 
Q 2878 2963 2633 3030 
Q 2388 3097 2138 3097 
Q 1578 3097 1268 2742 
Q 959 2388 959 1747 
Q 959 1106 1268 751 
Q 1578 397 2138 397 
Q 2388 397 2633 464 
Q 2878 531 3122 666 
L 3122 134 
Q 2881 22 2623 -34 
Q 2366 -91 2075 -91 
Q 1284 -91 818 406 
Q 353 903 353 1747 
Q 353 2603 823 3093 
Q 1294 3584 2113 3584 
Q 2378 3584 2631 3529 
Q 2884 3475 3122 3366 
z
" transform="scale(0.015625)"/>
        <path id="DejaVuSans-69" d="M 603 3500 
L 1178 3500 
L 1178 0 
L 603 0 
L 603 3500 
z
M 603 4863 
L 1178 4863 
L 1178 4134 
L 603 4134 
L 603 4863 
z
" transform="scale(0.015625)"/>
        <path id="DejaVuSans-66" d="M 2375 4863 
L 2375 4384 
L 1825 4384 
Q 1516 4384 1395 4259 
Q 1275 4134 1275 3809 
L 1275 3500 
L 2222 3500 
L 2222 3053 
L 1275 3053 
L 1275 0 
L 697 0 
L 697 3053 
L 147 3053 
L 147 3500 
L 697 3500 
L 697 3744 
Q 697 4328 969 4595 
Q 1241 4863 1831 4863 
L 2375 4863 
z
" transform="scale(0.015625)"/>
        <path id="DejaVuSans-64" d="M 2906 2969 
L 2906 4863 
L 3481 4863 
L 3481 0 
L 2906 0 
L 2906 525 
Q 2725 213 2448 61 
Q 2172 -91 1784 -91 
Q 1150 -91 751 415 
Q 353 922 353 1747 
Q 353 2572 751 3078 
Q 1150 3584 1784 3584 
Q 2172 3584 2448 3432 
Q 2725 3281 2906 2969 
z
M 947 1747 
Q 947 1113 1208 752 
Q 1469 391 1925 391 
Q 2381 391 2643 752 
Q 2906 1113 2906 1747 
Q 2906 2381 2643 2742 
Q 2381 3103 1925 3103 
Q 1469 3103 1208 2742 
Q 947 2381 947 1747 
z
" transform="scale(0.015625)"/>
       </defs>
       <use xlink:href="#DejaVuSans-55"/>
       <use xlink:href="#DejaVuSans-6e" transform="translate(73.193359 0)"/>
       <use xlink:href="#DejaVuSans-73" transform="translate(136.572266 0)"/>
       <use xlink:href="#DejaVuSans-70" transform="translate(188.671875 0)"/>
       <use xlink:href="#DejaVuSans-65" transform="translate(252.148438 0)"/>
       <use xlink:href="#DejaVuSans-63" transform="translate(313.671875 0)"/>
       <use xlink:href="#DejaVuSans-69" transform="translate(368.652344 0)"/>
       <use xlink:href="#DejaVuSans-66" transform="translate(396.435547 0)"/>
       <use xlink:href="#DejaVuSans-69" transform="translate(431.640625 0)"/>
       <use xlink:href="#DejaVuSans-65" transform="translate(459.423828 0)"/>
       <use xlink:href="#DejaVuSans-64" transform="translate(520.947266 0)"/>
      </g>
     </g>
    </g>
    <g id="ytick_2">
     <g id="line2d_12">
      <g>
       <use xlink:href="#mae17ce026f" x="165.907813" y="236.265785" style="stroke: #000000; stroke-width: 0.8"/>
      </g>
     </g>
     <g id="text_2">
      <!-- Other -->
      <g transform="translate(130.514062 240.065003) scale(0.1 -0.1)">
       <defs>
        <path id="DejaVuSans-4f" d="M 2522 4238 
Q 1834 4238 1429 3725 
Q 1025 3213 1025 2328 
Q 1025 1447 1429 934 
Q 1834 422 2522 422 
Q 3209 422 3611 934 
Q 4013 1447 4013 2328 
Q 4013 3213 3611 3725 
Q 3209 4238 2522 4238 
z
M 2522 4750 
Q 3503 4750 4090 4092 
Q 4678 3434 4678 2328 
Q 4678 1225 4090 567 
Q 3503 -91 2522 -91 
Q 1538 -91 948 565 
Q 359 1222 359 2328 
Q 359 3434 948 4092 
Q 1538 4750 2522 4750 
z
" transform="scale(0.015625)"/>
        <path id="DejaVuSans-74" d="M 1172 4494 
L 1172 3500 
L 2356 3500 
L 2356 3053 
L 1172 3053 
L 1172 1153 
Q 1172 725 1289 603 
Q 1406 481 1766 481 
L 2356 481 
L 2356 0 
L 1766 0 
Q 1100 0 847 248 
Q 594 497 594 1153 
L 594 3053 
L 172 3053 
L 172 3500 
L 594 3500 
L 594 4494 
L 1172 4494 
z
" transform="scale(0.015625)"/>
        <path id="DejaVuSans-68" d="M 3513 2113 
L 3513 0 
L 2938 0 
L 2938 2094 
Q 2938 2591 2744 2837 
Q 2550 3084 2163 3084 
Q 1697 3084 1428 2787 
Q 1159 2491 1159 1978 
L 1159 0 
L 581 0 
L 581 4863 
L 1159 4863 
L 1159 2956 
Q 1366 3272 1645 3428 
Q 1925 3584 2291 3584 
Q 2894 3584 3203 3211 
Q 3513 2838 3513 2113 
z
" transform="scale(0.015625)"/>
        <path id="DejaVuSans-72" d="M 2631 2963 
Q 2534 3019 2420 3045 
Q 2306 3072 2169 3072 
Q 1681 3072 1420 2755 
Q 1159 2438 1159 1844 
L 1159 0 
L 581 0 
L 581 3500 
L 1159 3500 
L 1159 2956 
Q 1341 3275 1631 3429 
Q 1922 3584 2338 3584 
Q 2397 3584 2469 3576 
Q 2541 3569 2628 3553 
L 2631 2963 
z
" transform="scale(0.015625)"/>
       </defs>
       <use xlink:href="#DejaVuSans-4f"/>
       <use xlink:href="#DejaVuSans-74" transform="translate(78.710938 0)"/>
       <use xlink:href="#DejaVuSans-68" transform="translate(117.919922 0)"/>
       <use xlink:href="#DejaVuSans-65" transform="translate(181.298828 0)"/>
       <use xlink:href="#DejaVuSans-72" transform="translate(242.822266 0)"/>
      </g>
     </g>
    </g>
    <g id="ytick_3">
     <g id="line2d_13">
      <g>
       <use xlink:href="#mae17ce026f" x="165.907813" y="201.021029" style="stroke: #000000; stroke-width: 0.8"/>
      </g>
     </g>
     <g id="text_3">
      <!-- Internet forum threads -->
      <g transform="translate(45.032813 204.820248) scale(0.1 -0.1)">
       <defs>
        <path id="DejaVuSans-49" d="M 628 4666 
L 1259 4666 
L 1259 0 
L 628 0 
L 628 4666 
z
" transform="scale(0.015625)"/>
        <path id="DejaVuSans-20" transform="scale(0.015625)"/>
        <path id="DejaVuSans-6f" d="M 1959 3097 
Q 1497 3097 1228 2736 
Q 959 2375 959 1747 
Q 959 1119 1226 758 
Q 1494 397 1959 397 
Q 2419 397 2687 759 
Q 2956 1122 2956 1747 
Q 2956 2369 2687 2733 
Q 2419 3097 1959 3097 
z
M 1959 3584 
Q 2709 3584 3137 3096 
Q 3566 2609 3566 1747 
Q 3566 888 3137 398 
Q 2709 -91 1959 -91 
Q 1206 -91 779 398 
Q 353 888 353 1747 
Q 353 2609 779 3096 
Q 1206 3584 1959 3584 
z
" transform="scale(0.015625)"/>
        <path id="DejaVuSans-75" d="M 544 1381 
L 544 3500 
L 1119 3500 
L 1119 1403 
Q 1119 906 1312 657 
Q 1506 409 1894 409 
Q 2359 409 2629 706 
Q 2900 1003 2900 1516 
L 2900 3500 
L 3475 3500 
L 3475 0 
L 2900 0 
L 2900 538 
Q 2691 219 2414 64 
Q 2138 -91 1772 -91 
Q 1169 -91 856 284 
Q 544 659 544 1381 
z
M 1991 3584 
L 1991 3584 
z
" transform="scale(0.015625)"/>
        <path id="DejaVuSans-6d" d="M 3328 2828 
Q 3544 3216 3844 3400 
Q 4144 3584 4550 3584 
Q 5097 3584 5394 3201 
Q 5691 2819 5691 2113 
L 5691 0 
L 5113 0 
L 5113 2094 
Q 5113 2597 4934 2840 
Q 4756 3084 4391 3084 
Q 3944 3084 3684 2787 
Q 3425 2491 3425 1978 
L 3425 0 
L 2847 0 
L 2847 2094 
Q 2847 2600 2669 2842 
Q 2491 3084 2119 3084 
Q 1678 3084 1418 2786 
Q 1159 2488 1159 1978 
L 1159 0 
L 581 0 
L 581 3500 
L 1159 3500 
L 1159 2956 
Q 1356 3278 1631 3431 
Q 1906 3584 2284 3584 
Q 2666 3584 2933 3390 
Q 3200 3197 3328 2828 
z
" transform="scale(0.015625)"/>
        <path id="DejaVuSans-61" d="M 2194 1759 
Q 1497 1759 1228 1600 
Q 959 1441 959 1056 
Q 959 750 1161 570 
Q 1363 391 1709 391 
Q 2188 391 2477 730 
Q 2766 1069 2766 1631 
L 2766 1759 
L 2194 1759 
z
M 3341 1997 
L 3341 0 
L 2766 0 
L 2766 531 
Q 2569 213 2275 61 
Q 1981 -91 1556 -91 
Q 1019 -91 701 211 
Q 384 513 384 1019 
Q 384 1609 779 1909 
Q 1175 2209 1959 2209 
L 2766 2209 
L 2766 2266 
Q 2766 2663 2505 2880 
Q 2244 3097 1772 3097 
Q 1472 3097 1187 3025 
Q 903 2953 641 2809 
L 641 3341 
Q 956 3463 1253 3523 
Q 1550 3584 1831 3584 
Q 2591 3584 2966 3190 
Q 3341 2797 3341 1997 
z
" transform="scale(0.015625)"/>
       </defs>
       <use xlink:href="#DejaVuSans-49"/>
       <use xlink:href="#DejaVuSans-6e" transform="translate(29.492188 0)"/>
       <use xlink:href="#DejaVuSans-74" transform="translate(92.871094 0)"/>
       <use xlink:href="#DejaVuSans-65" transform="translate(132.080078 0)"/>
       <use xlink:href="#DejaVuSans-72" transform="translate(193.603516 0)"/>
       <use xlink:href="#DejaVuSans-6e" transform="translate(232.966797 0)"/>
       <use xlink:href="#DejaVuSans-65" transform="translate(296.345703 0)"/>
       <use xlink:href="#DejaVuSans-74" transform="translate(357.869141 0)"/>
       <use xlink:href="#DejaVuSans-20" transform="translate(397.078125 0)"/>
       <use xlink:href="#DejaVuSans-66" transform="translate(428.865234 0)"/>
       <use xlink:href="#DejaVuSans-6f" transform="translate(464.070312 0)"/>
       <use xlink:href="#DejaVuSans-72" transform="translate(525.251953 0)"/>
       <use xlink:href="#DejaVuSans-75" transform="translate(566.365234 0)"/>
       <use xlink:href="#DejaVuSans-6d" transform="translate(629.744141 0)"/>
       <use xlink:href="#DejaVuSans-20" transform="translate(727.15625 0)"/>
       <use xlink:href="#DejaVuSans-74" transform="translate(758.943359 0)"/>
       <use xlink:href="#DejaVuSans-68" transform="translate(798.152344 0)"/>
       <use xlink:href="#DejaVuSans-72" transform="translate(861.53125 0)"/>
       <use xlink:href="#DejaVuSans-65" transform="translate(900.394531 0)"/>
       <use xlink:href="#DejaVuSans-61" transform="translate(961.917969 0)"/>
       <use xlink:href="#DejaVuSans-64" transform="translate(1023.197266 0)"/>
       <use xlink:href="#DejaVuSans-73" transform="translate(1086.673828 0)"/>
      </g>
     </g>
    </g>
    <g id="ytick_4">
     <g id="line2d_14">
      <g>
       <use xlink:href="#mae17ce026f" x="165.907813" y="165.776274" style="stroke: #000000; stroke-width: 0.8"/>
      </g>
     </g>
     <g id="text_4">
      <!-- Automatic thought records -->
      <g transform="translate(24.798438 169.575493) scale(0.1 -0.1)">
       <defs>
        <path id="DejaVuSans-41" d="M 2188 4044 
L 1331 1722 
L 3047 1722 
L 2188 4044 
z
M 1831 4666 
L 2547 4666 
L 4325 0 
L 3669 0 
L 3244 1197 
L 1141 1197 
L 716 0 
L 50 0 
L 1831 4666 
z
" transform="scale(0.015625)"/>
        <path id="DejaVuSans-67" d="M 2906 1791 
Q 2906 2416 2648 2759 
Q 2391 3103 1925 3103 
Q 1463 3103 1205 2759 
Q 947 2416 947 1791 
Q 947 1169 1205 825 
Q 1463 481 1925 481 
Q 2391 481 2648 825 
Q 2906 1169 2906 1791 
z
M 3481 434 
Q 3481 -459 3084 -895 
Q 2688 -1331 1869 -1331 
Q 1566 -1331 1297 -1286 
Q 1028 -1241 775 -1147 
L 775 -588 
Q 1028 -725 1275 -790 
Q 1522 -856 1778 -856 
Q 2344 -856 2625 -561 
Q 2906 -266 2906 331 
L 2906 616 
Q 2728 306 2450 153 
Q 2172 0 1784 0 
Q 1141 0 747 490 
Q 353 981 353 1791 
Q 353 2603 747 3093 
Q 1141 3584 1784 3584 
Q 2172 3584 2450 3431 
Q 2728 3278 2906 2969 
L 2906 3500 
L 3481 3500 
L 3481 434 
z
" transform="scale(0.015625)"/>
       </defs>
       <use xlink:href="#DejaVuSans-41"/>
       <use xlink:href="#DejaVuSans-75" transform="translate(68.408203 0)"/>
       <use xlink:href="#DejaVuSans-74" transform="translate(131.787109 0)"/>
       <use xlink:href="#DejaVuSans-6f" transform="translate(170.996094 0)"/>
       <use xlink:href="#DejaVuSans-6d" transform="translate(232.177734 0)"/>
       <use xlink:href="#DejaVuSans-61" transform="translate(329.589844 0)"/>
       <use xlink:href="#DejaVuSans-74" transform="translate(390.869141 0)"/>
       <use xlink:href="#DejaVuSans-69" transform="translate(430.078125 0)"/>
       <use xlink:href="#DejaVuSans-63" transform="translate(457.861328 0)"/>
       <use xlink:href="#DejaVuSans-20" transform="translate(512.841797 0)"/>
       <use xlink:href="#DejaVuSans-74" transform="translate(544.628906 0)"/>
       <use xlink:href="#DejaVuSans-68" transform="translate(583.837891 0)"/>
       <use xlink:href="#DejaVuSans-6f" transform="translate(647.216797 0)"/>
       <use xlink:href="#DejaVuSans-75" transform="translate(708.398438 0)"/>
       <use xlink:href="#DejaVuSans-67" transform="translate(771.777344 0)"/>
       <use xlink:href="#DejaVuSans-68" transform="translate(835.253906 0)"/>
       <use xlink:href="#DejaVuSans-74" transform="translate(898.632812 0)"/>
       <use xlink:href="#DejaVuSans-20" transform="translate(937.841797 0)"/>
       <use xlink:href="#DejaVuSans-72" transform="translate(969.628906 0)"/>
       <use xlink:href="#DejaVuSans-65" transform="translate(1008.492188 0)"/>
       <use xlink:href="#DejaVuSans-63" transform="translate(1070.015625 0)"/>
       <use xlink:href="#DejaVuSans-6f" transform="translate(1124.996094 0)"/>
       <use xlink:href="#DejaVuSans-72" transform="translate(1186.177734 0)"/>
       <use xlink:href="#DejaVuSans-64" transform="translate(1225.541016 0)"/>
       <use xlink:href="#DejaVuSans-73" transform="translate(1289.017578 0)"/>
      </g>
     </g>
    </g>
    <g id="ytick_5">
     <g id="line2d_15">
      <g>
       <use xlink:href="#mae17ce026f" x="165.907813" y="130.531519" style="stroke: #000000; stroke-width: 0.8"/>
      </g>
     </g>
     <g id="text_5">
      <!-- Psychotherapy dialogue -->
      <g transform="translate(38.884375 129.491675) scale(0.1 -0.1)">
       <defs>
        <path id="DejaVuSans-50" d="M 1259 4147 
L 1259 2394 
L 2053 2394 
Q 2494 2394 2734 2622 
Q 2975 2850 2975 3272 
Q 2975 3691 2734 3919 
Q 2494 4147 2053 4147 
L 1259 4147 
z
M 628 4666 
L 2053 4666 
Q 2838 4666 3239 4311 
Q 3641 3956 3641 3272 
Q 3641 2581 3239 2228 
Q 2838 1875 2053 1875 
L 1259 1875 
L 1259 0 
L 628 0 
L 628 4666 
z
" transform="scale(0.015625)"/>
        <path id="DejaVuSans-79" d="M 2059 -325 
Q 1816 -950 1584 -1140 
Q 1353 -1331 966 -1331 
L 506 -1331 
L 506 -850 
L 844 -850 
Q 1081 -850 1212 -737 
Q 1344 -625 1503 -206 
L 1606 56 
L 191 3500 
L 800 3500 
L 1894 763 
L 2988 3500 
L 3597 3500 
L 2059 -325 
z
" transform="scale(0.015625)"/>
        <path id="DejaVuSans-6c" d="M 603 4863 
L 1178 4863 
L 1178 0 
L 603 0 
L 603 4863 
z
" transform="scale(0.015625)"/>
       </defs>
       <use xlink:href="#DejaVuSans-50"/>
       <use xlink:href="#DejaVuSans-73" transform="translate(58.552734 0)"/>
       <use xlink:href="#DejaVuSans-79" transform="translate(110.652344 0)"/>
       <use xlink:href="#DejaVuSans-63" transform="translate(169.832031 0)"/>
       <use xlink:href="#DejaVuSans-68" transform="translate(224.8125 0)"/>
       <use xlink:href="#DejaVuSans-6f" transform="translate(288.191406 0)"/>
       <use xlink:href="#DejaVuSans-74" transform="translate(349.373047 0)"/>
       <use xlink:href="#DejaVuSans-68" transform="translate(388.582031 0)"/>
       <use xlink:href="#DejaVuSans-65" transform="translate(451.960938 0)"/>
       <use xlink:href="#DejaVuSans-72" transform="translate(513.484375 0)"/>
       <use xlink:href="#DejaVuSans-61" transform="translate(554.597656 0)"/>
       <use xlink:href="#DejaVuSans-70" transform="translate(615.876953 0)"/>
       <use xlink:href="#DejaVuSans-79" transform="translate(679.353516 0)"/>
       <use xlink:href="#DejaVuSans-20" transform="translate(738.533203 0)"/>
       <use xlink:href="#DejaVuSans-64" transform="translate(770.320312 0)"/>
       <use xlink:href="#DejaVuSans-69" transform="translate(833.796875 0)"/>
       <use xlink:href="#DejaVuSans-61" transform="translate(861.580078 0)"/>
       <use xlink:href="#DejaVuSans-6c" transform="translate(922.859375 0)"/>
       <use xlink:href="#DejaVuSans-6f" transform="translate(950.642578 0)"/>
       <use xlink:href="#DejaVuSans-67" transform="translate(1011.824219 0)"/>
       <use xlink:href="#DejaVuSans-75" transform="translate(1075.300781 0)"/>
       <use xlink:href="#DejaVuSans-65" transform="translate(1138.679688 0)"/>
      </g>
      <!-- records (multi-turn) -->
      <g transform="translate(61.082813 140.689488) scale(0.1 -0.1)">
       <defs>
        <path id="DejaVuSans-28" d="M 1984 4856 
Q 1566 4138 1362 3434 
Q 1159 2731 1159 2009 
Q 1159 1288 1364 580 
Q 1569 -128 1984 -844 
L 1484 -844 
Q 1016 -109 783 600 
Q 550 1309 550 2009 
Q 550 2706 781 3412 
Q 1013 4119 1484 4856 
L 1984 4856 
z
" transform="scale(0.015625)"/>
        <path id="DejaVuSans-2d" d="M 313 2009 
L 1997 2009 
L 1997 1497 
L 313 1497 
L 313 2009 
z
" transform="scale(0.015625)"/>
        <path id="DejaVuSans-29" d="M 513 4856 
L 1013 4856 
Q 1481 4119 1714 3412 
Q 1947 2706 1947 2009 
Q 1947 1309 1714 600 
Q 1481 -109 1013 -844 
L 513 -844 
Q 928 -128 1133 580 
Q 1338 1288 1338 2009 
Q 1338 2731 1133 3434 
Q 928 4138 513 4856 
z
" transform="scale(0.015625)"/>
       </defs>
       <use xlink:href="#DejaVuSans-72"/>
       <use xlink:href="#DejaVuSans-65" transform="translate(38.863281 0)"/>
       <use xlink:href="#DejaVuSans-63" transform="translate(100.386719 0)"/>
       <use xlink:href="#DejaVuSans-6f" transform="translate(155.367188 0)"/>
       <use xlink:href="#DejaVuSans-72" transform="translate(216.548828 0)"/>
       <use xlink:href="#DejaVuSans-64" transform="translate(255.912109 0)"/>
       <use xlink:href="#DejaVuSans-73" transform="translate(319.388672 0)"/>
       <use xlink:href="#DejaVuSans-20" transform="translate(371.488281 0)"/>
       <use xlink:href="#DejaVuSans-28" transform="translate(403.275391 0)"/>
       <use xlink:href="#DejaVuSans-6d" transform="translate(442.289062 0)"/>
       <use xlink:href="#DejaVuSans-75" transform="translate(539.701172 0)"/>
       <use xlink:href="#DejaVuSans-6c" transform="translate(603.080078 0)"/>
       <use xlink:href="#DejaVuSans-74" transform="translate(630.863281 0)"/>
       <use xlink:href="#DejaVuSans-69" transform="translate(670.072266 0)"/>
       <use xlink:href="#DejaVuSans-2d" transform="translate(697.855469 0)"/>
       <use xlink:href="#DejaVuSans-74" transform="translate(733.939453 0)"/>
       <use xlink:href="#DejaVuSans-75" transform="translate(773.148438 0)"/>
       <use xlink:href="#DejaVuSans-72" transform="translate(836.527344 0)"/>
       <use xlink:href="#DejaVuSans-6e" transform="translate(875.890625 0)"/>
       <use xlink:href="#DejaVuSans-29" transform="translate(939.269531 0)"/>
      </g>
     </g>
    </g>
    <g id="ytick_6">
     <g id="line2d_16">
      <g>
       <use xlink:href="#mae17ce026f" x="165.907813" y="95.286764" style="stroke: #000000; stroke-width: 0.8"/>
      </g>
     </g>
     <g id="text_6">
      <!-- Non-specific supportive -->
      <g transform="translate(41.15625 94.24692) scale(0.1 -0.1)">
       <defs>
        <path id="DejaVuSans-4e" d="M 628 4666 
L 1478 4666 
L 3547 763 
L 3547 4666 
L 4159 4666 
L 4159 0 
L 3309 0 
L 1241 3903 
L 1241 0 
L 628 0 
L 628 4666 
z
" transform="scale(0.015625)"/>
        <path id="DejaVuSans-76" d="M 191 3500 
L 800 3500 
L 1894 563 
L 2988 3500 
L 3597 3500 
L 2284 0 
L 1503 0 
L 191 3500 
z
" transform="scale(0.015625)"/>
       </defs>
       <use xlink:href="#DejaVuSans-4e"/>
       <use xlink:href="#DejaVuSans-6f" transform="translate(74.804688 0)"/>
       <use xlink:href="#DejaVuSans-6e" transform="translate(135.986328 0)"/>
       <use xlink:href="#DejaVuSans-2d" transform="translate(199.365234 0)"/>
       <use xlink:href="#DejaVuSans-73" transform="translate(235.449219 0)"/>
       <use xlink:href="#DejaVuSans-70" transform="translate(287.548828 0)"/>
       <use xlink:href="#DejaVuSans-65" transform="translate(351.025391 0)"/>
       <use xlink:href="#DejaVuSans-63" transform="translate(412.548828 0)"/>
       <use xlink:href="#DejaVuSans-69" transform="translate(467.529297 0)"/>
       <use xlink:href="#DejaVuSans-66" transform="translate(495.3125 0)"/>
       <use xlink:href="#DejaVuSans-69" transform="translate(530.517578 0)"/>
       <use xlink:href="#DejaVuSans-63" transform="translate(558.300781 0)"/>
       <use xlink:href="#DejaVuSans-20" transform="translate(613.28125 0)"/>
       <use xlink:href="#DejaVuSans-73" transform="translate(645.068359 0)"/>
       <use xlink:href="#DejaVuSans-75" transform="translate(697.167969 0)"/>
       <use xlink:href="#DejaVuSans-70" transform="translate(760.546875 0)"/>
       <use xlink:href="#DejaVuSans-70" transform="translate(824.023438 0)"/>
       <use xlink:href="#DejaVuSans-6f" transform="translate(887.5 0)"/>
       <use xlink:href="#DejaVuSans-72" transform="translate(948.681641 0)"/>
       <use xlink:href="#DejaVuSans-74" transform="translate(989.794922 0)"/>
       <use xlink:href="#DejaVuSans-69" transform="translate(1029.003906 0)"/>
       <use xlink:href="#DejaVuSans-76" transform="translate(1056.787109 0)"/>
       <use xlink:href="#DejaVuSans-65" transform="translate(1115.966797 0)"/>
      </g>
      <!-- dialogue records (multi-turn) -->
      <g transform="translate(14.914062 105.444732) scale(0.1 -0.1)">
       <use xlink:href="#DejaVuSans-64"/>
       <use xlink:href="#DejaVuSans-69" transform="translate(63.476562 0)"/>
       <use xlink:href="#DejaVuSans-61" transform="translate(91.259766 0)"/>
       <use xlink:href="#DejaVuSans-6c" transform="translate(152.539062 0)"/>
       <use xlink:href="#DejaVuSans-6f" transform="translate(180.322266 0)"/>
       <use xlink:href="#DejaVuSans-67" transform="translate(241.503906 0)"/>
       <use xlink:href="#DejaVuSans-75" transform="translate(304.980469 0)"/>
       <use xlink:href="#DejaVuSans-65" transform="translate(368.359375 0)"/>
       <use xlink:href="#DejaVuSans-20" transform="translate(429.882812 0)"/>
       <use xlink:href="#DejaVuSans-72" transform="translate(461.669922 0)"/>
       <use xlink:href="#DejaVuSans-65" transform="translate(500.533203 0)"/>
       <use xlink:href="#DejaVuSans-63" transform="translate(562.056641 0)"/>
       <use xlink:href="#DejaVuSans-6f" transform="translate(617.037109 0)"/>
       <use xlink:href="#DejaVuSans-72" transform="translate(678.21875 0)"/>
       <use xlink:href="#DejaVuSans-64" transform="translate(717.582031 0)"/>
       <use xlink:href="#DejaVuSans-73" transform="translate(781.058594 0)"/>
       <use xlink:href="#DejaVuSans-20" transform="translate(833.158203 0)"/>
       <use xlink:href="#DejaVuSans-28" transform="translate(864.945312 0)"/>
       <use xlink:href="#DejaVuSans-6d" transform="translate(903.958984 0)"/>
       <use xlink:href="#DejaVuSans-75" transform="translate(1001.371094 0)"/>
       <use xlink:href="#DejaVuSans-6c" transform="translate(1064.75 0)"/>
       <use xlink:href="#DejaVuSans-74" transform="translate(1092.533203 0)"/>
       <use xlink:href="#DejaVuSans-69" transform="translate(1131.742188 0)"/>
       <use xlink:href="#DejaVuSans-2d" transform="translate(1159.525391 0)"/>
       <use xlink:href="#DejaVuSans-74" transform="translate(1195.609375 0)"/>
       <use xlink:href="#DejaVuSans-75" transform="translate(1234.818359 0)"/>
       <use xlink:href="#DejaVuSans-72" transform="translate(1298.197266 0)"/>
       <use xlink:href="#DejaVuSans-6e" transform="translate(1337.560547 0)"/>
       <use xlink:href="#DejaVuSans-29" transform="translate(1400.939453 0)"/>
      </g>
     </g>
    </g>
    <g id="ytick_7">
     <g id="line2d_17">
      <g>
       <use xlink:href="#mae17ce026f" x="165.907813" y="60.042008" style="stroke: #000000; stroke-width: 0.8"/>
      </g>
     </g>
     <g id="text_7">
      <!-- Mental health Q&amp;A -->
      <g transform="translate(64.440625 59.002165) scale(0.1 -0.1)">
       <defs>
        <path id="DejaVuSans-4d" d="M 628 4666 
L 1569 4666 
L 2759 1491 
L 3956 4666 
L 4897 4666 
L 4897 0 
L 4281 0 
L 4281 4097 
L 3078 897 
L 2444 897 
L 1241 4097 
L 1241 0 
L 628 0 
L 628 4666 
z
" transform="scale(0.015625)"/>
        <path id="DejaVuSans-51" d="M 2522 4238 
Q 1834 4238 1429 3725 
Q 1025 3213 1025 2328 
Q 1025 1447 1429 934 
Q 1834 422 2522 422 
Q 3209 422 3611 934 
Q 4013 1447 4013 2328 
Q 4013 3213 3611 3725 
Q 3209 4238 2522 4238 
z
M 3406 84 
L 4238 -825 
L 3475 -825 
L 2784 -78 
Q 2681 -84 2626 -87 
Q 2572 -91 2522 -91 
Q 1538 -91 948 567 
Q 359 1225 359 2328 
Q 359 3434 948 4092 
Q 1538 4750 2522 4750 
Q 3503 4750 4090 4092 
Q 4678 3434 4678 2328 
Q 4678 1516 4351 937 
Q 4025 359 3406 84 
z
" transform="scale(0.015625)"/>
        <path id="DejaVuSans-26" d="M 1556 2509 
Q 1272 2256 1139 2004 
Q 1006 1753 1006 1478 
Q 1006 1022 1337 719 
Q 1669 416 2169 416 
Q 2466 416 2725 514 
Q 2984 613 3213 813 
L 1556 2509 
z
M 1997 2859 
L 3584 1234 
Q 3769 1513 3872 1830 
Q 3975 2147 3994 2503 
L 4575 2503 
Q 4538 2091 4375 1687 
Q 4213 1284 3922 891 
L 4794 0 
L 4006 0 
L 3559 459 
Q 3234 181 2878 45 
Q 2522 -91 2113 -91 
Q 1359 -91 881 339 
Q 403 769 403 1441 
Q 403 1841 612 2192 
Q 822 2544 1241 2853 
Q 1091 3050 1012 3245 
Q 934 3441 934 3628 
Q 934 4134 1281 4442 
Q 1628 4750 2203 4750 
Q 2463 4750 2720 4694 
Q 2978 4638 3244 4525 
L 3244 3956 
Q 2972 4103 2725 4179 
Q 2478 4256 2266 4256 
Q 1938 4256 1733 4082 
Q 1528 3909 1528 3634 
Q 1528 3475 1620 3314 
Q 1713 3153 1997 2859 
z
" transform="scale(0.015625)"/>
       </defs>
       <use xlink:href="#DejaVuSans-4d"/>
       <use xlink:href="#DejaVuSans-65" transform="translate(86.279297 0)"/>
       <use xlink:href="#DejaVuSans-6e" transform="translate(147.802734 0)"/>
       <use xlink:href="#DejaVuSans-74" transform="translate(211.181641 0)"/>
       <use xlink:href="#DejaVuSans-61" transform="translate(250.390625 0)"/>
       <use xlink:href="#DejaVuSans-6c" transform="translate(311.669922 0)"/>
       <use xlink:href="#DejaVuSans-20" transform="translate(339.453125 0)"/>
       <use xlink:href="#DejaVuSans-68" transform="translate(371.240234 0)"/>
       <use xlink:href="#DejaVuSans-65" transform="translate(434.619141 0)"/>
       <use xlink:href="#DejaVuSans-61" transform="translate(496.142578 0)"/>
       <use xlink:href="#DejaVuSans-6c" transform="translate(557.421875 0)"/>
       <use xlink:href="#DejaVuSans-74" transform="translate(585.205078 0)"/>
       <use xlink:href="#DejaVuSans-68" transform="translate(624.414062 0)"/>
       <use xlink:href="#DejaVuSans-20" transform="translate(687.792969 0)"/>
       <use xlink:href="#DejaVuSans-51" transform="translate(719.580078 0)"/>
       <use xlink:href="#DejaVuSans-26" transform="translate(798.291016 0)"/>
       <use xlink:href="#DejaVuSans-41" transform="translate(876.269531 0)"/>
      </g>
      <!-- records (single-turn) -->
      <g transform="translate(57.032813 70.199977) scale(0.1 -0.1)">
       <use xlink:href="#DejaVuSans-72"/>
       <use xlink:href="#DejaVuSans-65" transform="translate(38.863281 0)"/>
       <use xlink:href="#DejaVuSans-63" transform="translate(100.386719 0)"/>
       <use xlink:href="#DejaVuSans-6f" transform="translate(155.367188 0)"/>
       <use xlink:href="#DejaVuSans-72" transform="translate(216.548828 0)"/>
       <use xlink:href="#DejaVuSans-64" transform="translate(255.912109 0)"/>
       <use xlink:href="#DejaVuSans-73" transform="translate(319.388672 0)"/>
       <use xlink:href="#DejaVuSans-20" transform="translate(371.488281 0)"/>
       <use xlink:href="#DejaVuSans-28" transform="translate(403.275391 0)"/>
       <use xlink:href="#DejaVuSans-73" transform="translate(442.289062 0)"/>
       <use xlink:href="#DejaVuSans-69" transform="translate(494.388672 0)"/>
       <use xlink:href="#DejaVuSans-6e" transform="translate(522.171875 0)"/>
       <use xlink:href="#DejaVuSans-67" transform="translate(585.550781 0)"/>
       <use xlink:href="#DejaVuSans-6c" transform="translate(649.027344 0)"/>
       <use xlink:href="#DejaVuSans-65" transform="translate(676.810547 0)"/>
       <use xlink:href="#DejaVuSans-2d" transform="translate(738.333984 0)"/>
       <use xlink:href="#DejaVuSans-74" transform="translate(774.417969 0)"/>
       <use xlink:href="#DejaVuSans-75" transform="translate(813.626953 0)"/>
       <use xlink:href="#DejaVuSans-72" transform="translate(877.005859 0)"/>
       <use xlink:href="#DejaVuSans-6e" transform="translate(916.369141 0)"/>
       <use xlink:href="#DejaVuSans-29" transform="translate(979.748047 0)"/>
      </g>
     </g>
    </g>
   </g>
   <g id="patch_10">
    <path d="M 165.907813 293.714736 
L 165.907813 37.837812 
" style="fill: none; stroke: #000000; stroke-width: 0.8; stroke-linejoin: miter; stroke-linecap: square"/>
   </g>
   <g id="patch_11">
    <path d="M 165.907813 293.714736 
L 389.107813 293.714736 
" style="fill: none; stroke: #000000; stroke-width: 0.8; stroke-linejoin: miter; stroke-linecap: square"/>
   </g>
   <g id="text_8">
    <!-- 6 (7%) -->
    <g transform="translate(197.891637 274.82179) scale(0.12 -0.12)">
     <defs>
      <path id="DejaVuSans-36" d="M 2113 2584 
Q 1688 2584 1439 2293 
Q 1191 2003 1191 1497 
Q 1191 994 1439 701 
Q 1688 409 2113 409 
Q 2538 409 2786 701 
Q 3034 994 3034 1497 
Q 3034 2003 2786 2293 
Q 2538 2584 2113 2584 
z
M 3366 4563 
L 3366 3988 
Q 3128 4100 2886 4159 
Q 2644 4219 2406 4219 
Q 1781 4219 1451 3797 
Q 1122 3375 1075 2522 
Q 1259 2794 1537 2939 
Q 1816 3084 2150 3084 
Q 2853 3084 3261 2657 
Q 3669 2231 3669 1497 
Q 3669 778 3244 343 
Q 2819 -91 2113 -91 
Q 1303 -91 875 529 
Q 447 1150 447 2328 
Q 447 3434 972 4092 
Q 1497 4750 2381 4750 
Q 2619 4750 2861 4703 
Q 3103 4656 3366 4563 
z
" transform="scale(0.015625)"/>
      <path id="DejaVuSans-37" d="M 525 4666 
L 3525 4666 
L 3525 4397 
L 1831 0 
L 1172 0 
L 2766 4134 
L 525 4134 
L 525 4666 
z
" transform="scale(0.015625)"/>
      <path id="DejaVuSans-25" d="M 4653 2053 
Q 4381 2053 4226 1822 
Q 4072 1591 4072 1178 
Q 4072 772 4226 539 
Q 4381 306 4653 306 
Q 4919 306 5073 539 
Q 5228 772 5228 1178 
Q 5228 1588 5073 1820 
Q 4919 2053 4653 2053 
z
M 4653 2450 
Q 5147 2450 5437 2106 
Q 5728 1763 5728 1178 
Q 5728 594 5436 251 
Q 5144 -91 4653 -91 
Q 4153 -91 3862 251 
Q 3572 594 3572 1178 
Q 3572 1766 3864 2108 
Q 4156 2450 4653 2450 
z
M 1428 4353 
Q 1159 4353 1004 4120 
Q 850 3888 850 3481 
Q 850 3069 1003 2837 
Q 1156 2606 1428 2606 
Q 1700 2606 1854 2837 
Q 2009 3069 2009 3481 
Q 2009 3884 1853 4118 
Q 1697 4353 1428 4353 
z
M 4250 4750 
L 4750 4750 
L 1831 -91 
L 1331 -91 
L 4250 4750 
z
M 1428 4750 
Q 1922 4750 2215 4408 
Q 2509 4066 2509 3481 
Q 2509 2891 2217 2550 
Q 1925 2209 1428 2209 
Q 931 2209 642 2551 
Q 353 2894 353 3481 
Q 353 4063 643 4406 
Q 934 4750 1428 4750 
z
" transform="scale(0.015625)"/>
     </defs>
     <use xlink:href="#DejaVuSans-36"/>
     <use xlink:href="#DejaVuSans-20" transform="translate(63.623047 0)"/>
     <use xlink:href="#DejaVuSans-28" transform="translate(95.410156 0)"/>
     <use xlink:href="#DejaVuSans-37" transform="translate(134.423828 0)"/>
     <use xlink:href="#DejaVuSans-25" transform="translate(198.046875 0)"/>
     <use xlink:href="#DejaVuSans-29" transform="translate(293.066406 0)"/>
    </g>
   </g>
   <g id="text_9">
    <!-- 26 (29%) -->
    <g transform="translate(296.001527 239.577035) scale(0.12 -0.12)">
     <defs>
      <path id="DejaVuSans-32" d="M 1228 531 
L 3431 531 
L 3431 0 
L 469 0 
L 469 531 
Q 828 903 1448 1529 
Q 2069 2156 2228 2338 
Q 2531 2678 2651 2914 
Q 2772 3150 2772 3378 
Q 2772 3750 2511 3984 
Q 2250 4219 1831 4219 
Q 1534 4219 1204 4116 
Q 875 4013 500 3803 
L 500 4441 
Q 881 4594 1212 4672 
Q 1544 4750 1819 4750 
Q 2544 4750 2975 4387 
Q 3406 4025 3406 3419 
Q 3406 3131 3298 2873 
Q 3191 2616 2906 2266 
Q 2828 2175 2409 1742 
Q 1991 1309 1228 531 
z
" transform="scale(0.015625)"/>
      <path id="DejaVuSans-39" d="M 703 97 
L 703 672 
Q 941 559 1184 500 
Q 1428 441 1663 441 
Q 2288 441 2617 861 
Q 2947 1281 2994 2138 
Q 2813 1869 2534 1725 
Q 2256 1581 1919 1581 
Q 1219 1581 811 2004 
Q 403 2428 403 3163 
Q 403 3881 828 4315 
Q 1253 4750 1959 4750 
Q 2769 4750 3195 4129 
Q 3622 3509 3622 2328 
Q 3622 1225 3098 567 
Q 2575 -91 1691 -91 
Q 1453 -91 1209 -44 
Q 966 3 703 97 
z
M 1959 2075 
Q 2384 2075 2632 2365 
Q 2881 2656 2881 3163 
Q 2881 3666 2632 3958 
Q 2384 4250 1959 4250 
Q 1534 4250 1286 3958 
Q 1038 3666 1038 3163 
Q 1038 2656 1286 2365 
Q 1534 2075 1959 2075 
z
" transform="scale(0.015625)"/>
     </defs>
     <use xlink:href="#DejaVuSans-32"/>
     <use xlink:href="#DejaVuSans-36" transform="translate(63.623047 0)"/>
     <use xlink:href="#DejaVuSans-20" transform="translate(127.246094 0)"/>
     <use xlink:href="#DejaVuSans-28" transform="translate(159.033203 0)"/>
     <use xlink:href="#DejaVuSans-32" transform="translate(198.046875 0)"/>
     <use xlink:href="#DejaVuSans-39" transform="translate(261.669922 0)"/>
     <use xlink:href="#DejaVuSans-25" transform="translate(325.292969 0)"/>
     <use xlink:href="#DejaVuSans-29" transform="translate(420.3125 0)"/>
    </g>
   </g>
   <g id="text_10">
    <!-- 6 (7%) -->
    <g transform="translate(197.891637 204.332279) scale(0.12 -0.12)">
     <use xlink:href="#DejaVuSans-36"/>
     <use xlink:href="#DejaVuSans-20" transform="translate(63.623047 0)"/>
     <use xlink:href="#DejaVuSans-28" transform="translate(95.410156 0)"/>
     <use xlink:href="#DejaVuSans-37" transform="translate(134.423828 0)"/>
     <use xlink:href="#DejaVuSans-25" transform="translate(198.046875 0)"/>
     <use xlink:href="#DejaVuSans-29" transform="translate(293.066406 0)"/>
    </g>
   </g>
   <g id="text_11">
    <!-- 8 (9%) -->
    <g transform="translate(207.702626 169.087524) scale(0.12 -0.12)">
     <defs>
      <path id="DejaVuSans-38" d="M 2034 2216 
Q 1584 2216 1326 1975 
Q 1069 1734 1069 1313 
Q 1069 891 1326 650 
Q 1584 409 2034 409 
Q 2484 409 2743 651 
Q 3003 894 3003 1313 
Q 3003 1734 2745 1975 
Q 2488 2216 2034 2216 
z
M 1403 2484 
Q 997 2584 770 2862 
Q 544 3141 544 3541 
Q 544 4100 942 4425 
Q 1341 4750 2034 4750 
Q 2731 4750 3128 4425 
Q 3525 4100 3525 3541 
Q 3525 3141 3298 2862 
Q 3072 2584 2669 2484 
Q 3125 2378 3379 2068 
Q 3634 1759 3634 1313 
Q 3634 634 3220 271 
Q 2806 -91 2034 -91 
Q 1263 -91 848 271 
Q 434 634 434 1313 
Q 434 1759 690 2068 
Q 947 2378 1403 2484 
z
M 1172 3481 
Q 1172 3119 1398 2916 
Q 1625 2713 2034 2713 
Q 2441 2713 2670 2916 
Q 2900 3119 2900 3481 
Q 2900 3844 2670 4047 
Q 2441 4250 2034 4250 
Q 1625 4250 1398 4047 
Q 1172 3844 1172 3481 
z
" transform="scale(0.015625)"/>
     </defs>
     <use xlink:href="#DejaVuSans-38"/>
     <use xlink:href="#DejaVuSans-20" transform="translate(63.623047 0)"/>
     <use xlink:href="#DejaVuSans-28" transform="translate(95.410156 0)"/>
     <use xlink:href="#DejaVuSans-39" transform="translate(134.423828 0)"/>
     <use xlink:href="#DejaVuSans-25" transform="translate(198.046875 0)"/>
     <use xlink:href="#DejaVuSans-29" transform="translate(293.066406 0)"/>
    </g>
   </g>
   <g id="text_12">
    <!-- 8 (9%) -->
    <g transform="translate(207.702626 133.842769) scale(0.12 -0.12)">
     <use xlink:href="#DejaVuSans-38"/>
     <use xlink:href="#DejaVuSans-20" transform="translate(63.623047 0)"/>
     <use xlink:href="#DejaVuSans-28" transform="translate(95.410156 0)"/>
     <use xlink:href="#DejaVuSans-39" transform="translate(134.423828 0)"/>
     <use xlink:href="#DejaVuSans-25" transform="translate(198.046875 0)"/>
     <use xlink:href="#DejaVuSans-29" transform="translate(293.066406 0)"/>
    </g>
   </g>
   <g id="text_13">
    <!-- 17 (19%) -->
    <g transform="translate(251.852076 98.598014) scale(0.12 -0.12)">
     <defs>
      <path id="DejaVuSans-31" d="M 794 531 
L 1825 531 
L 1825 4091 
L 703 3866 
L 703 4441 
L 1819 4666 
L 2450 4666 
L 2450 531 
L 3481 531 
L 3481 0 
L 794 0 
L 794 531 
z
" transform="scale(0.015625)"/>
     </defs>
     <use xlink:href="#DejaVuSans-31"/>
     <use xlink:href="#DejaVuSans-37" transform="translate(63.623047 0)"/>
     <use xlink:href="#DejaVuSans-20" transform="translate(127.246094 0)"/>
     <use xlink:href="#DejaVuSans-28" transform="translate(159.033203 0)"/>
     <use xlink:href="#DejaVuSans-31" transform="translate(198.046875 0)"/>
     <use xlink:href="#DejaVuSans-39" transform="translate(261.669922 0)"/>
     <use xlink:href="#DejaVuSans-25" transform="translate(325.292969 0)"/>
     <use xlink:href="#DejaVuSans-29" transform="translate(420.3125 0)"/>
    </g>
   </g>
   <g id="text_14">
    <!-- 19 (21%) -->
    <g transform="translate(261.663065 63.353258) scale(0.12 -0.12)">
     <use xlink:href="#DejaVuSans-31"/>
     <use xlink:href="#DejaVuSans-39" transform="translate(63.623047 0)"/>
     <use xlink:href="#DejaVuSans-20" transform="translate(127.246094 0)"/>
     <use xlink:href="#DejaVuSans-28" transform="translate(159.033203 0)"/>
     <use xlink:href="#DejaVuSans-32" transform="translate(198.046875 0)"/>
     <use xlink:href="#DejaVuSans-31" transform="translate(261.669922 0)"/>
     <use xlink:href="#DejaVuSans-25" transform="translate(325.292969 0)"/>
     <use xlink:href="#DejaVuSans-29" transform="translate(420.3125 0)"/>
    </g>
   </g>
   <g id="text_15">
    <!-- Types of datasets -->
    <g transform="translate(216.476562 17.837812) scale(0.14 -0.14)">
     <defs>
      <path id="DejaVuSans-54" d="M -19 4666 
L 3928 4666 
L 3928 4134 
L 2272 4134 
L 2272 0 
L 1638 0 
L 1638 4134 
L -19 4134 
L -19 4666 
z
" transform="scale(0.015625)"/>
     </defs>
     <use xlink:href="#DejaVuSans-54"/>
     <use xlink:href="#DejaVuSans-79" transform="translate(45.458984 0)"/>
     <use xlink:href="#DejaVuSans-70" transform="translate(104.638672 0)"/>
     <use xlink:href="#DejaVuSans-65" transform="translate(168.115234 0)"/>
     <use xlink:href="#DejaVuSans-73" transform="translate(229.638672 0)"/>
     <use xlink:href="#DejaVuSans-20" transform="translate(281.738281 0)"/>
     <use xlink:href="#DejaVuSans-6f" transform="translate(313.525391 0)"/>
     <use xlink:href="#DejaVuSans-66" transform="translate(374.707031 0)"/>
     <use xlink:href="#DejaVuSans-20" transform="translate(409.912109 0)"/>
     <use xlink:href="#DejaVuSans-64" transform="translate(441.699219 0)"/>
     <use xlink:href="#DejaVuSans-61" transform="translate(505.175781 0)"/>
     <use xlink:href="#DejaVuSans-74" transform="translate(566.455078 0)"/>
     <use xlink:href="#DejaVuSans-61" transform="translate(605.664062 0)"/>
     <use xlink:href="#DejaVuSans-73" transform="translate(666.943359 0)"/>
     <use xlink:href="#DejaVuSans-65" transform="translate(719.042969 0)"/>
     <use xlink:href="#DejaVuSans-74" transform="translate(780.566406 0)"/>
     <use xlink:href="#DejaVuSans-73" transform="translate(819.775391 0)"/>
    </g>
   </g>
  </g>
  <g id="axes_2">
   <g id="patch_12">
    <path d="M 165.907813 442.976274 
L 389.107813 442.976274 
L 389.107813 357.683966 
L 165.907813 357.683966 
z
" style="fill: #ffffff"/>
   </g>
   <g id="patch_13">
    <path d="M 165.907813 439.099351 
L 273.828692 439.099351 
L 273.828692 426.176274 
L 165.907813 426.176274 
z
" clip-path="url(#p1f3e3b155c)" style="fill: #c3c3c3; opacity: 0.8"/>
   </g>
   <g id="patch_14">
    <path d="M 165.907813 417.560889 
L 337.60012 417.560889 
L 337.60012 404.637812 
L 165.907813 404.637812 
z
" clip-path="url(#p1f3e3b155c)" style="fill: #c3c3c3; opacity: 0.8"/>
   </g>
   <g id="patch_15">
    <path d="M 165.907813 396.022428 
L 303.261659 396.022428 
L 303.261659 383.099351 
L 165.907813 383.099351 
z
" clip-path="url(#p1f3e3b155c)" style="fill: #737373; opacity: 0.8"/>
   </g>
   <g id="patch_16">
    <path d="M 165.907813 374.483966 
L 190.435285 374.483966 
L 190.435285 361.560889 
L 165.907813 361.560889 
z
" clip-path="url(#p1f3e3b155c)" style="fill: #003a7d; opacity: 0.8"/>
   </g>
   <g id="matplotlib.axis_3">
    <g id="xtick_6">
     <g id="line2d_18">
      <path d="M 165.907813 442.976274 
L 165.907813 357.683966 
" clip-path="url(#p1f3e3b155c)" style="fill: none; stroke: #b0b0b0; stroke-opacity: 0.7; stroke-width: 0.3; stroke-linecap: square"/>
     </g>
     <g id="line2d_19">
      <g>
       <use xlink:href="#m2e38e80dac" x="165.907813" y="442.976274" style="stroke: #000000; stroke-width: 0.8"/>
      </g>
     </g>
    </g>
    <g id="xtick_7">
     <g id="line2d_20">
      <path d="M 214.962758 442.976274 
L 214.962758 357.683966 
" clip-path="url(#p1f3e3b155c)" style="fill: none; stroke: #b0b0b0; stroke-opacity: 0.7; stroke-width: 0.3; stroke-linecap: square"/>
     </g>
     <g id="line2d_21">
      <g>
       <use xlink:href="#m2e38e80dac" x="214.962758" y="442.976274" style="stroke: #000000; stroke-width: 0.8"/>
      </g>
     </g>
    </g>
    <g id="xtick_8">
     <g id="line2d_22">
      <path d="M 264.017703 442.976274 
L 264.017703 357.683966 
" clip-path="url(#p1f3e3b155c)" style="fill: none; stroke: #b0b0b0; stroke-opacity: 0.7; stroke-width: 0.3; stroke-linecap: square"/>
     </g>
     <g id="line2d_23">
      <g>
       <use xlink:href="#m2e38e80dac" x="264.017703" y="442.976274" style="stroke: #000000; stroke-width: 0.8"/>
      </g>
     </g>
    </g>
    <g id="xtick_9">
     <g id="line2d_24">
      <path d="M 313.072648 442.976274 
L 313.072648 357.683966 
" clip-path="url(#p1f3e3b155c)" style="fill: none; stroke: #b0b0b0; stroke-opacity: 0.7; stroke-width: 0.3; stroke-linecap: square"/>
     </g>
     <g id="line2d_25">
      <g>
       <use xlink:href="#m2e38e80dac" x="313.072648" y="442.976274" style="stroke: #000000; stroke-width: 0.8"/>
      </g>
     </g>
    </g>
    <g id="xtick_10">
     <g id="line2d_26">
      <path d="M 362.127593 442.976274 
L 362.127593 357.683966 
" clip-path="url(#p1f3e3b155c)" style="fill: none; stroke: #b0b0b0; stroke-opacity: 0.7; stroke-width: 0.3; stroke-linecap: square"/>
     </g>
     <g id="line2d_27">
      <g>
       <use xlink:href="#m2e38e80dac" x="362.127593" y="442.976274" style="stroke: #000000; stroke-width: 0.8"/>
      </g>
     </g>
    </g>
   </g>
   <g id="matplotlib.axis_4">
    <g id="ytick_8">
     <g id="line2d_28">
      <g>
       <use xlink:href="#mae17ce026f" x="165.907813" y="432.637812" style="stroke: #000000; stroke-width: 0.8"/>
      </g>
     </g>
     <g id="text_16">
      <!-- Not applicable to dataset type -->
      <g transform="translate(7.2 436.437031) scale(0.1 -0.1)">
       <defs>
        <path id="DejaVuSans-62" d="M 3116 1747 
Q 3116 2381 2855 2742 
Q 2594 3103 2138 3103 
Q 1681 3103 1420 2742 
Q 1159 2381 1159 1747 
Q 1159 1113 1420 752 
Q 1681 391 2138 391 
Q 2594 391 2855 752 
Q 3116 1113 3116 1747 
z
M 1159 2969 
Q 1341 3281 1617 3432 
Q 1894 3584 2278 3584 
Q 2916 3584 3314 3078 
Q 3713 2572 3713 1747 
Q 3713 922 3314 415 
Q 2916 -91 2278 -91 
Q 1894 -91 1617 61 
Q 1341 213 1159 525 
L 1159 0 
L 581 0 
L 581 4863 
L 1159 4863 
L 1159 2969 
z
" transform="scale(0.015625)"/>
       </defs>
       <use xlink:href="#DejaVuSans-4e"/>
       <use xlink:href="#DejaVuSans-6f" transform="translate(74.804688 0)"/>
       <use xlink:href="#DejaVuSans-74" transform="translate(135.986328 0)"/>
       <use xlink:href="#DejaVuSans-20" transform="translate(175.195312 0)"/>
       <use xlink:href="#DejaVuSans-61" transform="translate(206.982422 0)"/>
       <use xlink:href="#DejaVuSans-70" transform="translate(268.261719 0)"/>
       <use xlink:href="#DejaVuSans-70" transform="translate(331.738281 0)"/>
       <use xlink:href="#DejaVuSans-6c" transform="translate(395.214844 0)"/>
       <use xlink:href="#DejaVuSans-69" transform="translate(422.998047 0)"/>
       <use xlink:href="#DejaVuSans-63" transform="translate(450.78125 0)"/>
       <use xlink:href="#DejaVuSans-61" transform="translate(505.761719 0)"/>
       <use xlink:href="#DejaVuSans-62" transform="translate(567.041016 0)"/>
       <use xlink:href="#DejaVuSans-6c" transform="translate(630.517578 0)"/>
       <use xlink:href="#DejaVuSans-65" transform="translate(658.300781 0)"/>
       <use xlink:href="#DejaVuSans-20" transform="translate(719.824219 0)"/>
       <use xlink:href="#DejaVuSans-74" transform="translate(751.611328 0)"/>
       <use xlink:href="#DejaVuSans-6f" transform="translate(790.820312 0)"/>
       <use xlink:href="#DejaVuSans-20" transform="translate(852.001953 0)"/>
       <use xlink:href="#DejaVuSans-64" transform="translate(883.789062 0)"/>
       <use xlink:href="#DejaVuSans-61" transform="translate(947.265625 0)"/>
       <use xlink:href="#DejaVuSans-74" transform="translate(1008.544922 0)"/>
       <use xlink:href="#DejaVuSans-61" transform="translate(1047.753906 0)"/>
       <use xlink:href="#DejaVuSans-73" transform="translate(1109.033203 0)"/>
       <use xlink:href="#DejaVuSans-65" transform="translate(1161.132812 0)"/>
       <use xlink:href="#DejaVuSans-74" transform="translate(1222.65625 0)"/>
       <use xlink:href="#DejaVuSans-20" transform="translate(1261.865234 0)"/>
       <use xlink:href="#DejaVuSans-74" transform="translate(1293.652344 0)"/>
       <use xlink:href="#DejaVuSans-79" transform="translate(1332.861328 0)"/>
       <use xlink:href="#DejaVuSans-70" transform="translate(1392.041016 0)"/>
       <use xlink:href="#DejaVuSans-65" transform="translate(1455.517578 0)"/>
      </g>
     </g>
    </g>
    <g id="ytick_9">
     <g id="line2d_29">
      <g>
       <use xlink:href="#mae17ce026f" x="165.907813" y="411.099351" style="stroke: #000000; stroke-width: 0.8"/>
      </g>
     </g>
     <g id="text_17">
      <!-- User type not specified -->
      <g transform="translate(43.076562 414.89857) scale(0.1 -0.1)">
       <use xlink:href="#DejaVuSans-55"/>
       <use xlink:href="#DejaVuSans-73" transform="translate(73.193359 0)"/>
       <use xlink:href="#DejaVuSans-65" transform="translate(125.292969 0)"/>
       <use xlink:href="#DejaVuSans-72" transform="translate(186.816406 0)"/>
       <use xlink:href="#DejaVuSans-20" transform="translate(227.929688 0)"/>
       <use xlink:href="#DejaVuSans-74" transform="translate(259.716797 0)"/>
       <use xlink:href="#DejaVuSans-79" transform="translate(298.925781 0)"/>
       <use xlink:href="#DejaVuSans-70" transform="translate(358.105469 0)"/>
       <use xlink:href="#DejaVuSans-65" transform="translate(421.582031 0)"/>
       <use xlink:href="#DejaVuSans-20" transform="translate(483.105469 0)"/>
       <use xlink:href="#DejaVuSans-6e" transform="translate(514.892578 0)"/>
       <use xlink:href="#DejaVuSans-6f" transform="translate(578.271484 0)"/>
       <use xlink:href="#DejaVuSans-74" transform="translate(639.453125 0)"/>
       <use xlink:href="#DejaVuSans-20" transform="translate(678.662109 0)"/>
       <use xlink:href="#DejaVuSans-73" transform="translate(710.449219 0)"/>
       <use xlink:href="#DejaVuSans-70" transform="translate(762.548828 0)"/>
       <use xlink:href="#DejaVuSans-65" transform="translate(826.025391 0)"/>
       <use xlink:href="#DejaVuSans-63" transform="translate(887.548828 0)"/>
       <use xlink:href="#DejaVuSans-69" transform="translate(942.529297 0)"/>
       <use xlink:href="#DejaVuSans-66" transform="translate(970.3125 0)"/>
       <use xlink:href="#DejaVuSans-69" transform="translate(1005.517578 0)"/>
       <use xlink:href="#DejaVuSans-65" transform="translate(1033.300781 0)"/>
       <use xlink:href="#DejaVuSans-64" transform="translate(1094.824219 0)"/>
      </g>
     </g>
    </g>
    <g id="ytick_10">
     <g id="line2d_30">
      <g>
       <use xlink:href="#mae17ce026f" x="165.907813" y="389.560889" style="stroke: #000000; stroke-width: 0.8"/>
      </g>
     </g>
     <g id="text_18">
      <!-- General population users -->
      <g transform="translate(32.907813 393.360108) scale(0.1 -0.1)">
       <defs>
        <path id="DejaVuSans-47" d="M 3809 666 
L 3809 1919 
L 2778 1919 
L 2778 2438 
L 4434 2438 
L 4434 434 
Q 4069 175 3628 42 
Q 3188 -91 2688 -91 
Q 1594 -91 976 548 
Q 359 1188 359 2328 
Q 359 3472 976 4111 
Q 1594 4750 2688 4750 
Q 3144 4750 3555 4637 
Q 3966 4525 4313 4306 
L 4313 3634 
Q 3963 3931 3569 4081 
Q 3175 4231 2741 4231 
Q 1884 4231 1454 3753 
Q 1025 3275 1025 2328 
Q 1025 1384 1454 906 
Q 1884 428 2741 428 
Q 3075 428 3337 486 
Q 3600 544 3809 666 
z
" transform="scale(0.015625)"/>
       </defs>
       <use xlink:href="#DejaVuSans-47"/>
       <use xlink:href="#DejaVuSans-65" transform="translate(77.490234 0)"/>
       <use xlink:href="#DejaVuSans-6e" transform="translate(139.013672 0)"/>
       <use xlink:href="#DejaVuSans-65" transform="translate(202.392578 0)"/>
       <use xlink:href="#DejaVuSans-72" transform="translate(263.916016 0)"/>
       <use xlink:href="#DejaVuSans-61" transform="translate(305.029297 0)"/>
       <use xlink:href="#DejaVuSans-6c" transform="translate(366.308594 0)"/>
       <use xlink:href="#DejaVuSans-20" transform="translate(394.091797 0)"/>
       <use xlink:href="#DejaVuSans-70" transform="translate(425.878906 0)"/>
       <use xlink:href="#DejaVuSans-6f" transform="translate(489.355469 0)"/>
       <use xlink:href="#DejaVuSans-70" transform="translate(550.537109 0)"/>
       <use xlink:href="#DejaVuSans-75" transform="translate(614.013672 0)"/>
       <use xlink:href="#DejaVuSans-6c" transform="translate(677.392578 0)"/>
       <use xlink:href="#DejaVuSans-61" transform="translate(705.175781 0)"/>
       <use xlink:href="#DejaVuSans-74" transform="translate(766.455078 0)"/>
       <use xlink:href="#DejaVuSans-69" transform="translate(805.664062 0)"/>
       <use xlink:href="#DejaVuSans-6f" transform="translate(833.447266 0)"/>
       <use xlink:href="#DejaVuSans-6e" transform="translate(894.628906 0)"/>
       <use xlink:href="#DejaVuSans-20" transform="translate(958.007812 0)"/>
       <use xlink:href="#DejaVuSans-75" transform="translate(989.794922 0)"/>
       <use xlink:href="#DejaVuSans-73" transform="translate(1053.173828 0)"/>
       <use xlink:href="#DejaVuSans-65" transform="translate(1105.273438 0)"/>
       <use xlink:href="#DejaVuSans-72" transform="translate(1166.796875 0)"/>
       <use xlink:href="#DejaVuSans-73" transform="translate(1207.910156 0)"/>
      </g>
     </g>
    </g>
    <g id="ytick_11">
     <g id="line2d_31">
      <g>
       <use xlink:href="#mae17ce026f" x="165.907813" y="368.022428" style="stroke: #000000; stroke-width: 0.8"/>
      </g>
     </g>
     <g id="text_19">
      <!-- Users with psychopathology -->
      <g transform="translate(17.8875 371.821647) scale(0.1 -0.1)">
       <defs>
        <path id="DejaVuSans-77" d="M 269 3500 
L 844 3500 
L 1563 769 
L 2278 3500 
L 2956 3500 
L 3675 769 
L 4391 3500 
L 4966 3500 
L 4050 0 
L 3372 0 
L 2619 2869 
L 1863 0 
L 1184 0 
L 269 3500 
z
" transform="scale(0.015625)"/>
       </defs>
       <use xlink:href="#DejaVuSans-55"/>
       <use xlink:href="#DejaVuSans-73" transform="translate(73.193359 0)"/>
       <use xlink:href="#DejaVuSans-65" transform="translate(125.292969 0)"/>
       <use xlink:href="#DejaVuSans-72" transform="translate(186.816406 0)"/>
       <use xlink:href="#DejaVuSans-73" transform="translate(227.929688 0)"/>
       <use xlink:href="#DejaVuSans-20" transform="translate(280.029297 0)"/>
       <use xlink:href="#DejaVuSans-77" transform="translate(311.816406 0)"/>
       <use xlink:href="#DejaVuSans-69" transform="translate(393.603516 0)"/>
       <use xlink:href="#DejaVuSans-74" transform="translate(421.386719 0)"/>
       <use xlink:href="#DejaVuSans-68" transform="translate(460.595703 0)"/>
       <use xlink:href="#DejaVuSans-20" transform="translate(523.974609 0)"/>
       <use xlink:href="#DejaVuSans-70" transform="translate(555.761719 0)"/>
       <use xlink:href="#DejaVuSans-73" transform="translate(619.238281 0)"/>
       <use xlink:href="#DejaVuSans-79" transform="translate(671.337891 0)"/>
       <use xlink:href="#DejaVuSans-63" transform="translate(730.517578 0)"/>
       <use xlink:href="#DejaVuSans-68" transform="translate(785.498047 0)"/>
       <use xlink:href="#DejaVuSans-6f" transform="translate(848.876953 0)"/>
       <use xlink:href="#DejaVuSans-70" transform="translate(910.058594 0)"/>
       <use xlink:href="#DejaVuSans-61" transform="translate(973.535156 0)"/>
       <use xlink:href="#DejaVuSans-74" transform="translate(1034.814453 0)"/>
       <use xlink:href="#DejaVuSans-68" transform="translate(1074.023438 0)"/>
       <use xlink:href="#DejaVuSans-6f" transform="translate(1137.402344 0)"/>
       <use xlink:href="#DejaVuSans-6c" transform="translate(1198.583984 0)"/>
       <use xlink:href="#DejaVuSans-6f" transform="translate(1226.367188 0)"/>
       <use xlink:href="#DejaVuSans-67" transform="translate(1287.548828 0)"/>
       <use xlink:href="#DejaVuSans-79" transform="translate(1351.025391 0)"/>
      </g>
     </g>
    </g>
   </g>
   <g id="patch_17">
    <path d="M 165.907813 442.976274 
L 165.907813 357.683966 
" style="fill: none; stroke: #000000; stroke-width: 0.8; stroke-linejoin: miter; stroke-linecap: square"/>
   </g>
   <g id="patch_18">
    <path d="M 165.907813 442.976274 
L 389.107813 442.976274 
" style="fill: none; stroke: #000000; stroke-width: 0.8; stroke-linejoin: miter; stroke-linecap: square"/>
   </g>
   <g id="text_20">
    <!-- 22 (24%) -->
    <g transform="translate(277.262538 435.949062) scale(0.12 -0.12)">
     <defs>
      <path id="DejaVuSans-34" d="M 2419 4116 
L 825 1625 
L 2419 1625 
L 2419 4116 
z
M 2253 4666 
L 3047 4666 
L 3047 1625 
L 3713 1625 
L 3713 1100 
L 3047 1100 
L 3047 0 
L 2419 0 
L 2419 1100 
L 313 1100 
L 313 1709 
L 2253 4666 
z
" transform="scale(0.015625)"/>
     </defs>
     <use xlink:href="#DejaVuSans-32"/>
     <use xlink:href="#DejaVuSans-32" transform="translate(63.623047 0)"/>
     <use xlink:href="#DejaVuSans-20" transform="translate(127.246094 0)"/>
     <use xlink:href="#DejaVuSans-28" transform="translate(159.033203 0)"/>
     <use xlink:href="#DejaVuSans-32" transform="translate(198.046875 0)"/>
     <use xlink:href="#DejaVuSans-34" transform="translate(261.669922 0)"/>
     <use xlink:href="#DejaVuSans-25" transform="translate(325.292969 0)"/>
     <use xlink:href="#DejaVuSans-29" transform="translate(420.3125 0)"/>
    </g>
   </g>
   <g id="text_21">
    <!-- 35 (39%) -->
    <g transform="translate(341.033966 414.410601) scale(0.12 -0.12)">
     <defs>
      <path id="DejaVuSans-33" d="M 2597 2516 
Q 3050 2419 3304 2112 
Q 3559 1806 3559 1356 
Q 3559 666 3084 287 
Q 2609 -91 1734 -91 
Q 1441 -91 1130 -33 
Q 819 25 488 141 
L 488 750 
Q 750 597 1062 519 
Q 1375 441 1716 441 
Q 2309 441 2620 675 
Q 2931 909 2931 1356 
Q 2931 1769 2642 2001 
Q 2353 2234 1838 2234 
L 1294 2234 
L 1294 2753 
L 1863 2753 
Q 2328 2753 2575 2939 
Q 2822 3125 2822 3475 
Q 2822 3834 2567 4026 
Q 2313 4219 1838 4219 
Q 1578 4219 1281 4162 
Q 984 4106 628 3988 
L 628 4550 
Q 988 4650 1302 4700 
Q 1616 4750 1894 4750 
Q 2613 4750 3031 4423 
Q 3450 4097 3450 3541 
Q 3450 3153 3228 2886 
Q 3006 2619 2597 2516 
z
" transform="scale(0.015625)"/>
      <path id="DejaVuSans-35" d="M 691 4666 
L 3169 4666 
L 3169 4134 
L 1269 4134 
L 1269 2991 
Q 1406 3038 1543 3061 
Q 1681 3084 1819 3084 
Q 2600 3084 3056 2656 
Q 3513 2228 3513 1497 
Q 3513 744 3044 326 
Q 2575 -91 1722 -91 
Q 1428 -91 1123 -41 
Q 819 9 494 109 
L 494 744 
Q 775 591 1075 516 
Q 1375 441 1709 441 
Q 2250 441 2565 725 
Q 2881 1009 2881 1497 
Q 2881 1984 2565 2268 
Q 2250 2553 1709 2553 
Q 1456 2553 1204 2497 
Q 953 2441 691 2322 
L 691 4666 
z
" transform="scale(0.015625)"/>
     </defs>
     <use xlink:href="#DejaVuSans-33"/>
     <use xlink:href="#DejaVuSans-35" transform="translate(63.623047 0)"/>
     <use xlink:href="#DejaVuSans-20" transform="translate(127.246094 0)"/>
     <use xlink:href="#DejaVuSans-28" transform="translate(159.033203 0)"/>
     <use xlink:href="#DejaVuSans-33" transform="translate(198.046875 0)"/>
     <use xlink:href="#DejaVuSans-39" transform="translate(261.669922 0)"/>
     <use xlink:href="#DejaVuSans-25" transform="translate(325.292969 0)"/>
     <use xlink:href="#DejaVuSans-29" transform="translate(420.3125 0)"/>
    </g>
   </g>
   <g id="text_22">
    <!-- 28 (31%) -->
    <g transform="translate(306.695505 392.872139) scale(0.12 -0.12)">
     <use xlink:href="#DejaVuSans-32"/>
     <use xlink:href="#DejaVuSans-38" transform="translate(63.623047 0)"/>
     <use xlink:href="#DejaVuSans-20" transform="translate(127.246094 0)"/>
     <use xlink:href="#DejaVuSans-28" transform="translate(159.033203 0)"/>
     <use xlink:href="#DejaVuSans-33" transform="translate(198.046875 0)"/>
     <use xlink:href="#DejaVuSans-31" transform="translate(261.669922 0)"/>
     <use xlink:href="#DejaVuSans-25" transform="translate(325.292969 0)"/>
     <use xlink:href="#DejaVuSans-29" transform="translate(420.3125 0)"/>
    </g>
   </g>
   <g id="text_23">
    <!-- 5 (6%) -->
    <g transform="translate(193.869131 371.333678) scale(0.12 -0.12)">
     <use xlink:href="#DejaVuSans-35"/>
     <use xlink:href="#DejaVuSans-20" transform="translate(63.623047 0)"/>
     <use xlink:href="#DejaVuSans-28" transform="translate(95.410156 0)"/>
     <use xlink:href="#DejaVuSans-36" transform="translate(134.423828 0)"/>
     <use xlink:href="#DejaVuSans-25" transform="translate(198.046875 0)"/>
     <use xlink:href="#DejaVuSans-29" transform="translate(293.066406 0)"/>
    </g>
   </g>
   <g id="text_24">
    <!-- Types of help-seekers in the datasets -->
    <g transform="translate(147.384375 337.683966) scale(0.14 -0.14)">
     <defs>
      <path id="DejaVuSans-6b" d="M 581 4863 
L 1159 4863 
L 1159 1991 
L 2875 3500 
L 3609 3500 
L 1753 1863 
L 3688 0 
L 2938 0 
L 1159 1709 
L 1159 0 
L 581 0 
L 581 4863 
z
" transform="scale(0.015625)"/>
     </defs>
     <use xlink:href="#DejaVuSans-54"/>
     <use xlink:href="#DejaVuSans-79" transform="translate(45.458984 0)"/>
     <use xlink:href="#DejaVuSans-70" transform="translate(104.638672 0)"/>
     <use xlink:href="#DejaVuSans-65" transform="translate(168.115234 0)"/>
     <use xlink:href="#DejaVuSans-73" transform="translate(229.638672 0)"/>
     <use xlink:href="#DejaVuSans-20" transform="translate(281.738281 0)"/>
     <use xlink:href="#DejaVuSans-6f" transform="translate(313.525391 0)"/>
     <use xlink:href="#DejaVuSans-66" transform="translate(374.707031 0)"/>
     <use xlink:href="#DejaVuSans-20" transform="translate(409.912109 0)"/>
     <use xlink:href="#DejaVuSans-68" transform="translate(441.699219 0)"/>
     <use xlink:href="#DejaVuSans-65" transform="translate(505.078125 0)"/>
     <use xlink:href="#DejaVuSans-6c" transform="translate(566.601562 0)"/>
     <use xlink:href="#DejaVuSans-70" transform="translate(594.384766 0)"/>
     <use xlink:href="#DejaVuSans-2d" transform="translate(657.861328 0)"/>
     <use xlink:href="#DejaVuSans-73" transform="translate(693.945312 0)"/>
     <use xlink:href="#DejaVuSans-65" transform="translate(746.044922 0)"/>
     <use xlink:href="#DejaVuSans-65" transform="translate(807.568359 0)"/>
     <use xlink:href="#DejaVuSans-6b" transform="translate(869.091797 0)"/>
     <use xlink:href="#DejaVuSans-65" transform="translate(923.376953 0)"/>
     <use xlink:href="#DejaVuSans-72" transform="translate(984.900391 0)"/>
     <use xlink:href="#DejaVuSans-73" transform="translate(1026.013672 0)"/>
     <use xlink:href="#DejaVuSans-20" transform="translate(1078.113281 0)"/>
     <use xlink:href="#DejaVuSans-69" transform="translate(1109.900391 0)"/>
     <use xlink:href="#DejaVuSans-6e" transform="translate(1137.683594 0)"/>
     <use xlink:href="#DejaVuSans-20" transform="translate(1201.0625 0)"/>
     <use xlink:href="#DejaVuSans-74" transform="translate(1232.849609 0)"/>
     <use xlink:href="#DejaVuSans-68" transform="translate(1272.058594 0)"/>
     <use xlink:href="#DejaVuSans-65" transform="translate(1335.4375 0)"/>
     <use xlink:href="#DejaVuSans-20" transform="translate(1396.960938 0)"/>
     <use xlink:href="#DejaVuSans-64" transform="translate(1428.748047 0)"/>
     <use xlink:href="#DejaVuSans-61" transform="translate(1492.224609 0)"/>
     <use xlink:href="#DejaVuSans-74" transform="translate(1553.503906 0)"/>
     <use xlink:href="#DejaVuSans-61" transform="translate(1592.712891 0)"/>
     <use xlink:href="#DejaVuSans-73" transform="translate(1653.992188 0)"/>
     <use xlink:href="#DejaVuSans-65" transform="translate(1706.091797 0)"/>
     <use xlink:href="#DejaVuSans-74" transform="translate(1767.615234 0)"/>
     <use xlink:href="#DejaVuSans-73" transform="translate(1806.824219 0)"/>
    </g>
   </g>
  </g>
  <g id="axes_3">
   <g id="patch_19">
    <path d="M 165.907813 592.237813 
L 389.107813 592.237813 
L 389.107813 506.945505 
L 165.907813 506.945505 
z
" style="fill: #ffffff"/>
   </g>
   <g id="patch_20">
    <path d="M 165.907813 588.360889 
L 337.60012 588.360889 
L 337.60012 575.437813 
L 165.907813 575.437813 
z
" clip-path="url(#p588523fd74)" style="fill: #c3c3c3; opacity: 0.8"/>
   </g>
   <g id="patch_21">
    <path d="M 165.907813 566.822428 
L 313.072648 566.822428 
L 313.072648 553.899351 
L 165.907813 553.899351 
z
" clip-path="url(#p588523fd74)" style="fill: #c3c3c3; opacity: 0.8"/>
   </g>
   <g id="patch_22">
    <path d="M 165.907813 545.283966 
L 210.057263 545.283966 
L 210.057263 532.360889 
L 165.907813 532.360889 
z
" clip-path="url(#p588523fd74)" style="fill: #737373; opacity: 0.8"/>
   </g>
   <g id="patch_23">
    <path d="M 165.907813 523.745505 
L 244.395725 523.745505 
L 244.395725 510.822428 
L 165.907813 510.822428 
z
" clip-path="url(#p588523fd74)" style="fill: #003a7d; opacity: 0.8"/>
   </g>
   <g id="matplotlib.axis_5">
    <g id="xtick_11">
     <g id="line2d_32">
      <path d="M 165.907813 592.237813 
L 165.907813 506.945505 
" clip-path="url(#p588523fd74)" style="fill: none; stroke: #b0b0b0; stroke-opacity: 0.7; stroke-width: 0.3; stroke-linecap: square"/>
     </g>
     <g id="line2d_33">
      <g>
       <use xlink:href="#m2e38e80dac" x="165.907813" y="592.237813" style="stroke: #000000; stroke-width: 0.8"/>
      </g>
     </g>
     <g id="text_25">
      <!-- 0 -->
      <g transform="translate(162.726562 606.83625) scale(0.1 -0.1)">
       <defs>
        <path id="DejaVuSans-30" d="M 2034 4250 
Q 1547 4250 1301 3770 
Q 1056 3291 1056 2328 
Q 1056 1369 1301 889 
Q 1547 409 2034 409 
Q 2525 409 2770 889 
Q 3016 1369 3016 2328 
Q 3016 3291 2770 3770 
Q 2525 4250 2034 4250 
z
M 2034 4750 
Q 2819 4750 3233 4129 
Q 3647 3509 3647 2328 
Q 3647 1150 3233 529 
Q 2819 -91 2034 -91 
Q 1250 -91 836 529 
Q 422 1150 422 2328 
Q 422 3509 836 4129 
Q 1250 4750 2034 4750 
z
" transform="scale(0.015625)"/>
       </defs>
       <use xlink:href="#DejaVuSans-30"/>
      </g>
     </g>
    </g>
    <g id="xtick_12">
     <g id="line2d_34">
      <path d="M 214.962758 592.237813 
L 214.962758 506.945505 
" clip-path="url(#p588523fd74)" style="fill: none; stroke: #b0b0b0; stroke-opacity: 0.7; stroke-width: 0.3; stroke-linecap: square"/>
     </g>
     <g id="line2d_35">
      <g>
       <use xlink:href="#m2e38e80dac" x="214.962758" y="592.237813" style="stroke: #000000; stroke-width: 0.8"/>
      </g>
     </g>
     <g id="text_26">
      <!-- 10 -->
      <g transform="translate(208.600258 606.83625) scale(0.1 -0.1)">
       <use xlink:href="#DejaVuSans-31"/>
       <use xlink:href="#DejaVuSans-30" transform="translate(63.623047 0)"/>
      </g>
     </g>
    </g>
    <g id="xtick_13">
     <g id="line2d_36">
      <path d="M 264.017703 592.237813 
L 264.017703 506.945505 
" clip-path="url(#p588523fd74)" style="fill: none; stroke: #b0b0b0; stroke-opacity: 0.7; stroke-width: 0.3; stroke-linecap: square"/>
     </g>
     <g id="line2d_37">
      <g>
       <use xlink:href="#m2e38e80dac" x="264.017703" y="592.237813" style="stroke: #000000; stroke-width: 0.8"/>
      </g>
     </g>
     <g id="text_27">
      <!-- 20 -->
      <g transform="translate(257.655203 606.83625) scale(0.1 -0.1)">
       <use xlink:href="#DejaVuSans-32"/>
       <use xlink:href="#DejaVuSans-30" transform="translate(63.623047 0)"/>
      </g>
     </g>
    </g>
    <g id="xtick_14">
     <g id="line2d_38">
      <path d="M 313.072648 592.237813 
L 313.072648 506.945505 
" clip-path="url(#p588523fd74)" style="fill: none; stroke: #b0b0b0; stroke-opacity: 0.7; stroke-width: 0.3; stroke-linecap: square"/>
     </g>
     <g id="line2d_39">
      <g>
       <use xlink:href="#m2e38e80dac" x="313.072648" y="592.237813" style="stroke: #000000; stroke-width: 0.8"/>
      </g>
     </g>
     <g id="text_28">
      <!-- 30 -->
      <g transform="translate(306.710148 606.83625) scale(0.1 -0.1)">
       <use xlink:href="#DejaVuSans-33"/>
       <use xlink:href="#DejaVuSans-30" transform="translate(63.623047 0)"/>
      </g>
     </g>
    </g>
    <g id="xtick_15">
     <g id="line2d_40">
      <path d="M 362.127593 592.237813 
L 362.127593 506.945505 
" clip-path="url(#p588523fd74)" style="fill: none; stroke: #b0b0b0; stroke-opacity: 0.7; stroke-width: 0.3; stroke-linecap: square"/>
     </g>
     <g id="line2d_41">
      <g>
       <use xlink:href="#m2e38e80dac" x="362.127593" y="592.237813" style="stroke: #000000; stroke-width: 0.8"/>
      </g>
     </g>
     <g id="text_29">
      <!-- 40 -->
      <g transform="translate(355.765093 606.83625) scale(0.1 -0.1)">
       <use xlink:href="#DejaVuSans-34"/>
       <use xlink:href="#DejaVuSans-30" transform="translate(63.623047 0)"/>
      </g>
     </g>
    </g>
    <g id="text_30">
     <!-- Number of datasets -->
     <g transform="translate(217.997187 622.034063) scale(0.12 -0.12)">
      <use xlink:href="#DejaVuSans-4e"/>
      <use xlink:href="#DejaVuSans-75" transform="translate(74.804688 0)"/>
      <use xlink:href="#DejaVuSans-6d" transform="translate(138.183594 0)"/>
      <use xlink:href="#DejaVuSans-62" transform="translate(235.595703 0)"/>
      <use xlink:href="#DejaVuSans-65" transform="translate(299.072266 0)"/>
      <use xlink:href="#DejaVuSans-72" transform="translate(360.595703 0)"/>
      <use xlink:href="#DejaVuSans-20" transform="translate(401.708984 0)"/>
      <use xlink:href="#DejaVuSans-6f" transform="translate(433.496094 0)"/>
      <use xlink:href="#DejaVuSans-66" transform="translate(494.677734 0)"/>
      <use xlink:href="#DejaVuSans-20" transform="translate(529.882812 0)"/>
      <use xlink:href="#DejaVuSans-64" transform="translate(561.669922 0)"/>
      <use xlink:href="#DejaVuSans-61" transform="translate(625.146484 0)"/>
      <use xlink:href="#DejaVuSans-74" transform="translate(686.425781 0)"/>
      <use xlink:href="#DejaVuSans-61" transform="translate(725.634766 0)"/>
      <use xlink:href="#DejaVuSans-73" transform="translate(786.914062 0)"/>
      <use xlink:href="#DejaVuSans-65" transform="translate(839.013672 0)"/>
      <use xlink:href="#DejaVuSans-74" transform="translate(900.537109 0)"/>
      <use xlink:href="#DejaVuSans-73" transform="translate(939.746094 0)"/>
     </g>
    </g>
   </g>
   <g id="matplotlib.axis_6">
    <g id="ytick_12">
     <g id="line2d_42">
      <g>
       <use xlink:href="#mae17ce026f" x="165.907813" y="581.899351" style="stroke: #000000; stroke-width: 0.8"/>
      </g>
     </g>
     <g id="text_31">
      <!-- Not applicable to dataset type -->
      <g transform="translate(7.2 585.69857) scale(0.1 -0.1)">
       <use xlink:href="#DejaVuSans-4e"/>
       <use xlink:href="#DejaVuSans-6f" transform="translate(74.804688 0)"/>
       <use xlink:href="#DejaVuSans-74" transform="translate(135.986328 0)"/>
       <use xlink:href="#DejaVuSans-20" transform="translate(175.195312 0)"/>
       <use xlink:href="#DejaVuSans-61" transform="translate(206.982422 0)"/>
       <use xlink:href="#DejaVuSans-70" transform="translate(268.261719 0)"/>
       <use xlink:href="#DejaVuSans-70" transform="translate(331.738281 0)"/>
       <use xlink:href="#DejaVuSans-6c" transform="translate(395.214844 0)"/>
       <use xlink:href="#DejaVuSans-69" transform="translate(422.998047 0)"/>
       <use xlink:href="#DejaVuSans-63" transform="translate(450.78125 0)"/>
       <use xlink:href="#DejaVuSans-61" transform="translate(505.761719 0)"/>
       <use xlink:href="#DejaVuSans-62" transform="translate(567.041016 0)"/>
       <use xlink:href="#DejaVuSans-6c" transform="translate(630.517578 0)"/>
       <use xlink:href="#DejaVuSans-65" transform="translate(658.300781 0)"/>
       <use xlink:href="#DejaVuSans-20" transform="translate(719.824219 0)"/>
       <use xlink:href="#DejaVuSans-74" transform="translate(751.611328 0)"/>
       <use xlink:href="#DejaVuSans-6f" transform="translate(790.820312 0)"/>
       <use xlink:href="#DejaVuSans-20" transform="translate(852.001953 0)"/>
       <use xlink:href="#DejaVuSans-64" transform="translate(883.789062 0)"/>
       <use xlink:href="#DejaVuSans-61" transform="translate(947.265625 0)"/>
       <use xlink:href="#DejaVuSans-74" transform="translate(1008.544922 0)"/>
       <use xlink:href="#DejaVuSans-61" transform="translate(1047.753906 0)"/>
       <use xlink:href="#DejaVuSans-73" transform="translate(1109.033203 0)"/>
       <use xlink:href="#DejaVuSans-65" transform="translate(1161.132812 0)"/>
       <use xlink:href="#DejaVuSans-74" transform="translate(1222.65625 0)"/>
       <use xlink:href="#DejaVuSans-20" transform="translate(1261.865234 0)"/>
       <use xlink:href="#DejaVuSans-74" transform="translate(1293.652344 0)"/>
       <use xlink:href="#DejaVuSans-79" transform="translate(1332.861328 0)"/>
       <use xlink:href="#DejaVuSans-70" transform="translate(1392.041016 0)"/>
       <use xlink:href="#DejaVuSans-65" transform="translate(1455.517578 0)"/>
      </g>
     </g>
    </g>
    <g id="ytick_13">
     <g id="line2d_43">
      <g>
       <use xlink:href="#mae17ce026f" x="165.907813" y="560.360889" style="stroke: #000000; stroke-width: 0.8"/>
      </g>
     </g>
     <g id="text_32">
      <!-- Responder type not specified -->
      <g transform="translate(12.590625 564.160108) scale(0.1 -0.1)">
       <defs>
        <path id="DejaVuSans-52" d="M 2841 2188 
Q 3044 2119 3236 1894 
Q 3428 1669 3622 1275 
L 4263 0 
L 3584 0 
L 2988 1197 
Q 2756 1666 2539 1819 
Q 2322 1972 1947 1972 
L 1259 1972 
L 1259 0 
L 628 0 
L 628 4666 
L 2053 4666 
Q 2853 4666 3247 4331 
Q 3641 3997 3641 3322 
Q 3641 2881 3436 2590 
Q 3231 2300 2841 2188 
z
M 1259 4147 
L 1259 2491 
L 2053 2491 
Q 2509 2491 2742 2702 
Q 2975 2913 2975 3322 
Q 2975 3731 2742 3939 
Q 2509 4147 2053 4147 
L 1259 4147 
z
" transform="scale(0.015625)"/>
       </defs>
       <use xlink:href="#DejaVuSans-52"/>
       <use xlink:href="#DejaVuSans-65" transform="translate(64.982422 0)"/>
       <use xlink:href="#DejaVuSans-73" transform="translate(126.505859 0)"/>
       <use xlink:href="#DejaVuSans-70" transform="translate(178.605469 0)"/>
       <use xlink:href="#DejaVuSans-6f" transform="translate(242.082031 0)"/>
       <use xlink:href="#DejaVuSans-6e" transform="translate(303.263672 0)"/>
       <use xlink:href="#DejaVuSans-64" transform="translate(366.642578 0)"/>
       <use xlink:href="#DejaVuSans-65" transform="translate(430.119141 0)"/>
       <use xlink:href="#DejaVuSans-72" transform="translate(491.642578 0)"/>
       <use xlink:href="#DejaVuSans-20" transform="translate(532.755859 0)"/>
       <use xlink:href="#DejaVuSans-74" transform="translate(564.542969 0)"/>
       <use xlink:href="#DejaVuSans-79" transform="translate(603.751953 0)"/>
       <use xlink:href="#DejaVuSans-70" transform="translate(662.931641 0)"/>
       <use xlink:href="#DejaVuSans-65" transform="translate(726.408203 0)"/>
       <use xlink:href="#DejaVuSans-20" transform="translate(787.931641 0)"/>
       <use xlink:href="#DejaVuSans-6e" transform="translate(819.71875 0)"/>
       <use xlink:href="#DejaVuSans-6f" transform="translate(883.097656 0)"/>
       <use xlink:href="#DejaVuSans-74" transform="translate(944.279297 0)"/>
       <use xlink:href="#DejaVuSans-20" transform="translate(983.488281 0)"/>
       <use xlink:href="#DejaVuSans-73" transform="translate(1015.275391 0)"/>
       <use xlink:href="#DejaVuSans-70" transform="translate(1067.375 0)"/>
       <use xlink:href="#DejaVuSans-65" transform="translate(1130.851562 0)"/>
       <use xlink:href="#DejaVuSans-63" transform="translate(1192.375 0)"/>
       <use xlink:href="#DejaVuSans-69" transform="translate(1247.355469 0)"/>
       <use xlink:href="#DejaVuSans-66" transform="translate(1275.138672 0)"/>
       <use xlink:href="#DejaVuSans-69" transform="translate(1310.34375 0)"/>
       <use xlink:href="#DejaVuSans-65" transform="translate(1338.126953 0)"/>
       <use xlink:href="#DejaVuSans-64" transform="translate(1399.650391 0)"/>
      </g>
     </g>
    </g>
    <g id="ytick_14">
     <g id="line2d_44">
      <g>
       <use xlink:href="#mae17ce026f" x="165.907813" y="538.822428" style="stroke: #000000; stroke-width: 0.8"/>
      </g>
     </g>
     <g id="text_33">
      <!-- Lay people -->
      <g transform="translate(104.210938 542.621647) scale(0.1 -0.1)">
       <defs>
        <path id="DejaVuSans-4c" d="M 628 4666 
L 1259 4666 
L 1259 531 
L 3531 531 
L 3531 0 
L 628 0 
L 628 4666 
z
" transform="scale(0.015625)"/>
       </defs>
       <use xlink:href="#DejaVuSans-4c"/>
       <use xlink:href="#DejaVuSans-61" transform="translate(55.712891 0)"/>
       <use xlink:href="#DejaVuSans-79" transform="translate(116.992188 0)"/>
       <use xlink:href="#DejaVuSans-20" transform="translate(176.171875 0)"/>
       <use xlink:href="#DejaVuSans-70" transform="translate(207.958984 0)"/>
       <use xlink:href="#DejaVuSans-65" transform="translate(271.435547 0)"/>
       <use xlink:href="#DejaVuSans-6f" transform="translate(332.958984 0)"/>
       <use xlink:href="#DejaVuSans-70" transform="translate(394.140625 0)"/>
       <use xlink:href="#DejaVuSans-6c" transform="translate(457.617188 0)"/>
       <use xlink:href="#DejaVuSans-65" transform="translate(485.400391 0)"/>
      </g>
     </g>
    </g>
    <g id="ytick_15">
     <g id="line2d_45">
      <g>
       <use xlink:href="#mae17ce026f" x="165.907813" y="517.283966" style="stroke: #000000; stroke-width: 0.8"/>
      </g>
     </g>
     <g id="text_34">
      <!-- Trained professionals -->
      <g transform="translate(53.445312 521.083185) scale(0.1 -0.1)">
       <use xlink:href="#DejaVuSans-54"/>
       <use xlink:href="#DejaVuSans-72" transform="translate(46.333984 0)"/>
       <use xlink:href="#DejaVuSans-61" transform="translate(87.447266 0)"/>
       <use xlink:href="#DejaVuSans-69" transform="translate(148.726562 0)"/>
       <use xlink:href="#DejaVuSans-6e" transform="translate(176.509766 0)"/>
       <use xlink:href="#DejaVuSans-65" transform="translate(239.888672 0)"/>
       <use xlink:href="#DejaVuSans-64" transform="translate(301.412109 0)"/>
       <use xlink:href="#DejaVuSans-20" transform="translate(364.888672 0)"/>
       <use xlink:href="#DejaVuSans-70" transform="translate(396.675781 0)"/>
       <use xlink:href="#DejaVuSans-72" transform="translate(460.152344 0)"/>
       <use xlink:href="#DejaVuSans-6f" transform="translate(499.015625 0)"/>
       <use xlink:href="#DejaVuSans-66" transform="translate(560.197266 0)"/>
       <use xlink:href="#DejaVuSans-65" transform="translate(595.402344 0)"/>
       <use xlink:href="#DejaVuSans-73" transform="translate(656.925781 0)"/>
       <use xlink:href="#DejaVuSans-73" transform="translate(709.025391 0)"/>
       <use xlink:href="#DejaVuSans-69" transform="translate(761.125 0)"/>
       <use xlink:href="#DejaVuSans-6f" transform="translate(788.908203 0)"/>
       <use xlink:href="#DejaVuSans-6e" transform="translate(850.089844 0)"/>
       <use xlink:href="#DejaVuSans-61" transform="translate(913.46875 0)"/>
       <use xlink:href="#DejaVuSans-6c" transform="translate(974.748047 0)"/>
       <use xlink:href="#DejaVuSans-73" transform="translate(1002.53125 0)"/>
      </g>
     </g>
    </g>
   </g>
   <g id="patch_24">
    <path d="M 165.907813 592.237813 
L 165.907813 506.945505 
" style="fill: none; stroke: #000000; stroke-width: 0.8; stroke-linejoin: miter; stroke-linecap: square"/>
   </g>
   <g id="patch_25">
    <path d="M 165.907813 592.237813 
L 389.107813 592.237813 
" style="fill: none; stroke: #000000; stroke-width: 0.8; stroke-linejoin: miter; stroke-linecap: square"/>
   </g>
   <g id="text_35">
    <!-- 35 (39%) -->
    <g transform="translate(341.033966 585.210601) scale(0.12 -0.12)">
     <use xlink:href="#DejaVuSans-33"/>
     <use xlink:href="#DejaVuSans-35" transform="translate(63.623047 0)"/>
     <use xlink:href="#DejaVuSans-20" transform="translate(127.246094 0)"/>
     <use xlink:href="#DejaVuSans-28" transform="translate(159.033203 0)"/>
     <use xlink:href="#DejaVuSans-33" transform="translate(198.046875 0)"/>
     <use xlink:href="#DejaVuSans-39" transform="translate(261.669922 0)"/>
     <use xlink:href="#DejaVuSans-25" transform="translate(325.292969 0)"/>
     <use xlink:href="#DejaVuSans-29" transform="translate(420.3125 0)"/>
    </g>
   </g>
   <g id="text_36">
    <!-- 30 (33%) -->
    <g transform="translate(316.506494 563.672139) scale(0.12 -0.12)">
     <use xlink:href="#DejaVuSans-33"/>
     <use xlink:href="#DejaVuSans-30" transform="translate(63.623047 0)"/>
     <use xlink:href="#DejaVuSans-20" transform="translate(127.246094 0)"/>
     <use xlink:href="#DejaVuSans-28" transform="translate(159.033203 0)"/>
     <use xlink:href="#DejaVuSans-33" transform="translate(198.046875 0)"/>
     <use xlink:href="#DejaVuSans-33" transform="translate(261.669922 0)"/>
     <use xlink:href="#DejaVuSans-25" transform="translate(325.292969 0)"/>
     <use xlink:href="#DejaVuSans-29" transform="translate(420.3125 0)"/>
    </g>
   </g>
   <g id="text_37">
    <!-- 9 (10%) -->
    <g transform="translate(213.491109 542.133678) scale(0.12 -0.12)">
     <use xlink:href="#DejaVuSans-39"/>
     <use xlink:href="#DejaVuSans-20" transform="translate(63.623047 0)"/>
     <use xlink:href="#DejaVuSans-28" transform="translate(95.410156 0)"/>
     <use xlink:href="#DejaVuSans-31" transform="translate(134.423828 0)"/>
     <use xlink:href="#DejaVuSans-30" transform="translate(198.046875 0)"/>
     <use xlink:href="#DejaVuSans-25" transform="translate(261.669922 0)"/>
     <use xlink:href="#DejaVuSans-29" transform="translate(356.689453 0)"/>
    </g>
   </g>
   <g id="text_38">
    <!-- 16 (18%) -->
    <g transform="translate(247.829571 520.595216) scale(0.12 -0.12)">
     <use xlink:href="#DejaVuSans-31"/>
     <use xlink:href="#DejaVuSans-36" transform="translate(63.623047 0)"/>
     <use xlink:href="#DejaVuSans-20" transform="translate(127.246094 0)"/>
     <use xlink:href="#DejaVuSans-28" transform="translate(159.033203 0)"/>
     <use xlink:href="#DejaVuSans-31" transform="translate(198.046875 0)"/>
     <use xlink:href="#DejaVuSans-38" transform="translate(261.669922 0)"/>
     <use xlink:href="#DejaVuSans-25" transform="translate(325.292969 0)"/>
     <use xlink:href="#DejaVuSans-29" transform="translate(420.3125 0)"/>
    </g>
   </g>
   <g id="text_39">
    <!-- Types of responders in the datasets -->
    <g transform="translate(152.821406 486.945505) scale(0.14 -0.14)">
     <use xlink:href="#DejaVuSans-54"/>
     <use xlink:href="#DejaVuSans-79" transform="translate(45.458984 0)"/>
     <use xlink:href="#DejaVuSans-70" transform="translate(104.638672 0)"/>
     <use xlink:href="#DejaVuSans-65" transform="translate(168.115234 0)"/>
     <use xlink:href="#DejaVuSans-73" transform="translate(229.638672 0)"/>
     <use xlink:href="#DejaVuSans-20" transform="translate(281.738281 0)"/>
     <use xlink:href="#DejaVuSans-6f" transform="translate(313.525391 0)"/>
     <use xlink:href="#DejaVuSans-66" transform="translate(374.707031 0)"/>
     <use xlink:href="#DejaVuSans-20" transform="translate(409.912109 0)"/>
     <use xlink:href="#DejaVuSans-72" transform="translate(441.699219 0)"/>
     <use xlink:href="#DejaVuSans-65" transform="translate(480.5625 0)"/>
     <use xlink:href="#DejaVuSans-73" transform="translate(542.085938 0)"/>
     <use xlink:href="#DejaVuSans-70" transform="translate(594.185547 0)"/>
     <use xlink:href="#DejaVuSans-6f" transform="translate(657.662109 0)"/>
     <use xlink:href="#DejaVuSans-6e" transform="translate(718.84375 0)"/>
     <use xlink:href="#DejaVuSans-64" transform="translate(782.222656 0)"/>
     <use xlink:href="#DejaVuSans-65" transform="translate(845.699219 0)"/>
     <use xlink:href="#DejaVuSans-72" transform="translate(907.222656 0)"/>
     <use xlink:href="#DejaVuSans-73" transform="translate(948.335938 0)"/>
     <use xlink:href="#DejaVuSans-20" transform="translate(1000.435547 0)"/>
     <use xlink:href="#DejaVuSans-69" transform="translate(1032.222656 0)"/>
     <use xlink:href="#DejaVuSans-6e" transform="translate(1060.005859 0)"/>
     <use xlink:href="#DejaVuSans-20" transform="translate(1123.384766 0)"/>
     <use xlink:href="#DejaVuSans-74" transform="translate(1155.171875 0)"/>
     <use xlink:href="#DejaVuSans-68" transform="translate(1194.380859 0)"/>
     <use xlink:href="#DejaVuSans-65" transform="translate(1257.759766 0)"/>
     <use xlink:href="#DejaVuSans-20" transform="translate(1319.283203 0)"/>
     <use xlink:href="#DejaVuSans-64" transform="translate(1351.070312 0)"/>
     <use xlink:href="#DejaVuSans-61" transform="translate(1414.546875 0)"/>
     <use xlink:href="#DejaVuSans-74" transform="translate(1475.826172 0)"/>
     <use xlink:href="#DejaVuSans-61" transform="translate(1515.035156 0)"/>
     <use xlink:href="#DejaVuSans-73" transform="translate(1576.314453 0)"/>
     <use xlink:href="#DejaVuSans-65" transform="translate(1628.414062 0)"/>
     <use xlink:href="#DejaVuSans-74" transform="translate(1689.9375 0)"/>
     <use xlink:href="#DejaVuSans-73" transform="translate(1729.146484 0)"/>
    </g>
   </g>
  </g>
 </g>
 <defs>
  <clipPath id="p446ab4b565">
   <rect x="165.907813" y="37.837812" width="223.2" height="255.876923"/>
  </clipPath>
  <clipPath id="p1f3e3b155c">
   <rect x="165.907813" y="357.683966" width="223.2" height="85.292308"/>
  </clipPath>
  <clipPath id="p588523fd74">
   <rect x="165.907813" y="506.945505" width="223.2" height="85.292308"/>
  </clipPath>
 </defs>
</svg>
