<?xml version="1.0" encoding="utf-8" standalone="no"?>
<!DOCTYPE svg PUBLIC "-//W3C//DTD SVG 1.1//EN"
  "http://www.w3.org/Graphics/SVG/1.1/DTD/svg11.dtd">
<svg xmlns:xlink="http://www.w3.org/1999/xlink" width="447.273281pt" height="424.414437pt" viewBox="0 0 447.273281 424.414437" xmlns="http://www.w3.org/2000/svg" version="1.1">
 <metadata>
  <rdf:RDF xmlns:dc="http://purl.org/dc/elements/1.1/" xmlns:cc="http://creativecommons.org/ns#" xmlns:rdf="http://www.w3.org/1999/02/22-rdf-syntax-ns#">
   <cc:Work>
    <dc:type rdf:resource="http://purl.org/dc/dcmitype/StillImage"/>
    <dc:date>2025-12-09T01:04:06.042685</dc:date>
    <dc:format>image/svg+xml</dc:format>
    <dc:creator>
     <cc:Agent>
      <dc:title>Matplotlib v3.10.6, https://matplotlib.org/</dc:title>
     </cc:Agent>
    </dc:creator>
   </cc:Work>
  </rdf:RDF>
 </metadata>
 <defs>
  <style type="text/css">*{stroke-linejoin: round; stroke-linecap: butt}</style>
 </defs>
 <g id="figure_1">
  <g id="patch_1">
   <path d="M 0 424.414437 
L 447.273281 424.414437 
L 447.273281 0 
L 0 0 
z
" style="fill: #ffffff"/>
  </g>
  <g id="axes_1">
   <g id="patch_2">
    <path d="M 203.623437 383.95475 
L 408.823438 383.95475 
L 408.823438 53.51475 
L 203.623437 53.51475 
z
" style="fill: #ffffff"/>
   </g>
   <g id="patch_3">
    <path d="M 203.623437 334.004517 
L 238.700361 334.004517 
L 238.700361 313.046378 
L 203.623437 313.046378 
z
" clip-path="url(#p50c7402449)" style="fill: #003a7d; opacity: 0.8"/>
   </g>
   <g id="patch_4">
    <path d="M 203.623437 299.074285 
L 238.700361 299.074285 
L 238.700361 278.116145 
L 203.623437 278.116145 
z
" clip-path="url(#p50c7402449)" style="fill: #003a7d; opacity: 0.8"/>
   </g>
   <g id="patch_5">
    <path d="M 203.623437 264.144052 
L 238.700361 264.144052 
L 238.700361 243.185913 
L 203.623437 243.185913 
z
" clip-path="url(#p50c7402449)" style="fill: #003a7d; opacity: 0.8"/>
   </g>
   <g id="patch_6">
    <path d="M 203.623437 229.21382 
L 256.238822 229.21382 
L 256.238822 208.25568 
L 203.623437 208.25568 
z
" clip-path="url(#p50c7402449)" style="fill: #003a7d; opacity: 0.8"/>
   </g>
   <g id="patch_7">
    <path d="M 203.623437 194.283587 
L 291.315745 194.283587 
L 291.315745 173.325448 
L 203.623437 173.325448 
z
" clip-path="url(#p50c7402449)" style="fill: #003a7d; opacity: 0.8"/>
   </g>
   <g id="patch_8">
    <path d="M 203.623437 159.353355 
L 308.854207 159.353355 
L 308.854207 138.395215 
L 203.623437 138.395215 
z
" clip-path="url(#p50c7402449)" style="fill: #003a7d; opacity: 0.8"/>
   </g>
   <g id="patch_9">
    <path d="M 203.623437 124.423122 
L 326.392668 124.423122 
L 326.392668 103.464983 
L 203.623437 103.464983 
z
" clip-path="url(#p50c7402449)" style="fill: #003a7d; opacity: 0.8"/>
   </g>
   <g id="patch_10">
    <path d="M 203.623437 89.49289 
L 361.469591 89.49289 
L 361.469591 68.53475 
L 203.623437 68.53475 
z
" clip-path="url(#p50c7402449)" style="fill: #003a7d; opacity: 0.8"/>
   </g>
   <g id="matplotlib.axis_1">
    <g id="xtick_1">
     <g id="line2d_1">
      <path d="M 203.623437 383.95475 
L 203.623437 53.51475 
" clip-path="url(#p50c7402449)" style="fill: none; stroke: #b0b0b0; stroke-opacity: 0.7; stroke-width: 0.3; stroke-linecap: square"/>
     </g>
     <g id="line2d_2">
      <defs>
       <path id="mbe8b9dde92" d="M 0 0 
L 0 3.5 
" style="stroke: #000000; stroke-width: 0.8"/>
      </defs>
      <g>
       <use xlink:href="#mbe8b9dde92" x="203.623437" y="383.95475" style="stroke: #000000; stroke-width: 0.8"/>
      </g>
     </g>
     <g id="text_1">
      <!-- 0 -->
      <g transform="translate(200.442187 398.553187) scale(0.1 -0.1)">
       <defs>
        <path id="DejaVuSans-30" d="M 2034 4250 
Q 1547 4250 1301 3770 
Q 1056 3291 1056 2328 
Q 1056 1369 1301 889 
Q 1547 409 2034 409 
Q 2525 409 2770 889 
Q 3016 1369 3016 2328 
Q 3016 3291 2770 3770 
Q 2525 4250 2034 4250 
z
M 2034 4750 
Q 2819 4750 3233 4129 
Q 3647 3509 3647 2328 
Q 3647 1150 3233 529 
Q 2819 -91 2034 -91 
Q 1250 -91 836 529 
Q 422 1150 422 2328 
Q 422 3509 836 4129 
Q 1250 4750 2034 4750 
z
" transform="scale(0.015625)"/>
       </defs>
       <use xlink:href="#DejaVuSans-30"/>
      </g>
     </g>
    </g>
    <g id="xtick_2">
     <g id="line2d_3">
      <path d="M 238.700361 383.95475 
L 238.700361 53.51475 
" clip-path="url(#p50c7402449)" style="fill: none; stroke: #b0b0b0; stroke-opacity: 0.7; stroke-width: 0.3; stroke-linecap: square"/>
     </g>
     <g id="line2d_4">
      <g>
       <use xlink:href="#mbe8b9dde92" x="238.700361" y="383.95475" style="stroke: #000000; stroke-width: 0.8"/>
      </g>
     </g>
     <g id="text_2">
      <!-- 2 -->
      <g transform="translate(235.519111 398.553187) scale(0.1 -0.1)">
       <defs>
        <path id="DejaVuSans-32" d="M 1228 531 
L 3431 531 
L 3431 0 
L 469 0 
L 469 531 
Q 828 903 1448 1529 
Q 2069 2156 2228 2338 
Q 2531 2678 2651 2914 
Q 2772 3150 2772 3378 
Q 2772 3750 2511 3984 
Q 2250 4219 1831 4219 
Q 1534 4219 1204 4116 
Q 875 4013 500 3803 
L 500 4441 
Q 881 4594 1212 4672 
Q 1544 4750 1819 4750 
Q 2544 4750 2975 4387 
Q 3406 4025 3406 3419 
Q 3406 3131 3298 2873 
Q 3191 2616 2906 2266 
Q 2828 2175 2409 1742 
Q 1991 1309 1228 531 
z
" transform="scale(0.015625)"/>
       </defs>
       <use xlink:href="#DejaVuSans-32"/>
      </g>
     </g>
    </g>
    <g id="xtick_3">
     <g id="line2d_5">
      <path d="M 273.777284 383.95475 
L 273.777284 53.51475 
" clip-path="url(#p50c7402449)" style="fill: none; stroke: #b0b0b0; stroke-opacity: 0.7; stroke-width: 0.3; stroke-linecap: square"/>
     </g>
     <g id="line2d_6">
      <g>
       <use xlink:href="#mbe8b9dde92" x="273.777284" y="383.95475" style="stroke: #000000; stroke-width: 0.8"/>
      </g>
     </g>
     <g id="text_3">
      <!-- 4 -->
      <g transform="translate(270.596034 398.553187) scale(0.1 -0.1)">
       <defs>
        <path id="DejaVuSans-34" d="M 2419 4116 
L 825 1625 
L 2419 1625 
L 2419 4116 
z
M 2253 4666 
L 3047 4666 
L 3047 1625 
L 3713 1625 
L 3713 1100 
L 3047 1100 
L 3047 0 
L 2419 0 
L 2419 1100 
L 313 1100 
L 313 1709 
L 2253 4666 
z
" transform="scale(0.015625)"/>
       </defs>
       <use xlink:href="#DejaVuSans-34"/>
      </g>
     </g>
    </g>
    <g id="xtick_4">
     <g id="line2d_7">
      <path d="M 308.854207 383.95475 
L 308.854207 53.51475 
" clip-path="url(#p50c7402449)" style="fill: none; stroke: #b0b0b0; stroke-opacity: 0.7; stroke-width: 0.3; stroke-linecap: square"/>
     </g>
     <g id="line2d_8">
      <g>
       <use xlink:href="#mbe8b9dde92" x="308.854207" y="383.95475" style="stroke: #000000; stroke-width: 0.8"/>
      </g>
     </g>
     <g id="text_4">
      <!-- 6 -->
      <g transform="translate(305.672957 398.553187) scale(0.1 -0.1)">
       <defs>
        <path id="DejaVuSans-36" d="M 2113 2584 
Q 1688 2584 1439 2293 
Q 1191 2003 1191 1497 
Q 1191 994 1439 701 
Q 1688 409 2113 409 
Q 2538 409 2786 701 
Q 3034 994 3034 1497 
Q 3034 2003 2786 2293 
Q 2538 2584 2113 2584 
z
M 3366 4563 
L 3366 3988 
Q 3128 4100 2886 4159 
Q 2644 4219 2406 4219 
Q 1781 4219 1451 3797 
Q 1122 3375 1075 2522 
Q 1259 2794 1537 2939 
Q 1816 3084 2150 3084 
Q 2853 3084 3261 2657 
Q 3669 2231 3669 1497 
Q 3669 778 3244 343 
Q 2819 -91 2113 -91 
Q 1303 -91 875 529 
Q 447 1150 447 2328 
Q 447 3434 972 4092 
Q 1497 4750 2381 4750 
Q 2619 4750 2861 4703 
Q 3103 4656 3366 4563 
z
" transform="scale(0.015625)"/>
       </defs>
       <use xlink:href="#DejaVuSans-36"/>
      </g>
     </g>
    </g>
    <g id="xtick_5">
     <g id="line2d_9">
      <path d="M 343.93113 383.95475 
L 343.93113 53.51475 
" clip-path="url(#p50c7402449)" style="fill: none; stroke: #b0b0b0; stroke-opacity: 0.7; stroke-width: 0.3; stroke-linecap: square"/>
     </g>
     <g id="line2d_10">
      <g>
       <use xlink:href="#mbe8b9dde92" x="343.93113" y="383.95475" style="stroke: #000000; stroke-width: 0.8"/>
      </g>
     </g>
     <g id="text_5">
      <!-- 8 -->
      <g transform="translate(340.74988 398.553187) scale(0.1 -0.1)">
       <defs>
        <path id="DejaVuSans-38" d="M 2034 2216 
Q 1584 2216 1326 1975 
Q 1069 1734 1069 1313 
Q 1069 891 1326 650 
Q 1584 409 2034 409 
Q 2484 409 2743 651 
Q 3003 894 3003 1313 
Q 3003 1734 2745 1975 
Q 2488 2216 2034 2216 
z
M 1403 2484 
Q 997 2584 770 2862 
Q 544 3141 544 3541 
Q 544 4100 942 4425 
Q 1341 4750 2034 4750 
Q 2731 4750 3128 4425 
Q 3525 4100 3525 3541 
Q 3525 3141 3298 2862 
Q 3072 2584 2669 2484 
Q 3125 2378 3379 2068 
Q 3634 1759 3634 1313 
Q 3634 634 3220 271 
Q 2806 -91 2034 -91 
Q 1263 -91 848 271 
Q 434 634 434 1313 
Q 434 1759 690 2068 
Q 947 2378 1403 2484 
z
M 1172 3481 
Q 1172 3119 1398 2916 
Q 1625 2713 2034 2713 
Q 2441 2713 2670 2916 
Q 2900 3119 2900 3481 
Q 2900 3844 2670 4047 
Q 2441 4250 2034 4250 
Q 1625 4250 1398 4047 
Q 1172 3844 1172 3481 
z
" transform="scale(0.015625)"/>
       </defs>
       <use xlink:href="#DejaVuSans-38"/>
      </g>
     </g>
    </g>
    <g id="xtick_6">
     <g id="line2d_11">
      <path d="M 379.008053 383.95475 
L 379.008053 53.51475 
" clip-path="url(#p50c7402449)" style="fill: none; stroke: #b0b0b0; stroke-opacity: 0.7; stroke-width: 0.3; stroke-linecap: square"/>
     </g>
     <g id="line2d_12">
      <g>
       <use xlink:href="#mbe8b9dde92" x="379.008053" y="383.95475" style="stroke: #000000; stroke-width: 0.8"/>
      </g>
     </g>
     <g id="text_6">
      <!-- 10 -->
      <g transform="translate(372.645553 398.553187) scale(0.1 -0.1)">
       <defs>
        <path id="DejaVuSans-31" d="M 794 531 
L 1825 531 
L 1825 4091 
L 703 3866 
L 703 4441 
L 1819 4666 
L 2450 4666 
L 2450 531 
L 3481 531 
L 3481 0 
L 794 0 
L 794 531 
z
" transform="scale(0.015625)"/>
       </defs>
       <use xlink:href="#DejaVuSans-31"/>
       <use xlink:href="#DejaVuSans-30" transform="translate(63.623047 0)"/>
      </g>
     </g>
    </g>
    <g id="text_7">
     <!-- Number of articles -->
     <g transform="translate(245.94 414.510844) scale(0.13 -0.13)">
      <defs>
       <path id="DejaVuSans-4e" d="M 628 4666 
L 1478 4666 
L 3547 763 
L 3547 4666 
L 4159 4666 
L 4159 0 
L 3309 0 
L 1241 3903 
L 1241 0 
L 628 0 
L 628 4666 
z
" transform="scale(0.015625)"/>
       <path id="DejaVuSans-75" d="M 544 1381 
L 544 3500 
L 1119 3500 
L 1119 1403 
Q 1119 906 1312 657 
Q 1506 409 1894 409 
Q 2359 409 2629 706 
Q 2900 1003 2900 1516 
L 2900 3500 
L 3475 3500 
L 3475 0 
L 2900 0 
L 2900 538 
Q 2691 219 2414 64 
Q 2138 -91 1772 -91 
Q 1169 -91 856 284 
Q 544 659 544 1381 
z
M 1991 3584 
L 1991 3584 
z
" transform="scale(0.015625)"/>
       <path id="DejaVuSans-6d" d="M 3328 2828 
Q 3544 3216 3844 3400 
Q 4144 3584 4550 3584 
Q 5097 3584 5394 3201 
Q 5691 2819 5691 2113 
L 5691 0 
L 5113 0 
L 5113 2094 
Q 5113 2597 4934 2840 
Q 4756 3084 4391 3084 
Q 3944 3084 3684 2787 
Q 3425 2491 3425 1978 
L 3425 0 
L 2847 0 
L 2847 2094 
Q 2847 2600 2669 2842 
Q 2491 3084 2119 3084 
Q 1678 3084 1418 2786 
Q 1159 2488 1159 1978 
L 1159 0 
L 581 0 
L 581 3500 
L 1159 3500 
L 1159 2956 
Q 1356 3278 1631 3431 
Q 1906 3584 2284 3584 
Q 2666 3584 2933 3390 
Q 3200 3197 3328 2828 
z
" transform="scale(0.015625)"/>
       <path id="DejaVuSans-62" d="M 3116 1747 
Q 3116 2381 2855 2742 
Q 2594 3103 2138 3103 
Q 1681 3103 1420 2742 
Q 1159 2381 1159 1747 
Q 1159 1113 1420 752 
Q 1681 391 2138 391 
Q 2594 391 2855 752 
Q 3116 1113 3116 1747 
z
M 1159 2969 
Q 1341 3281 1617 3432 
Q 1894 3584 2278 3584 
Q 2916 3584 3314 3078 
Q 3713 2572 3713 1747 
Q 3713 922 3314 415 
Q 2916 -91 2278 -91 
Q 1894 -91 1617 61 
Q 1341 213 1159 525 
L 1159 0 
L 581 0 
L 581 4863 
L 1159 4863 
L 1159 2969 
z
" transform="scale(0.015625)"/>
       <path id="DejaVuSans-65" d="M 3597 1894 
L 3597 1613 
L 953 1613 
Q 991 1019 1311 708 
Q 1631 397 2203 397 
Q 2534 397 2845 478 
Q 3156 559 3463 722 
L 3463 178 
Q 3153 47 2828 -22 
Q 2503 -91 2169 -91 
Q 1331 -91 842 396 
Q 353 884 353 1716 
Q 353 2575 817 3079 
Q 1281 3584 2069 3584 
Q 2775 3584 3186 3129 
Q 3597 2675 3597 1894 
z
M 3022 2063 
Q 3016 2534 2758 2815 
Q 2500 3097 2075 3097 
Q 1594 3097 1305 2825 
Q 1016 2553 972 2059 
L 3022 2063 
z
" transform="scale(0.015625)"/>
       <path id="DejaVuSans-72" d="M 2631 2963 
Q 2534 3019 2420 3045 
Q 2306 3072 2169 3072 
Q 1681 3072 1420 2755 
Q 1159 2438 1159 1844 
L 1159 0 
L 581 0 
L 581 3500 
L 1159 3500 
L 1159 2956 
Q 1341 3275 1631 3429 
Q 1922 3584 2338 3584 
Q 2397 3584 2469 3576 
Q 2541 3569 2628 3553 
L 2631 2963 
z
" transform="scale(0.015625)"/>
       <path id="DejaVuSans-20" transform="scale(0.015625)"/>
       <path id="DejaVuSans-6f" d="M 1959 3097 
Q 1497 3097 1228 2736 
Q 959 2375 959 1747 
Q 959 1119 1226 758 
Q 1494 397 1959 397 
Q 2419 397 2687 759 
Q 2956 1122 2956 1747 
Q 2956 2369 2687 2733 
Q 2419 3097 1959 3097 
z
M 1959 3584 
Q 2709 3584 3137 3096 
Q 3566 2609 3566 1747 
Q 3566 888 3137 398 
Q 2709 -91 1959 -91 
Q 1206 -91 779 398 
Q 353 888 353 1747 
Q 353 2609 779 3096 
Q 1206 3584 1959 3584 
z
" transform="scale(0.015625)"/>
       <path id="DejaVuSans-66" d="M 2375 4863 
L 2375 4384 
L 1825 4384 
Q 1516 4384 1395 4259 
Q 1275 4134 1275 3809 
L 1275 3500 
L 2222 3500 
L 2222 3053 
L 1275 3053 
L 1275 0 
L 697 0 
L 697 3053 
L 147 3053 
L 147 3500 
L 697 3500 
L 697 3744 
Q 697 4328 969 4595 
Q 1241 4863 1831 4863 
L 2375 4863 
z
" transform="scale(0.015625)"/>
       <path id="DejaVuSans-61" d="M 2194 1759 
Q 1497 1759 1228 1600 
Q 959 1441 959 1056 
Q 959 750 1161 570 
Q 1363 391 1709 391 
Q 2188 391 2477 730 
Q 2766 1069 2766 1631 
L 2766 1759 
L 2194 1759 
z
M 3341 1997 
L 3341 0 
L 2766 0 
L 2766 531 
Q 2569 213 2275 61 
Q 1981 -91 1556 -91 
Q 1019 -91 701 211 
Q 384 513 384 1019 
Q 384 1609 779 1909 
Q 1175 2209 1959 2209 
L 2766 2209 
L 2766 2266 
Q 2766 2663 2505 2880 
Q 2244 3097 1772 3097 
Q 1472 3097 1187 3025 
Q 903 2953 641 2809 
L 641 3341 
Q 956 3463 1253 3523 
Q 1550 3584 1831 3584 
Q 2591 3584 2966 3190 
Q 3341 2797 3341 1997 
z
" transform="scale(0.015625)"/>
       <path id="DejaVuSans-74" d="M 1172 4494 
L 1172 3500 
L 2356 3500 
L 2356 3053 
L 1172 3053 
L 1172 1153 
Q 1172 725 1289 603 
Q 1406 481 1766 481 
L 2356 481 
L 2356 0 
L 1766 0 
Q 1100 0 847 248 
Q 594 497 594 1153 
L 594 3053 
L 172 3053 
L 172 3500 
L 594 3500 
L 594 4494 
L 1172 4494 
z
" transform="scale(0.015625)"/>
       <path id="DejaVuSans-69" d="M 603 3500 
L 1178 3500 
L 1178 0 
L 603 0 
L 603 3500 
z
M 603 4863 
L 1178 4863 
L 1178 4134 
L 603 4134 
L 603 4863 
z
" transform="scale(0.015625)"/>
       <path id="DejaVuSans-63" d="M 3122 3366 
L 3122 2828 
Q 2878 2963 2633 3030 
Q 2388 3097 2138 3097 
Q 1578 3097 1268 2742 
Q 959 2388 959 1747 
Q 959 1106 1268 751 
Q 1578 397 2138 397 
Q 2388 397 2633 464 
Q 2878 531 3122 666 
L 3122 134 
Q 2881 22 2623 -34 
Q 2366 -91 2075 -91 
Q 1284 -91 818 406 
Q 353 903 353 1747 
Q 353 2603 823 3093 
Q 1294 3584 2113 3584 
Q 2378 3584 2631 3529 
Q 2884 3475 3122 3366 
z
" transform="scale(0.015625)"/>
       <path id="DejaVuSans-6c" d="M 603 4863 
L 1178 4863 
L 1178 0 
L 603 0 
L 603 4863 
z
" transform="scale(0.015625)"/>
       <path id="DejaVuSans-73" d="M 2834 3397 
L 2834 2853 
Q 2591 2978 2328 3040 
Q 2066 3103 1784 3103 
Q 1356 3103 1142 2972 
Q 928 2841 928 2578 
Q 928 2378 1081 2264 
Q 1234 2150 1697 2047 
L 1894 2003 
Q 2506 1872 2764 1633 
Q 3022 1394 3022 966 
Q 3022 478 2636 193 
Q 2250 -91 1575 -91 
Q 1294 -91 989 -36 
Q 684 19 347 128 
L 347 722 
Q 666 556 975 473 
Q 1284 391 1588 391 
Q 1994 391 2212 530 
Q 2431 669 2431 922 
Q 2431 1156 2273 1281 
Q 2116 1406 1581 1522 
L 1381 1569 
Q 847 1681 609 1914 
Q 372 2147 372 2553 
Q 372 3047 722 3315 
Q 1072 3584 1716 3584 
Q 2034 3584 2315 3537 
Q 2597 3491 2834 3397 
z
" transform="scale(0.015625)"/>
      </defs>
      <use xlink:href="#DejaVuSans-4e"/>
      <use xlink:href="#DejaVuSans-75" transform="translate(74.804688 0)"/>
      <use xlink:href="#DejaVuSans-6d" transform="translate(138.183594 0)"/>
      <use xlink:href="#DejaVuSans-62" transform="translate(235.595703 0)"/>
      <use xlink:href="#DejaVuSans-65" transform="translate(299.072266 0)"/>
      <use xlink:href="#DejaVuSans-72" transform="translate(360.595703 0)"/>
      <use xlink:href="#DejaVuSans-20" transform="translate(401.708984 0)"/>
      <use xlink:href="#DejaVuSans-6f" transform="translate(433.496094 0)"/>
      <use xlink:href="#DejaVuSans-66" transform="translate(494.677734 0)"/>
      <use xlink:href="#DejaVuSans-20" transform="translate(529.882812 0)"/>
      <use xlink:href="#DejaVuSans-61" transform="translate(561.669922 0)"/>
      <use xlink:href="#DejaVuSans-72" transform="translate(622.949219 0)"/>
      <use xlink:href="#DejaVuSans-74" transform="translate(664.0625 0)"/>
      <use xlink:href="#DejaVuSans-69" transform="translate(703.271484 0)"/>
      <use xlink:href="#DejaVuSans-63" transform="translate(731.054688 0)"/>
      <use xlink:href="#DejaVuSans-6c" transform="translate(786.035156 0)"/>
      <use xlink:href="#DejaVuSans-65" transform="translate(813.818359 0)"/>
      <use xlink:href="#DejaVuSans-73" transform="translate(875.341797 0)"/>
     </g>
    </g>
   </g>
   <g id="matplotlib.axis_2">
    <g id="ytick_1">
     <g id="line2d_13">
      <defs>
       <path id="m79484c94fd" d="M 0 0 
L -3.5 0 
" style="stroke: #000000; stroke-width: 0.8"/>
      </defs>
      <g>
       <use xlink:href="#m79484c94fd" x="203.623437" y="323.525448" style="stroke: #000000; stroke-width: 0.8"/>
      </g>
     </g>
     <g id="text_8">
      <!-- Facebook EmpatheticDialogues -->
      <g transform="translate(24.067813 327.704588) scale(0.11 -0.11)">
       <defs>
        <path id="DejaVuSans-46" d="M 628 4666 
L 3309 4666 
L 3309 4134 
L 1259 4134 
L 1259 2759 
L 3109 2759 
L 3109 2228 
L 1259 2228 
L 1259 0 
L 628 0 
L 628 4666 
z
" transform="scale(0.015625)"/>
        <path id="DejaVuSans-6b" d="M 581 4863 
L 1159 4863 
L 1159 1991 
L 2875 3500 
L 3609 3500 
L 1753 1863 
L 3688 0 
L 2938 0 
L 1159 1709 
L 1159 0 
L 581 0 
L 581 4863 
z
" transform="scale(0.015625)"/>
        <path id="DejaVuSans-45" d="M 628 4666 
L 3578 4666 
L 3578 4134 
L 1259 4134 
L 1259 2753 
L 3481 2753 
L 3481 2222 
L 1259 2222 
L 1259 531 
L 3634 531 
L 3634 0 
L 628 0 
L 628 4666 
z
" transform="scale(0.015625)"/>
        <path id="DejaVuSans-70" d="M 1159 525 
L 1159 -1331 
L 581 -1331 
L 581 3500 
L 1159 3500 
L 1159 2969 
Q 1341 3281 1617 3432 
Q 1894 3584 2278 3584 
Q 2916 3584 3314 3078 
Q 3713 2572 3713 1747 
Q 3713 922 3314 415 
Q 2916 -91 2278 -91 
Q 1894 -91 1617 61 
Q 1341 213 1159 525 
z
M 3116 1747 
Q 3116 2381 2855 2742 
Q 2594 3103 2138 3103 
Q 1681 3103 1420 2742 
Q 1159 2381 1159 1747 
Q 1159 1113 1420 752 
Q 1681 391 2138 391 
Q 2594 391 2855 752 
Q 3116 1113 3116 1747 
z
" transform="scale(0.015625)"/>
        <path id="DejaVuSans-68" d="M 3513 2113 
L 3513 0 
L 2938 0 
L 2938 2094 
Q 2938 2591 2744 2837 
Q 2550 3084 2163 3084 
Q 1697 3084 1428 2787 
Q 1159 2491 1159 1978 
L 1159 0 
L 581 0 
L 581 4863 
L 1159 4863 
L 1159 2956 
Q 1366 3272 1645 3428 
Q 1925 3584 2291 3584 
Q 2894 3584 3203 3211 
Q 3513 2838 3513 2113 
z
" transform="scale(0.015625)"/>
        <path id="DejaVuSans-44" d="M 1259 4147 
L 1259 519 
L 2022 519 
Q 2988 519 3436 956 
Q 3884 1394 3884 2338 
Q 3884 3275 3436 3711 
Q 2988 4147 2022 4147 
L 1259 4147 
z
M 628 4666 
L 1925 4666 
Q 3281 4666 3915 4102 
Q 4550 3538 4550 2338 
Q 4550 1131 3912 565 
Q 3275 0 1925 0 
L 628 0 
L 628 4666 
z
" transform="scale(0.015625)"/>
        <path id="DejaVuSans-67" d="M 2906 1791 
Q 2906 2416 2648 2759 
Q 2391 3103 1925 3103 
Q 1463 3103 1205 2759 
Q 947 2416 947 1791 
Q 947 1169 1205 825 
Q 1463 481 1925 481 
Q 2391 481 2648 825 
Q 2906 1169 2906 1791 
z
M 3481 434 
Q 3481 -459 3084 -895 
Q 2688 -1331 1869 -1331 
Q 1566 -1331 1297 -1286 
Q 1028 -1241 775 -1147 
L 775 -588 
Q 1028 -725 1275 -790 
Q 1522 -856 1778 -856 
Q 2344 -856 2625 -561 
Q 2906 -266 2906 331 
L 2906 616 
Q 2728 306 2450 153 
Q 2172 0 1784 0 
Q 1141 0 747 490 
Q 353 981 353 1791 
Q 353 2603 747 3093 
Q 1141 3584 1784 3584 
Q 2172 3584 2450 3431 
Q 2728 3278 2906 2969 
L 2906 3500 
L 3481 3500 
L 3481 434 
z
" transform="scale(0.015625)"/>
       </defs>
       <use xlink:href="#DejaVuSans-46"/>
       <use xlink:href="#DejaVuSans-61" transform="translate(48.394531 0)"/>
       <use xlink:href="#DejaVuSans-63" transform="translate(109.673828 0)"/>
       <use xlink:href="#DejaVuSans-65" transform="translate(164.654297 0)"/>
       <use xlink:href="#DejaVuSans-62" transform="translate(226.177734 0)"/>
       <use xlink:href="#DejaVuSans-6f" transform="translate(289.654297 0)"/>
       <use xlink:href="#DejaVuSans-6f" transform="translate(350.835938 0)"/>
       <use xlink:href="#DejaVuSans-6b" transform="translate(412.017578 0)"/>
       <use xlink:href="#DejaVuSans-20" transform="translate(469.927734 0)"/>
       <use xlink:href="#DejaVuSans-45" transform="translate(501.714844 0)"/>
       <use xlink:href="#DejaVuSans-6d" transform="translate(564.898438 0)"/>
       <use xlink:href="#DejaVuSans-70" transform="translate(662.310547 0)"/>
       <use xlink:href="#DejaVuSans-61" transform="translate(725.787109 0)"/>
       <use xlink:href="#DejaVuSans-74" transform="translate(787.066406 0)"/>
       <use xlink:href="#DejaVuSans-68" transform="translate(826.275391 0)"/>
       <use xlink:href="#DejaVuSans-65" transform="translate(889.654297 0)"/>
       <use xlink:href="#DejaVuSans-74" transform="translate(951.177734 0)"/>
       <use xlink:href="#DejaVuSans-69" transform="translate(990.386719 0)"/>
       <use xlink:href="#DejaVuSans-63" transform="translate(1018.169922 0)"/>
       <use xlink:href="#DejaVuSans-44" transform="translate(1073.150391 0)"/>
       <use xlink:href="#DejaVuSans-69" transform="translate(1150.152344 0)"/>
       <use xlink:href="#DejaVuSans-61" transform="translate(1177.935547 0)"/>
       <use xlink:href="#DejaVuSans-6c" transform="translate(1239.214844 0)"/>
       <use xlink:href="#DejaVuSans-6f" transform="translate(1266.998047 0)"/>
       <use xlink:href="#DejaVuSans-67" transform="translate(1328.179688 0)"/>
       <use xlink:href="#DejaVuSans-75" transform="translate(1391.65625 0)"/>
       <use xlink:href="#DejaVuSans-65" transform="translate(1455.035156 0)"/>
       <use xlink:href="#DejaVuSans-73" transform="translate(1516.558594 0)"/>
      </g>
     </g>
    </g>
    <g id="ytick_2">
     <g id="line2d_14">
      <g>
       <use xlink:href="#m79484c94fd" x="203.623437" y="288.595215" style="stroke: #000000; stroke-width: 0.8"/>
      </g>
     </g>
     <g id="text_9">
      <!-- Jigsaw Toxic Comments -->
      <g transform="translate(68.406406 292.774356) scale(0.11 -0.11)">
       <defs>
        <path id="DejaVuSans-4a" d="M 628 4666 
L 1259 4666 
L 1259 325 
Q 1259 -519 939 -900 
Q 619 -1281 -91 -1281 
L -331 -1281 
L -331 -750 
L -134 -750 
Q 284 -750 456 -515 
Q 628 -281 628 325 
L 628 4666 
z
" transform="scale(0.015625)"/>
        <path id="DejaVuSans-77" d="M 269 3500 
L 844 3500 
L 1563 769 
L 2278 3500 
L 2956 3500 
L 3675 769 
L 4391 3500 
L 4966 3500 
L 4050 0 
L 3372 0 
L 2619 2869 
L 1863 0 
L 1184 0 
L 269 3500 
z
" transform="scale(0.015625)"/>
        <path id="DejaVuSans-54" d="M -19 4666 
L 3928 4666 
L 3928 4134 
L 2272 4134 
L 2272 0 
L 1638 0 
L 1638 4134 
L -19 4134 
L -19 4666 
z
" transform="scale(0.015625)"/>
        <path id="DejaVuSans-78" d="M 3513 3500 
L 2247 1797 
L 3578 0 
L 2900 0 
L 1881 1375 
L 863 0 
L 184 0 
L 1544 1831 
L 300 3500 
L 978 3500 
L 1906 2253 
L 2834 3500 
L 3513 3500 
z
" transform="scale(0.015625)"/>
        <path id="DejaVuSans-43" d="M 4122 4306 
L 4122 3641 
Q 3803 3938 3442 4084 
Q 3081 4231 2675 4231 
Q 1875 4231 1450 3742 
Q 1025 3253 1025 2328 
Q 1025 1406 1450 917 
Q 1875 428 2675 428 
Q 3081 428 3442 575 
Q 3803 722 4122 1019 
L 4122 359 
Q 3791 134 3420 21 
Q 3050 -91 2638 -91 
Q 1578 -91 968 557 
Q 359 1206 359 2328 
Q 359 3453 968 4101 
Q 1578 4750 2638 4750 
Q 3056 4750 3426 4639 
Q 3797 4528 4122 4306 
z
" transform="scale(0.015625)"/>
        <path id="DejaVuSans-6e" d="M 3513 2113 
L 3513 0 
L 2938 0 
L 2938 2094 
Q 2938 2591 2744 2837 
Q 2550 3084 2163 3084 
Q 1697 3084 1428 2787 
Q 1159 2491 1159 1978 
L 1159 0 
L 581 0 
L 581 3500 
L 1159 3500 
L 1159 2956 
Q 1366 3272 1645 3428 
Q 1925 3584 2291 3584 
Q 2894 3584 3203 3211 
Q 3513 2838 3513 2113 
z
" transform="scale(0.015625)"/>
       </defs>
       <use xlink:href="#DejaVuSans-4a"/>
       <use xlink:href="#DejaVuSans-69" transform="translate(29.492188 0)"/>
       <use xlink:href="#DejaVuSans-67" transform="translate(57.275391 0)"/>
       <use xlink:href="#DejaVuSans-73" transform="translate(120.751953 0)"/>
       <use xlink:href="#DejaVuSans-61" transform="translate(172.851562 0)"/>
       <use xlink:href="#DejaVuSans-77" transform="translate(234.130859 0)"/>
       <use xlink:href="#DejaVuSans-20" transform="translate(315.917969 0)"/>
       <use xlink:href="#DejaVuSans-54" transform="translate(347.705078 0)"/>
       <use xlink:href="#DejaVuSans-6f" transform="translate(391.789062 0)"/>
       <use xlink:href="#DejaVuSans-78" transform="translate(449.845703 0)"/>
       <use xlink:href="#DejaVuSans-69" transform="translate(509.025391 0)"/>
       <use xlink:href="#DejaVuSans-63" transform="translate(536.808594 0)"/>
       <use xlink:href="#DejaVuSans-20" transform="translate(591.789062 0)"/>
       <use xlink:href="#DejaVuSans-43" transform="translate(623.576172 0)"/>
       <use xlink:href="#DejaVuSans-6f" transform="translate(693.400391 0)"/>
       <use xlink:href="#DejaVuSans-6d" transform="translate(754.582031 0)"/>
       <use xlink:href="#DejaVuSans-6d" transform="translate(851.994141 0)"/>
       <use xlink:href="#DejaVuSans-65" transform="translate(949.40625 0)"/>
       <use xlink:href="#DejaVuSans-6e" transform="translate(1010.929688 0)"/>
       <use xlink:href="#DejaVuSans-74" transform="translate(1074.308594 0)"/>
       <use xlink:href="#DejaVuSans-73" transform="translate(1113.517578 0)"/>
      </g>
     </g>
    </g>
    <g id="ytick_3">
     <g id="line2d_15">
      <g>
       <use xlink:href="#m79484c94fd" x="203.623437" y="253.664983" style="stroke: #000000; stroke-width: 0.8"/>
      </g>
     </g>
     <g id="text_10">
      <!-- Pérez-Rosas Motivational -->
      <g transform="translate(59.551406 252.521154) scale(0.11 -0.11)">
       <defs>
        <path id="DejaVuSans-50" d="M 1259 4147 
L 1259 2394 
L 2053 2394 
Q 2494 2394 2734 2622 
Q 2975 2850 2975 3272 
Q 2975 3691 2734 3919 
Q 2494 4147 2053 4147 
L 1259 4147 
z
M 628 4666 
L 2053 4666 
Q 2838 4666 3239 4311 
Q 3641 3956 3641 3272 
Q 3641 2581 3239 2228 
Q 2838 1875 2053 1875 
L 1259 1875 
L 1259 0 
L 628 0 
L 628 4666 
z
" transform="scale(0.015625)"/>
        <path id="DejaVuSans-e9" d="M 3597 1894 
L 3597 1613 
L 953 1613 
Q 991 1019 1311 708 
Q 1631 397 2203 397 
Q 2534 397 2845 478 
Q 3156 559 3463 722 
L 3463 178 
Q 3153 47 2828 -22 
Q 2503 -91 2169 -91 
Q 1331 -91 842 396 
Q 353 884 353 1716 
Q 353 2575 817 3079 
Q 1281 3584 2069 3584 
Q 2775 3584 3186 3129 
Q 3597 2675 3597 1894 
z
M 3022 2063 
Q 3016 2534 2758 2815 
Q 2500 3097 2075 3097 
Q 1594 3097 1305 2825 
Q 1016 2553 972 2059 
L 3022 2063 
z
M 2469 5119 
L 3091 5119 
L 2072 3944 
L 1594 3944 
L 2469 5119 
z
" transform="scale(0.015625)"/>
        <path id="DejaVuSans-7a" d="M 353 3500 
L 3084 3500 
L 3084 2975 
L 922 459 
L 3084 459 
L 3084 0 
L 275 0 
L 275 525 
L 2438 3041 
L 353 3041 
L 353 3500 
z
" transform="scale(0.015625)"/>
        <path id="DejaVuSans-2d" d="M 313 2009 
L 1997 2009 
L 1997 1497 
L 313 1497 
L 313 2009 
z
" transform="scale(0.015625)"/>
        <path id="DejaVuSans-52" d="M 2841 2188 
Q 3044 2119 3236 1894 
Q 3428 1669 3622 1275 
L 4263 0 
L 3584 0 
L 2988 1197 
Q 2756 1666 2539 1819 
Q 2322 1972 1947 1972 
L 1259 1972 
L 1259 0 
L 628 0 
L 628 4666 
L 2053 4666 
Q 2853 4666 3247 4331 
Q 3641 3997 3641 3322 
Q 3641 2881 3436 2590 
Q 3231 2300 2841 2188 
z
M 1259 4147 
L 1259 2491 
L 2053 2491 
Q 2509 2491 2742 2702 
Q 2975 2913 2975 3322 
Q 2975 3731 2742 3939 
Q 2509 4147 2053 4147 
L 1259 4147 
z
" transform="scale(0.015625)"/>
        <path id="DejaVuSans-4d" d="M 628 4666 
L 1569 4666 
L 2759 1491 
L 3956 4666 
L 4897 4666 
L 4897 0 
L 4281 0 
L 4281 4097 
L 3078 897 
L 2444 897 
L 1241 4097 
L 1241 0 
L 628 0 
L 628 4666 
z
" transform="scale(0.015625)"/>
        <path id="DejaVuSans-76" d="M 191 3500 
L 800 3500 
L 1894 563 
L 2988 3500 
L 3597 3500 
L 2284 0 
L 1503 0 
L 191 3500 
z
" transform="scale(0.015625)"/>
       </defs>
       <use xlink:href="#DejaVuSans-50"/>
       <use xlink:href="#DejaVuSans-e9" transform="translate(56.677734 0)"/>
       <use xlink:href="#DejaVuSans-72" transform="translate(118.201172 0)"/>
       <use xlink:href="#DejaVuSans-65" transform="translate(157.064453 0)"/>
       <use xlink:href="#DejaVuSans-7a" transform="translate(218.587891 0)"/>
       <use xlink:href="#DejaVuSans-2d" transform="translate(271.078125 0)"/>
       <use xlink:href="#DejaVuSans-52" transform="translate(307.162109 0)"/>
       <use xlink:href="#DejaVuSans-6f" transform="translate(372.144531 0)"/>
       <use xlink:href="#DejaVuSans-73" transform="translate(433.326172 0)"/>
       <use xlink:href="#DejaVuSans-61" transform="translate(485.425781 0)"/>
       <use xlink:href="#DejaVuSans-73" transform="translate(546.705078 0)"/>
       <use xlink:href="#DejaVuSans-20" transform="translate(598.804688 0)"/>
       <use xlink:href="#DejaVuSans-4d" transform="translate(630.591797 0)"/>
       <use xlink:href="#DejaVuSans-6f" transform="translate(716.871094 0)"/>
       <use xlink:href="#DejaVuSans-74" transform="translate(778.052734 0)"/>
       <use xlink:href="#DejaVuSans-69" transform="translate(817.261719 0)"/>
       <use xlink:href="#DejaVuSans-76" transform="translate(845.044922 0)"/>
       <use xlink:href="#DejaVuSans-61" transform="translate(904.224609 0)"/>
       <use xlink:href="#DejaVuSans-74" transform="translate(965.503906 0)"/>
       <use xlink:href="#DejaVuSans-69" transform="translate(1004.712891 0)"/>
       <use xlink:href="#DejaVuSans-6f" transform="translate(1032.496094 0)"/>
       <use xlink:href="#DejaVuSans-6e" transform="translate(1093.677734 0)"/>
       <use xlink:href="#DejaVuSans-61" transform="translate(1157.056641 0)"/>
       <use xlink:href="#DejaVuSans-6c" transform="translate(1218.335938 0)"/>
      </g>
      <!-- Interviewing Dataset -->
      <g transform="translate(81.891719 264.838748) scale(0.11 -0.11)">
       <defs>
        <path id="DejaVuSans-49" d="M 628 4666 
L 1259 4666 
L 1259 0 
L 628 0 
L 628 4666 
z
" transform="scale(0.015625)"/>
       </defs>
       <use xlink:href="#DejaVuSans-49"/>
       <use xlink:href="#DejaVuSans-6e" transform="translate(29.492188 0)"/>
       <use xlink:href="#DejaVuSans-74" transform="translate(92.871094 0)"/>
       <use xlink:href="#DejaVuSans-65" transform="translate(132.080078 0)"/>
       <use xlink:href="#DejaVuSans-72" transform="translate(193.603516 0)"/>
       <use xlink:href="#DejaVuSans-76" transform="translate(234.716797 0)"/>
       <use xlink:href="#DejaVuSans-69" transform="translate(293.896484 0)"/>
       <use xlink:href="#DejaVuSans-65" transform="translate(321.679688 0)"/>
       <use xlink:href="#DejaVuSans-77" transform="translate(383.203125 0)"/>
       <use xlink:href="#DejaVuSans-69" transform="translate(464.990234 0)"/>
       <use xlink:href="#DejaVuSans-6e" transform="translate(492.773438 0)"/>
       <use xlink:href="#DejaVuSans-67" transform="translate(556.152344 0)"/>
       <use xlink:href="#DejaVuSans-20" transform="translate(619.628906 0)"/>
       <use xlink:href="#DejaVuSans-44" transform="translate(651.416016 0)"/>
       <use xlink:href="#DejaVuSans-61" transform="translate(728.417969 0)"/>
       <use xlink:href="#DejaVuSans-74" transform="translate(789.697266 0)"/>
       <use xlink:href="#DejaVuSans-61" transform="translate(828.90625 0)"/>
       <use xlink:href="#DejaVuSans-73" transform="translate(890.185547 0)"/>
       <use xlink:href="#DejaVuSans-65" transform="translate(942.285156 0)"/>
       <use xlink:href="#DejaVuSans-74" transform="translate(1003.808594 0)"/>
      </g>
     </g>
    </g>
    <g id="ytick_4">
     <g id="line2d_16">
      <g>
       <use xlink:href="#m79484c94fd" x="203.623437" y="218.73475" style="stroke: #000000; stroke-width: 0.8"/>
      </g>
     </g>
     <g id="text_11">
      <!-- HOPE -->
      <g transform="translate(166.10875 222.913891) scale(0.11 -0.11)">
       <defs>
        <path id="DejaVuSans-48" d="M 628 4666 
L 1259 4666 
L 1259 2753 
L 3553 2753 
L 3553 4666 
L 4184 4666 
L 4184 0 
L 3553 0 
L 3553 2222 
L 1259 2222 
L 1259 0 
L 628 0 
L 628 4666 
z
" transform="scale(0.015625)"/>
        <path id="DejaVuSans-4f" d="M 2522 4238 
Q 1834 4238 1429 3725 
Q 1025 3213 1025 2328 
Q 1025 1447 1429 934 
Q 1834 422 2522 422 
Q 3209 422 3611 934 
Q 4013 1447 4013 2328 
Q 4013 3213 3611 3725 
Q 3209 4238 2522 4238 
z
M 2522 4750 
Q 3503 4750 4090 4092 
Q 4678 3434 4678 2328 
Q 4678 1225 4090 567 
Q 3503 -91 2522 -91 
Q 1538 -91 948 565 
Q 359 1222 359 2328 
Q 359 3434 948 4092 
Q 1538 4750 2522 4750 
z
" transform="scale(0.015625)"/>
       </defs>
       <use xlink:href="#DejaVuSans-48"/>
       <use xlink:href="#DejaVuSans-4f" transform="translate(75.195312 0)"/>
       <use xlink:href="#DejaVuSans-50" transform="translate(153.90625 0)"/>
       <use xlink:href="#DejaVuSans-45" transform="translate(214.208984 0)"/>
      </g>
     </g>
    </g>
    <g id="ytick_5">
     <g id="line2d_17">
      <g>
       <use xlink:href="#m79484c94fd" x="203.623437" y="183.804517" style="stroke: #000000; stroke-width: 0.8"/>
      </g>
     </g>
     <g id="text_12">
      <!-- Amod/mental_health_ -->
      <g transform="translate(76.580781 182.507721) scale(0.11 -0.11)">
       <defs>
        <path id="DejaVuSans-41" d="M 2188 4044 
L 1331 1722 
L 3047 1722 
L 2188 4044 
z
M 1831 4666 
L 2547 4666 
L 4325 0 
L 3669 0 
L 3244 1197 
L 1141 1197 
L 716 0 
L 50 0 
L 1831 4666 
z
" transform="scale(0.015625)"/>
        <path id="DejaVuSans-64" d="M 2906 2969 
L 2906 4863 
L 3481 4863 
L 3481 0 
L 2906 0 
L 2906 525 
Q 2725 213 2448 61 
Q 2172 -91 1784 -91 
Q 1150 -91 751 415 
Q 353 922 353 1747 
Q 353 2572 751 3078 
Q 1150 3584 1784 3584 
Q 2172 3584 2448 3432 
Q 2725 3281 2906 2969 
z
M 947 1747 
Q 947 1113 1208 752 
Q 1469 391 1925 391 
Q 2381 391 2643 752 
Q 2906 1113 2906 1747 
Q 2906 2381 2643 2742 
Q 2381 3103 1925 3103 
Q 1469 3103 1208 2742 
Q 947 2381 947 1747 
z
" transform="scale(0.015625)"/>
        <path id="DejaVuSans-2f" d="M 1625 4666 
L 2156 4666 
L 531 -594 
L 0 -594 
L 1625 4666 
z
" transform="scale(0.015625)"/>
        <path id="DejaVuSans-5f" d="M 3263 -1063 
L 3263 -1509 
L -63 -1509 
L -63 -1063 
L 3263 -1063 
z
" transform="scale(0.015625)"/>
       </defs>
       <use xlink:href="#DejaVuSans-41"/>
       <use xlink:href="#DejaVuSans-6d" transform="translate(68.408203 0)"/>
       <use xlink:href="#DejaVuSans-6f" transform="translate(165.820312 0)"/>
       <use xlink:href="#DejaVuSans-64" transform="translate(227.001953 0)"/>
       <use xlink:href="#DejaVuSans-2f" transform="translate(290.478516 0)"/>
       <use xlink:href="#DejaVuSans-6d" transform="translate(324.169922 0)"/>
       <use xlink:href="#DejaVuSans-65" transform="translate(421.582031 0)"/>
       <use xlink:href="#DejaVuSans-6e" transform="translate(483.105469 0)"/>
       <use xlink:href="#DejaVuSans-74" transform="translate(546.484375 0)"/>
       <use xlink:href="#DejaVuSans-61" transform="translate(585.693359 0)"/>
       <use xlink:href="#DejaVuSans-6c" transform="translate(646.972656 0)"/>
       <use xlink:href="#DejaVuSans-5f" transform="translate(674.755859 0)"/>
       <use xlink:href="#DejaVuSans-68" transform="translate(724.755859 0)"/>
       <use xlink:href="#DejaVuSans-65" transform="translate(788.134766 0)"/>
       <use xlink:href="#DejaVuSans-61" transform="translate(849.658203 0)"/>
       <use xlink:href="#DejaVuSans-6c" transform="translate(910.9375 0)"/>
       <use xlink:href="#DejaVuSans-74" transform="translate(938.720703 0)"/>
       <use xlink:href="#DejaVuSans-68" transform="translate(977.929688 0)"/>
       <use xlink:href="#DejaVuSans-5f" transform="translate(1041.308594 0)"/>
      </g>
      <!-- counseling_conversations -->
      <g transform="translate(55.013906 195.131252) scale(0.11 -0.11)">
       <use xlink:href="#DejaVuSans-63"/>
       <use xlink:href="#DejaVuSans-6f" transform="translate(54.980469 0)"/>
       <use xlink:href="#DejaVuSans-75" transform="translate(116.162109 0)"/>
       <use xlink:href="#DejaVuSans-6e" transform="translate(179.541016 0)"/>
       <use xlink:href="#DejaVuSans-73" transform="translate(242.919922 0)"/>
       <use xlink:href="#DejaVuSans-65" transform="translate(295.019531 0)"/>
       <use xlink:href="#DejaVuSans-6c" transform="translate(356.542969 0)"/>
       <use xlink:href="#DejaVuSans-69" transform="translate(384.326172 0)"/>
       <use xlink:href="#DejaVuSans-6e" transform="translate(412.109375 0)"/>
       <use xlink:href="#DejaVuSans-67" transform="translate(475.488281 0)"/>
       <use xlink:href="#DejaVuSans-5f" transform="translate(538.964844 0)"/>
       <use xlink:href="#DejaVuSans-63" transform="translate(588.964844 0)"/>
       <use xlink:href="#DejaVuSans-6f" transform="translate(643.945312 0)"/>
       <use xlink:href="#DejaVuSans-6e" transform="translate(705.126953 0)"/>
       <use xlink:href="#DejaVuSans-76" transform="translate(768.505859 0)"/>
       <use xlink:href="#DejaVuSans-65" transform="translate(827.685547 0)"/>
       <use xlink:href="#DejaVuSans-72" transform="translate(889.208984 0)"/>
       <use xlink:href="#DejaVuSans-73" transform="translate(930.322266 0)"/>
       <use xlink:href="#DejaVuSans-61" transform="translate(982.421875 0)"/>
       <use xlink:href="#DejaVuSans-74" transform="translate(1043.701172 0)"/>
       <use xlink:href="#DejaVuSans-69" transform="translate(1082.910156 0)"/>
       <use xlink:href="#DejaVuSans-6f" transform="translate(1110.693359 0)"/>
       <use xlink:href="#DejaVuSans-6e" transform="translate(1171.875 0)"/>
       <use xlink:href="#DejaVuSans-73" transform="translate(1235.253906 0)"/>
      </g>
     </g>
    </g>
    <g id="ytick_6">
     <g id="line2d_18">
      <g>
       <use xlink:href="#m79484c94fd" x="203.623437" y="148.874285" style="stroke: #000000; stroke-width: 0.8"/>
      </g>
     </g>
     <g id="text_13">
      <!-- Alexander Street Press Counseling -->
      <g transform="translate(7.2 147.730457) scale(0.11 -0.11)">
       <defs>
        <path id="DejaVuSans-53" d="M 3425 4513 
L 3425 3897 
Q 3066 4069 2747 4153 
Q 2428 4238 2131 4238 
Q 1616 4238 1336 4038 
Q 1056 3838 1056 3469 
Q 1056 3159 1242 3001 
Q 1428 2844 1947 2747 
L 2328 2669 
Q 3034 2534 3370 2195 
Q 3706 1856 3706 1288 
Q 3706 609 3251 259 
Q 2797 -91 1919 -91 
Q 1588 -91 1214 -16 
Q 841 59 441 206 
L 441 856 
Q 825 641 1194 531 
Q 1563 422 1919 422 
Q 2459 422 2753 634 
Q 3047 847 3047 1241 
Q 3047 1584 2836 1778 
Q 2625 1972 2144 2069 
L 1759 2144 
Q 1053 2284 737 2584 
Q 422 2884 422 3419 
Q 422 4038 858 4394 
Q 1294 4750 2059 4750 
Q 2388 4750 2728 4690 
Q 3069 4631 3425 4513 
z
" transform="scale(0.015625)"/>
       </defs>
       <use xlink:href="#DejaVuSans-41"/>
       <use xlink:href="#DejaVuSans-6c" transform="translate(68.408203 0)"/>
       <use xlink:href="#DejaVuSans-65" transform="translate(96.191406 0)"/>
       <use xlink:href="#DejaVuSans-78" transform="translate(155.964844 0)"/>
       <use xlink:href="#DejaVuSans-61" transform="translate(215.144531 0)"/>
       <use xlink:href="#DejaVuSans-6e" transform="translate(276.423828 0)"/>
       <use xlink:href="#DejaVuSans-64" transform="translate(339.802734 0)"/>
       <use xlink:href="#DejaVuSans-65" transform="translate(403.279297 0)"/>
       <use xlink:href="#DejaVuSans-72" transform="translate(464.802734 0)"/>
       <use xlink:href="#DejaVuSans-20" transform="translate(505.916016 0)"/>
       <use xlink:href="#DejaVuSans-53" transform="translate(537.703125 0)"/>
       <use xlink:href="#DejaVuSans-74" transform="translate(601.179688 0)"/>
       <use xlink:href="#DejaVuSans-72" transform="translate(640.388672 0)"/>
       <use xlink:href="#DejaVuSans-65" transform="translate(679.251953 0)"/>
       <use xlink:href="#DejaVuSans-65" transform="translate(740.775391 0)"/>
       <use xlink:href="#DejaVuSans-74" transform="translate(802.298828 0)"/>
       <use xlink:href="#DejaVuSans-20" transform="translate(841.507812 0)"/>
       <use xlink:href="#DejaVuSans-50" transform="translate(873.294922 0)"/>
       <use xlink:href="#DejaVuSans-72" transform="translate(931.847656 0)"/>
       <use xlink:href="#DejaVuSans-65" transform="translate(970.710938 0)"/>
       <use xlink:href="#DejaVuSans-73" transform="translate(1032.234375 0)"/>
       <use xlink:href="#DejaVuSans-73" transform="translate(1084.333984 0)"/>
       <use xlink:href="#DejaVuSans-20" transform="translate(1136.433594 0)"/>
       <use xlink:href="#DejaVuSans-43" transform="translate(1168.220703 0)"/>
       <use xlink:href="#DejaVuSans-6f" transform="translate(1238.044922 0)"/>
       <use xlink:href="#DejaVuSans-75" transform="translate(1299.226562 0)"/>
       <use xlink:href="#DejaVuSans-6e" transform="translate(1362.605469 0)"/>
       <use xlink:href="#DejaVuSans-73" transform="translate(1425.984375 0)"/>
       <use xlink:href="#DejaVuSans-65" transform="translate(1478.083984 0)"/>
       <use xlink:href="#DejaVuSans-6c" transform="translate(1539.607422 0)"/>
       <use xlink:href="#DejaVuSans-69" transform="translate(1567.390625 0)"/>
       <use xlink:href="#DejaVuSans-6e" transform="translate(1595.173828 0)"/>
       <use xlink:href="#DejaVuSans-67" transform="translate(1658.552734 0)"/>
      </g>
      <!-- and Psychotherapy Transcripts -->
      <g transform="translate(27.983125 160.048051) scale(0.11 -0.11)">
       <defs>
        <path id="DejaVuSans-79" d="M 2059 -325 
Q 1816 -950 1584 -1140 
Q 1353 -1331 966 -1331 
L 506 -1331 
L 506 -850 
L 844 -850 
Q 1081 -850 1212 -737 
Q 1344 -625 1503 -206 
L 1606 56 
L 191 3500 
L 800 3500 
L 1894 763 
L 2988 3500 
L 3597 3500 
L 2059 -325 
z
" transform="scale(0.015625)"/>
       </defs>
       <use xlink:href="#DejaVuSans-61"/>
       <use xlink:href="#DejaVuSans-6e" transform="translate(61.279297 0)"/>
       <use xlink:href="#DejaVuSans-64" transform="translate(124.658203 0)"/>
       <use xlink:href="#DejaVuSans-20" transform="translate(188.134766 0)"/>
       <use xlink:href="#DejaVuSans-50" transform="translate(219.921875 0)"/>
       <use xlink:href="#DejaVuSans-73" transform="translate(278.474609 0)"/>
       <use xlink:href="#DejaVuSans-79" transform="translate(330.574219 0)"/>
       <use xlink:href="#DejaVuSans-63" transform="translate(389.753906 0)"/>
       <use xlink:href="#DejaVuSans-68" transform="translate(444.734375 0)"/>
       <use xlink:href="#DejaVuSans-6f" transform="translate(508.113281 0)"/>
       <use xlink:href="#DejaVuSans-74" transform="translate(569.294922 0)"/>
       <use xlink:href="#DejaVuSans-68" transform="translate(608.503906 0)"/>
       <use xlink:href="#DejaVuSans-65" transform="translate(671.882812 0)"/>
       <use xlink:href="#DejaVuSans-72" transform="translate(733.40625 0)"/>
       <use xlink:href="#DejaVuSans-61" transform="translate(774.519531 0)"/>
       <use xlink:href="#DejaVuSans-70" transform="translate(835.798828 0)"/>
       <use xlink:href="#DejaVuSans-79" transform="translate(899.275391 0)"/>
       <use xlink:href="#DejaVuSans-20" transform="translate(958.455078 0)"/>
       <use xlink:href="#DejaVuSans-54" transform="translate(990.242188 0)"/>
       <use xlink:href="#DejaVuSans-72" transform="translate(1036.576172 0)"/>
       <use xlink:href="#DejaVuSans-61" transform="translate(1077.689453 0)"/>
       <use xlink:href="#DejaVuSans-6e" transform="translate(1138.96875 0)"/>
       <use xlink:href="#DejaVuSans-73" transform="translate(1202.347656 0)"/>
       <use xlink:href="#DejaVuSans-63" transform="translate(1254.447266 0)"/>
       <use xlink:href="#DejaVuSans-72" transform="translate(1309.427734 0)"/>
       <use xlink:href="#DejaVuSans-69" transform="translate(1350.541016 0)"/>
       <use xlink:href="#DejaVuSans-70" transform="translate(1378.324219 0)"/>
       <use xlink:href="#DejaVuSans-74" transform="translate(1441.800781 0)"/>
       <use xlink:href="#DejaVuSans-73" transform="translate(1481.009766 0)"/>
      </g>
     </g>
    </g>
    <g id="ytick_7">
     <g id="line2d_19">
      <g>
       <use xlink:href="#m79484c94fd" x="203.623437" y="113.944052" style="stroke: #000000; stroke-width: 0.8"/>
      </g>
     </g>
     <g id="text_14">
      <!-- PsyQA -->
      <g transform="translate(161.758594 118.123193) scale(0.11 -0.11)">
       <defs>
        <path id="DejaVuSans-51" d="M 2522 4238 
Q 1834 4238 1429 3725 
Q 1025 3213 1025 2328 
Q 1025 1447 1429 934 
Q 1834 422 2522 422 
Q 3209 422 3611 934 
Q 4013 1447 4013 2328 
Q 4013 3213 3611 3725 
Q 3209 4238 2522 4238 
z
M 3406 84 
L 4238 -825 
L 3475 -825 
L 2784 -78 
Q 2681 -84 2626 -87 
Q 2572 -91 2522 -91 
Q 1538 -91 948 567 
Q 359 1225 359 2328 
Q 359 3434 948 4092 
Q 1538 4750 2522 4750 
Q 3503 4750 4090 4092 
Q 4678 3434 4678 2328 
Q 4678 1516 4351 937 
Q 4025 359 3406 84 
z
" transform="scale(0.015625)"/>
       </defs>
       <use xlink:href="#DejaVuSans-50"/>
       <use xlink:href="#DejaVuSans-73" transform="translate(58.552734 0)"/>
       <use xlink:href="#DejaVuSans-79" transform="translate(110.652344 0)"/>
       <use xlink:href="#DejaVuSans-51" transform="translate(169.832031 0)"/>
       <use xlink:href="#DejaVuSans-41" transform="translate(248.542969 0)"/>
      </g>
     </g>
    </g>
    <g id="ytick_8">
     <g id="line2d_20">
      <g>
       <use xlink:href="#m79484c94fd" x="203.623437" y="79.01382" style="stroke: #000000; stroke-width: 0.8"/>
      </g>
     </g>
     <g id="text_15">
      <!-- CounselChat -->
      <g transform="translate(127.008906 83.19296) scale(0.11 -0.11)">
       <use xlink:href="#DejaVuSans-43"/>
       <use xlink:href="#DejaVuSans-6f" transform="translate(69.824219 0)"/>
       <use xlink:href="#DejaVuSans-75" transform="translate(131.005859 0)"/>
       <use xlink:href="#DejaVuSans-6e" transform="translate(194.384766 0)"/>
       <use xlink:href="#DejaVuSans-73" transform="translate(257.763672 0)"/>
       <use xlink:href="#DejaVuSans-65" transform="translate(309.863281 0)"/>
       <use xlink:href="#DejaVuSans-6c" transform="translate(371.386719 0)"/>
       <use xlink:href="#DejaVuSans-43" transform="translate(399.169922 0)"/>
       <use xlink:href="#DejaVuSans-68" transform="translate(468.994141 0)"/>
       <use xlink:href="#DejaVuSans-61" transform="translate(532.373047 0)"/>
       <use xlink:href="#DejaVuSans-74" transform="translate(593.652344 0)"/>
      </g>
     </g>
    </g>
   </g>
   <g id="patch_11">
    <path d="M 203.623437 383.95475 
L 203.623437 53.51475 
" style="fill: none; stroke: #000000; stroke-width: 0.8; stroke-linejoin: miter; stroke-linecap: square"/>
   </g>
   <g id="patch_12">
    <path d="M 203.623437 383.95475 
L 408.823437 383.95475 
" style="fill: none; stroke: #000000; stroke-width: 0.8; stroke-linejoin: miter; stroke-linecap: square"/>
   </g>
   <g id="text_16">
    <!-- 2 -->
    <g transform="translate(241.857284 326.56076) scale(0.11 -0.11)">
     <use xlink:href="#DejaVuSans-32"/>
    </g>
   </g>
   <g id="text_17">
    <!-- 2 -->
    <g transform="translate(241.857284 291.630528) scale(0.11 -0.11)">
     <use xlink:href="#DejaVuSans-32"/>
    </g>
   </g>
   <g id="text_18">
    <!-- 2 -->
    <g transform="translate(241.857284 256.700295) scale(0.11 -0.11)">
     <use xlink:href="#DejaVuSans-32"/>
    </g>
   </g>
   <g id="text_19">
    <!-- 3 -->
    <g transform="translate(259.395745 221.770062) scale(0.11 -0.11)">
     <defs>
      <path id="DejaVuSans-33" d="M 2597 2516 
Q 3050 2419 3304 2112 
Q 3559 1806 3559 1356 
Q 3559 666 3084 287 
Q 2609 -91 1734 -91 
Q 1441 -91 1130 -33 
Q 819 25 488 141 
L 488 750 
Q 750 597 1062 519 
Q 1375 441 1716 441 
Q 2309 441 2620 675 
Q 2931 909 2931 1356 
Q 2931 1769 2642 2001 
Q 2353 2234 1838 2234 
L 1294 2234 
L 1294 2753 
L 1863 2753 
Q 2328 2753 2575 2939 
Q 2822 3125 2822 3475 
Q 2822 3834 2567 4026 
Q 2313 4219 1838 4219 
Q 1578 4219 1281 4162 
Q 984 4106 628 3988 
L 628 4550 
Q 988 4650 1302 4700 
Q 1616 4750 1894 4750 
Q 2613 4750 3031 4423 
Q 3450 4097 3450 3541 
Q 3450 3153 3228 2886 
Q 3006 2619 2597 2516 
z
" transform="scale(0.015625)"/>
     </defs>
     <use xlink:href="#DejaVuSans-33"/>
    </g>
   </g>
   <g id="text_20">
    <!-- 5 -->
    <g transform="translate(294.472668 186.83983) scale(0.11 -0.11)">
     <defs>
      <path id="DejaVuSans-35" d="M 691 4666 
L 3169 4666 
L 3169 4134 
L 1269 4134 
L 1269 2991 
Q 1406 3038 1543 3061 
Q 1681 3084 1819 3084 
Q 2600 3084 3056 2656 
Q 3513 2228 3513 1497 
Q 3513 744 3044 326 
Q 2575 -91 1722 -91 
Q 1428 -91 1123 -41 
Q 819 9 494 109 
L 494 744 
Q 775 591 1075 516 
Q 1375 441 1709 441 
Q 2250 441 2565 725 
Q 2881 1009 2881 1497 
Q 2881 1984 2565 2268 
Q 2250 2553 1709 2553 
Q 1456 2553 1204 2497 
Q 953 2441 691 2322 
L 691 4666 
z
" transform="scale(0.015625)"/>
     </defs>
     <use xlink:href="#DejaVuSans-35"/>
    </g>
   </g>
   <g id="text_21">
    <!-- 6 -->
    <g transform="translate(312.01113 151.909597) scale(0.11 -0.11)">
     <use xlink:href="#DejaVuSans-36"/>
    </g>
   </g>
   <g id="text_22">
    <!-- 7 -->
    <g transform="translate(329.549591 116.979365) scale(0.11 -0.11)">
     <defs>
      <path id="DejaVuSans-37" d="M 525 4666 
L 3525 4666 
L 3525 4397 
L 1831 0 
L 1172 0 
L 2766 4134 
L 525 4134 
L 525 4666 
z
" transform="scale(0.015625)"/>
     </defs>
     <use xlink:href="#DejaVuSans-37"/>
    </g>
   </g>
   <g id="text_23">
    <!-- 9 -->
    <g transform="translate(364.626514 82.049132) scale(0.11 -0.11)">
     <defs>
      <path id="DejaVuSans-39" d="M 703 97 
L 703 672 
Q 941 559 1184 500 
Q 1428 441 1663 441 
Q 2288 441 2617 861 
Q 2947 1281 2994 2138 
Q 2813 1869 2534 1725 
Q 2256 1581 1919 1581 
Q 1219 1581 811 2004 
Q 403 2428 403 3163 
Q 403 3881 828 4315 
Q 1253 4750 1959 4750 
Q 2769 4750 3195 4129 
Q 3622 3509 3622 2328 
Q 3622 1225 3098 567 
Q 2575 -91 1691 -91 
Q 1453 -91 1209 -44 
Q 966 3 703 97 
z
M 1959 2075 
Q 2384 2075 2632 2365 
Q 2881 2656 2881 3163 
Q 2881 3666 2632 3958 
Q 2384 4250 1959 4250 
Q 1534 4250 1286 3958 
Q 1038 3666 1038 3163 
Q 1038 2656 1286 2365 
Q 1534 2075 1959 2075 
z
" transform="scale(0.015625)"/>
     </defs>
     <use xlink:href="#DejaVuSans-39"/>
    </g>
   </g>
   <g id="text_24">
    <!-- Note: An additional 82 datasets -->
    <g transform="translate(212.392668 355.048243) scale(0.12 -0.12)">
     <defs>
      <path id="DejaVuSans-Oblique-4e" d="M 1081 4666 
L 1931 4666 
L 3219 666 
L 4000 4666 
L 4616 4666 
L 3706 0 
L 2853 0 
L 1569 4025 
L 788 0 
L 172 0 
L 1081 4666 
z
" transform="scale(0.015625)"/>
      <path id="DejaVuSans-Oblique-6f" d="M 1625 -91 
Q 1009 -91 651 289 
Q 294 669 294 1325 
Q 294 1706 417 2101 
Q 541 2497 738 2766 
Q 1047 3184 1428 3384 
Q 1809 3584 2291 3584 
Q 2888 3584 3255 3212 
Q 3622 2841 3622 2241 
Q 3622 1825 3500 1412 
Q 3378 1000 3181 728 
Q 2875 309 2494 109 
Q 2113 -91 1625 -91 
z
M 891 1344 
Q 891 869 1089 633 
Q 1288 397 1691 397 
Q 2269 397 2648 901 
Q 3028 1406 3028 2181 
Q 3028 2634 2825 2865 
Q 2622 3097 2228 3097 
Q 1903 3097 1650 2945 
Q 1397 2794 1197 2484 
Q 1050 2253 970 1956 
Q 891 1659 891 1344 
z
" transform="scale(0.015625)"/>
      <path id="DejaVuSans-Oblique-74" d="M 2706 3500 
L 2619 3053 
L 1472 3053 
L 1100 1153 
Q 1081 1047 1072 975 
Q 1063 903 1063 863 
Q 1063 663 1183 572 
Q 1303 481 1569 481 
L 2150 481 
L 2053 0 
L 1503 0 
Q 991 0 739 200 
Q 488 400 488 806 
Q 488 878 497 964 
Q 506 1050 525 1153 
L 897 3053 
L 409 3053 
L 500 3500 
L 978 3500 
L 1172 4494 
L 1747 4494 
L 1556 3500 
L 2706 3500 
z
" transform="scale(0.015625)"/>
      <path id="DejaVuSans-Oblique-65" d="M 3078 2063 
Q 3088 2113 3092 2166 
Q 3097 2219 3097 2272 
Q 3097 2653 2873 2875 
Q 2650 3097 2266 3097 
Q 1838 3097 1509 2826 
Q 1181 2556 1013 2059 
L 3078 2063 
z
M 3578 1613 
L 903 1613 
Q 884 1494 878 1425 
Q 872 1356 872 1306 
Q 872 872 1139 634 
Q 1406 397 1894 397 
Q 2269 397 2603 481 
Q 2938 566 3225 728 
L 3116 159 
Q 2806 34 2476 -28 
Q 2147 -91 1806 -91 
Q 1078 -91 686 257 
Q 294 606 294 1247 
Q 294 1794 489 2264 
Q 684 2734 1063 3103 
Q 1306 3334 1642 3459 
Q 1978 3584 2356 3584 
Q 2950 3584 3301 3228 
Q 3653 2872 3653 2272 
Q 3653 2128 3634 1964 
Q 3616 1800 3578 1613 
z
" transform="scale(0.015625)"/>
      <path id="DejaVuSans-Oblique-3a" d="M 978 3309 
L 1638 3309 
L 1484 2516 
L 825 2516 
L 978 3309 
z
M 488 794 
L 1147 794 
L 991 0 
L 331 0 
L 488 794 
z
" transform="scale(0.015625)"/>
      <path id="DejaVuSans-Oblique-20" transform="scale(0.015625)"/>
      <path id="DejaVuSans-Oblique-41" d="M 2356 4666 
L 3072 4666 
L 3938 0 
L 3278 0 
L 3084 1197 
L 984 1197 
L 325 0 
L -341 0 
L 2356 4666 
z
M 2584 4044 
L 1275 1722 
L 2988 1722 
L 2584 4044 
z
" transform="scale(0.015625)"/>
      <path id="DejaVuSans-Oblique-6e" d="M 3566 2113 
L 3156 0 
L 2578 0 
L 2988 2091 
Q 3016 2238 3031 2350 
Q 3047 2463 3047 2528 
Q 3047 2791 2881 2937 
Q 2716 3084 2419 3084 
Q 1956 3084 1622 2776 
Q 1288 2469 1184 1941 
L 800 0 
L 225 0 
L 903 3500 
L 1478 3500 
L 1363 2950 
Q 1603 3253 1940 3418 
Q 2278 3584 2650 3584 
Q 3113 3584 3367 3334 
Q 3622 3084 3622 2631 
Q 3622 2519 3608 2391 
Q 3594 2263 3566 2113 
z
" transform="scale(0.015625)"/>
      <path id="DejaVuSans-Oblique-61" d="M 3438 1997 
L 3047 0 
L 2472 0 
L 2578 531 
Q 2325 219 2001 64 
Q 1678 -91 1281 -91 
Q 834 -91 548 182 
Q 263 456 263 884 
Q 263 1497 752 1853 
Q 1241 2209 2100 2209 
L 2900 2209 
L 2931 2363 
Q 2938 2388 2941 2417 
Q 2944 2447 2944 2509 
Q 2944 2788 2717 2942 
Q 2491 3097 2081 3097 
Q 1800 3097 1504 3025 
Q 1209 2953 897 2809 
L 997 3341 
Q 1322 3463 1633 3523 
Q 1944 3584 2234 3584 
Q 2853 3584 3176 3315 
Q 3500 3047 3500 2534 
Q 3500 2431 3484 2292 
Q 3469 2153 3438 1997 
z
M 2816 1759 
L 2241 1759 
Q 1534 1759 1195 1570 
Q 856 1381 856 984 
Q 856 709 1029 553 
Q 1203 397 1509 397 
Q 1978 397 2328 733 
Q 2678 1069 2791 1631 
L 2816 1759 
z
" transform="scale(0.015625)"/>
      <path id="DejaVuSans-Oblique-64" d="M 2675 525 
Q 2444 222 2128 65 
Q 1813 -91 1428 -91 
Q 903 -91 598 267 
Q 294 625 294 1247 
Q 294 1766 478 2236 
Q 663 2706 1013 3078 
Q 1244 3325 1534 3454 
Q 1825 3584 2144 3584 
Q 2481 3584 2739 3421 
Q 2997 3259 3138 2956 
L 3513 4863 
L 4091 4863 
L 3144 0 
L 2566 0 
L 2675 525 
z
M 891 1350 
Q 891 897 1095 644 
Q 1300 391 1663 391 
Q 1931 391 2161 520 
Q 2391 650 2566 903 
Q 2750 1166 2856 1509 
Q 2963 1853 2963 2188 
Q 2963 2622 2758 2865 
Q 2553 3109 2194 3109 
Q 1922 3109 1687 2981 
Q 1453 2853 1288 2613 
Q 1106 2353 998 2009 
Q 891 1666 891 1350 
z
" transform="scale(0.015625)"/>
      <path id="DejaVuSans-Oblique-69" d="M 1172 4863 
L 1747 4863 
L 1606 4134 
L 1031 4134 
L 1172 4863 
z
M 909 3500 
L 1484 3500 
L 800 0 
L 225 0 
L 909 3500 
z
" transform="scale(0.015625)"/>
      <path id="DejaVuSans-Oblique-6c" d="M 1172 4863 
L 1747 4863 
L 800 0 
L 225 0 
L 1172 4863 
z
" transform="scale(0.015625)"/>
      <path id="DejaVuSans-Oblique-38" d="M 2847 1416 
Q 2847 1769 2600 1992 
Q 2353 2216 1953 2216 
Q 1466 2216 1148 1923 
Q 831 1631 831 1184 
Q 831 828 1073 618 
Q 1316 409 1728 409 
Q 2219 409 2533 693 
Q 2847 978 2847 1416 
z
M 3169 3591 
Q 3169 3888 2950 4069 
Q 2731 4250 2369 4250 
Q 1941 4250 1664 4009 
Q 1388 3769 1388 3406 
Q 1388 3094 1605 2903 
Q 1822 2713 2181 2713 
Q 2613 2713 2891 2961 
Q 3169 3209 3169 3591 
z
M 2741 2456 
Q 3094 2322 3281 2050 
Q 3469 1778 3469 1394 
Q 3469 747 2969 328 
Q 2469 -91 1678 -91 
Q 1006 -91 609 239 
Q 213 569 213 1119 
Q 213 1619 553 2008 
Q 894 2397 1441 2503 
Q 1113 2616 941 2852 
Q 769 3088 769 3425 
Q 769 3991 1239 4370 
Q 1709 4750 2431 4750 
Q 3034 4750 3414 4442 
Q 3794 4134 3794 3659 
Q 3794 3247 3511 2923 
Q 3228 2600 2741 2456 
z
" transform="scale(0.015625)"/>
      <path id="DejaVuSans-Oblique-32" d="M 2950 2253 
L 934 525 
L 3163 525 
L 3053 0 
L 25 0 
L 128 531 
L 2234 2338 
Q 2656 2703 2832 2979 
Q 3009 3256 3009 3547 
Q 3009 3850 2796 4040 
Q 2584 4231 2241 4231 
Q 1944 4231 1581 4125 
Q 1219 4019 806 3816 
L 922 4441 
Q 1309 4594 1662 4672 
Q 2016 4750 2316 4750 
Q 2928 4750 3301 4425 
Q 3675 4100 3675 3572 
Q 3675 3216 3497 2892 
Q 3319 2569 2950 2253 
z
" transform="scale(0.015625)"/>
      <path id="DejaVuSans-Oblique-73" d="M 3200 3397 
L 3091 2853 
Q 2863 2978 2609 3040 
Q 2356 3103 2088 3103 
Q 1634 3103 1373 2948 
Q 1113 2794 1113 2528 
Q 1113 2219 1719 2053 
Q 1766 2041 1788 2034 
L 1972 1978 
Q 2547 1819 2739 1644 
Q 2931 1469 2931 1166 
Q 2931 609 2489 259 
Q 2047 -91 1331 -91 
Q 1053 -91 747 -37 
Q 441 16 72 128 
L 184 722 
Q 500 559 806 475 
Q 1113 391 1394 391 
Q 1816 391 2080 572 
Q 2344 753 2344 1031 
Q 2344 1331 1650 1516 
L 1591 1531 
L 1394 1581 
Q 956 1697 753 1886 
Q 550 2075 550 2369 
Q 550 2928 970 3256 
Q 1391 3584 2113 3584 
Q 2397 3584 2667 3537 
Q 2938 3491 3200 3397 
z
" transform="scale(0.015625)"/>
     </defs>
     <use xlink:href="#DejaVuSans-Oblique-4e"/>
     <use xlink:href="#DejaVuSans-Oblique-6f" transform="translate(74.804688 0)"/>
     <use xlink:href="#DejaVuSans-Oblique-74" transform="translate(135.986328 0)"/>
     <use xlink:href="#DejaVuSans-Oblique-65" transform="translate(175.195312 0)"/>
     <use xlink:href="#DejaVuSans-Oblique-3a" transform="translate(236.71875 0)"/>
     <use xlink:href="#DejaVuSans-Oblique-20" transform="translate(270.410156 0)"/>
     <use xlink:href="#DejaVuSans-Oblique-41" transform="translate(302.197266 0)"/>
     <use xlink:href="#DejaVuSans-Oblique-6e" transform="translate(370.605469 0)"/>
     <use xlink:href="#DejaVuSans-Oblique-20" transform="translate(433.984375 0)"/>
     <use xlink:href="#DejaVuSans-Oblique-61" transform="translate(465.771484 0)"/>
     <use xlink:href="#DejaVuSans-Oblique-64" transform="translate(527.050781 0)"/>
     <use xlink:href="#DejaVuSans-Oblique-64" transform="translate(590.527344 0)"/>
     <use xlink:href="#DejaVuSans-Oblique-69" transform="translate(654.003906 0)"/>
     <use xlink:href="#DejaVuSans-Oblique-74" transform="translate(681.787109 0)"/>
     <use xlink:href="#DejaVuSans-Oblique-69" transform="translate(720.996094 0)"/>
     <use xlink:href="#DejaVuSans-Oblique-6f" transform="translate(748.779297 0)"/>
     <use xlink:href="#DejaVuSans-Oblique-6e" transform="translate(809.960938 0)"/>
     <use xlink:href="#DejaVuSans-Oblique-61" transform="translate(873.339844 0)"/>
     <use xlink:href="#DejaVuSans-Oblique-6c" transform="translate(934.619141 0)"/>
     <use xlink:href="#DejaVuSans-Oblique-20" transform="translate(962.402344 0)"/>
     <use xlink:href="#DejaVuSans-Oblique-38" transform="translate(994.189453 0)"/>
     <use xlink:href="#DejaVuSans-Oblique-32" transform="translate(1057.8125 0)"/>
     <use xlink:href="#DejaVuSans-Oblique-20" transform="translate(1121.435547 0)"/>
     <use xlink:href="#DejaVuSans-Oblique-64" transform="translate(1153.222656 0)"/>
     <use xlink:href="#DejaVuSans-Oblique-61" transform="translate(1216.699219 0)"/>
     <use xlink:href="#DejaVuSans-Oblique-74" transform="translate(1277.978516 0)"/>
     <use xlink:href="#DejaVuSans-Oblique-61" transform="translate(1317.1875 0)"/>
     <use xlink:href="#DejaVuSans-Oblique-73" transform="translate(1378.466797 0)"/>
     <use xlink:href="#DejaVuSans-Oblique-65" transform="translate(1430.566406 0)"/>
     <use xlink:href="#DejaVuSans-Oblique-74" transform="translate(1492.089844 0)"/>
     <use xlink:href="#DejaVuSans-Oblique-73" transform="translate(1531.298828 0)"/>
    </g>
    <!-- were used in only one study each -->
    <g transform="translate(212.392668 368.485618) scale(0.12 -0.12)">
     <defs>
      <path id="DejaVuSans-Oblique-77" d="M 544 3500 
L 1113 3500 
L 1259 684 
L 2566 3500 
L 3231 3500 
L 3425 684 
L 4666 3500 
L 5241 3500 
L 3641 0 
L 2969 0 
L 2797 2900 
L 1459 0 
L 781 0 
L 544 3500 
z
" transform="scale(0.015625)"/>
      <path id="DejaVuSans-Oblique-72" d="M 2853 2969 
Q 2766 3016 2653 3041 
Q 2541 3066 2413 3066 
Q 1953 3066 1609 2717 
Q 1266 2369 1153 1784 
L 800 0 
L 225 0 
L 909 3500 
L 1484 3500 
L 1375 2956 
Q 1603 3259 1920 3421 
Q 2238 3584 2597 3584 
Q 2691 3584 2781 3573 
Q 2872 3563 2963 3538 
L 2853 2969 
z
" transform="scale(0.015625)"/>
      <path id="DejaVuSans-Oblique-75" d="M 428 1388 
L 838 3500 
L 1416 3500 
L 1006 1409 
Q 975 1256 961 1147 
Q 947 1038 947 966 
Q 947 700 1109 554 
Q 1272 409 1569 409 
Q 2031 409 2368 721 
Q 2706 1034 2809 1563 
L 3194 3500 
L 3769 3500 
L 3091 0 
L 2516 0 
L 2631 550 
Q 2388 244 2052 76 
Q 1716 -91 1338 -91 
Q 878 -91 622 161 
Q 366 413 366 863 
Q 366 956 381 1097 
Q 397 1238 428 1388 
z
" transform="scale(0.015625)"/>
      <path id="DejaVuSans-Oblique-79" d="M 1588 -325 
Q 1188 -997 936 -1164 
Q 684 -1331 294 -1331 
L -159 -1331 
L -63 -850 
L 269 -850 
Q 509 -850 678 -719 
Q 847 -588 1056 -206 
L 1234 128 
L 459 3500 
L 1069 3500 
L 1650 819 
L 3256 3500 
L 3859 3500 
L 1588 -325 
z
" transform="scale(0.015625)"/>
      <path id="DejaVuSans-Oblique-63" d="M 3431 3366 
L 3316 2797 
Q 3109 2947 2876 3022 
Q 2644 3097 2394 3097 
Q 2119 3097 1870 3000 
Q 1622 2903 1453 2725 
Q 1184 2453 1037 2087 
Q 891 1722 891 1331 
Q 891 859 1127 628 
Q 1363 397 1844 397 
Q 2081 397 2348 469 
Q 2616 541 2906 684 
L 2797 116 
Q 2547 13 2283 -39 
Q 2019 -91 1741 -91 
Q 1044 -91 669 257 
Q 294 606 294 1253 
Q 294 1797 489 2255 
Q 684 2713 1069 3078 
Q 1331 3328 1684 3456 
Q 2038 3584 2456 3584 
Q 2700 3584 2940 3529 
Q 3181 3475 3431 3366 
z
" transform="scale(0.015625)"/>
      <path id="DejaVuSans-Oblique-68" d="M 3566 2113 
L 3156 0 
L 2578 0 
L 2988 2091 
Q 3016 2238 3031 2350 
Q 3047 2463 3047 2528 
Q 3047 2791 2881 2937 
Q 2716 3084 2419 3084 
Q 1956 3084 1617 2771 
Q 1278 2459 1178 1941 
L 800 0 
L 225 0 
L 1172 4863 
L 1747 4863 
L 1375 2950 
Q 1594 3244 1934 3414 
Q 2275 3584 2650 3584 
Q 3113 3584 3367 3334 
Q 3622 3084 3622 2631 
Q 3622 2519 3608 2391 
Q 3594 2263 3566 2113 
z
" transform="scale(0.015625)"/>
     </defs>
     <use xlink:href="#DejaVuSans-Oblique-77"/>
     <use xlink:href="#DejaVuSans-Oblique-65" transform="translate(81.787109 0)"/>
     <use xlink:href="#DejaVuSans-Oblique-72" transform="translate(143.310547 0)"/>
     <use xlink:href="#DejaVuSans-Oblique-65" transform="translate(184.423828 0)"/>
     <use xlink:href="#DejaVuSans-Oblique-20" transform="translate(245.947266 0)"/>
     <use xlink:href="#DejaVuSans-Oblique-75" transform="translate(277.734375 0)"/>
     <use xlink:href="#DejaVuSans-Oblique-73" transform="translate(341.113281 0)"/>
     <use xlink:href="#DejaVuSans-Oblique-65" transform="translate(393.212891 0)"/>
     <use xlink:href="#DejaVuSans-Oblique-64" transform="translate(454.736328 0)"/>
     <use xlink:href="#DejaVuSans-Oblique-20" transform="translate(518.212891 0)"/>
     <use xlink:href="#DejaVuSans-Oblique-69" transform="translate(550 0)"/>
     <use xlink:href="#DejaVuSans-Oblique-6e" transform="translate(577.783203 0)"/>
     <use xlink:href="#DejaVuSans-Oblique-20" transform="translate(641.162109 0)"/>
     <use xlink:href="#DejaVuSans-Oblique-6f" transform="translate(672.949219 0)"/>
     <use xlink:href="#DejaVuSans-Oblique-6e" transform="translate(734.130859 0)"/>
     <use xlink:href="#DejaVuSans-Oblique-6c" transform="translate(797.509766 0)"/>
     <use xlink:href="#DejaVuSans-Oblique-79" transform="translate(825.292969 0)"/>
     <use xlink:href="#DejaVuSans-Oblique-20" transform="translate(884.472656 0)"/>
     <use xlink:href="#DejaVuSans-Oblique-6f" transform="translate(916.259766 0)"/>
     <use xlink:href="#DejaVuSans-Oblique-6e" transform="translate(977.441406 0)"/>
     <use xlink:href="#DejaVuSans-Oblique-65" transform="translate(1040.820312 0)"/>
     <use xlink:href="#DejaVuSans-Oblique-20" transform="translate(1102.34375 0)"/>
     <use xlink:href="#DejaVuSans-Oblique-73" transform="translate(1134.130859 0)"/>
     <use xlink:href="#DejaVuSans-Oblique-74" transform="translate(1186.230469 0)"/>
     <use xlink:href="#DejaVuSans-Oblique-75" transform="translate(1225.439453 0)"/>
     <use xlink:href="#DejaVuSans-Oblique-64" transform="translate(1288.818359 0)"/>
     <use xlink:href="#DejaVuSans-Oblique-79" transform="translate(1352.294922 0)"/>
     <use xlink:href="#DejaVuSans-Oblique-20" transform="translate(1411.474609 0)"/>
     <use xlink:href="#DejaVuSans-Oblique-65" transform="translate(1443.261719 0)"/>
     <use xlink:href="#DejaVuSans-Oblique-61" transform="translate(1504.785156 0)"/>
     <use xlink:href="#DejaVuSans-Oblique-63" transform="translate(1566.064453 0)"/>
     <use xlink:href="#DejaVuSans-Oblique-68" transform="translate(1621.044922 0)"/>
    </g>
   </g>
   <g id="text_25">
    <!-- Datasets used more than once: -->
    <g transform="translate(196.16375 17.837813) scale(0.14 -0.14)">
     <defs>
      <path id="DejaVuSans-3a" d="M 750 794 
L 1409 794 
L 1409 0 
L 750 0 
L 750 794 
z
M 750 3309 
L 1409 3309 
L 1409 2516 
L 750 2516 
L 750 3309 
z
" transform="scale(0.015625)"/>
     </defs>
     <use xlink:href="#DejaVuSans-44"/>
     <use xlink:href="#DejaVuSans-61" transform="translate(77.001953 0)"/>
     <use xlink:href="#DejaVuSans-74" transform="translate(138.28125 0)"/>
     <use xlink:href="#DejaVuSans-61" transform="translate(177.490234 0)"/>
     <use xlink:href="#DejaVuSans-73" transform="translate(238.769531 0)"/>
     <use xlink:href="#DejaVuSans-65" transform="translate(290.869141 0)"/>
     <use xlink:href="#DejaVuSans-74" transform="translate(352.392578 0)"/>
     <use xlink:href="#DejaVuSans-73" transform="translate(391.601562 0)"/>
     <use xlink:href="#DejaVuSans-20" transform="translate(443.701172 0)"/>
     <use xlink:href="#DejaVuSans-75" transform="translate(475.488281 0)"/>
     <use xlink:href="#DejaVuSans-73" transform="translate(538.867188 0)"/>
     <use xlink:href="#DejaVuSans-65" transform="translate(590.966797 0)"/>
     <use xlink:href="#DejaVuSans-64" transform="translate(652.490234 0)"/>
     <use xlink:href="#DejaVuSans-20" transform="translate(715.966797 0)"/>
     <use xlink:href="#DejaVuSans-6d" transform="translate(747.753906 0)"/>
     <use xlink:href="#DejaVuSans-6f" transform="translate(845.166016 0)"/>
     <use xlink:href="#DejaVuSans-72" transform="translate(906.347656 0)"/>
     <use xlink:href="#DejaVuSans-65" transform="translate(945.210938 0)"/>
     <use xlink:href="#DejaVuSans-20" transform="translate(1006.734375 0)"/>
     <use xlink:href="#DejaVuSans-74" transform="translate(1038.521484 0)"/>
     <use xlink:href="#DejaVuSans-68" transform="translate(1077.730469 0)"/>
     <use xlink:href="#DejaVuSans-61" transform="translate(1141.109375 0)"/>
     <use xlink:href="#DejaVuSans-6e" transform="translate(1202.388672 0)"/>
     <use xlink:href="#DejaVuSans-20" transform="translate(1265.767578 0)"/>
     <use xlink:href="#DejaVuSans-6f" transform="translate(1297.554688 0)"/>
     <use xlink:href="#DejaVuSans-6e" transform="translate(1358.736328 0)"/>
     <use xlink:href="#DejaVuSans-63" transform="translate(1422.115234 0)"/>
     <use xlink:href="#DejaVuSans-65" transform="translate(1477.095703 0)"/>
     <use xlink:href="#DejaVuSans-3a" transform="translate(1538.619141 0)"/>
    </g>
    <!-- Number of articles using each dataset -->
    <g transform="translate(172.373594 33.51475) scale(0.14 -0.14)">
     <use xlink:href="#DejaVuSans-4e"/>
     <use xlink:href="#DejaVuSans-75" transform="translate(74.804688 0)"/>
     <use xlink:href="#DejaVuSans-6d" transform="translate(138.183594 0)"/>
     <use xlink:href="#DejaVuSans-62" transform="translate(235.595703 0)"/>
     <use xlink:href="#DejaVuSans-65" transform="translate(299.072266 0)"/>
     <use xlink:href="#DejaVuSans-72" transform="translate(360.595703 0)"/>
     <use xlink:href="#DejaVuSans-20" transform="translate(401.708984 0)"/>
     <use xlink:href="#DejaVuSans-6f" transform="translate(433.496094 0)"/>
     <use xlink:href="#DejaVuSans-66" transform="translate(494.677734 0)"/>
     <use xlink:href="#DejaVuSans-20" transform="translate(529.882812 0)"/>
     <use xlink:href="#DejaVuSans-61" transform="translate(561.669922 0)"/>
     <use xlink:href="#DejaVuSans-72" transform="translate(622.949219 0)"/>
     <use xlink:href="#DejaVuSans-74" transform="translate(664.0625 0)"/>
     <use xlink:href="#DejaVuSans-69" transform="translate(703.271484 0)"/>
     <use xlink:href="#DejaVuSans-63" transform="translate(731.054688 0)"/>
     <use xlink:href="#DejaVuSans-6c" transform="translate(786.035156 0)"/>
     <use xlink:href="#DejaVuSans-65" transform="translate(813.818359 0)"/>
     <use xlink:href="#DejaVuSans-73" transform="translate(875.341797 0)"/>
     <use xlink:href="#DejaVuSans-20" transform="translate(927.441406 0)"/>
     <use xlink:href="#DejaVuSans-75" transform="translate(959.228516 0)"/>
     <use xlink:href="#DejaVuSans-73" transform="translate(1022.607422 0)"/>
     <use xlink:href="#DejaVuSans-69" transform="translate(1074.707031 0)"/>
     <use xlink:href="#DejaVuSans-6e" transform="translate(1102.490234 0)"/>
     <use xlink:href="#DejaVuSans-67" transform="translate(1165.869141 0)"/>
     <use xlink:href="#DejaVuSans-20" transform="translate(1229.345703 0)"/>
     <use xlink:href="#DejaVuSans-65" transform="translate(1261.132812 0)"/>
     <use xlink:href="#DejaVuSans-61" transform="translate(1322.65625 0)"/>
     <use xlink:href="#DejaVuSans-63" transform="translate(1383.935547 0)"/>
     <use xlink:href="#DejaVuSans-68" transform="translate(1438.916016 0)"/>
     <use xlink:href="#DejaVuSans-20" transform="translate(1502.294922 0)"/>
     <use xlink:href="#DejaVuSans-64" transform="translate(1534.082031 0)"/>
     <use xlink:href="#DejaVuSans-61" transform="translate(1597.558594 0)"/>
     <use xlink:href="#DejaVuSans-74" transform="translate(1658.837891 0)"/>
     <use xlink:href="#DejaVuSans-61" transform="translate(1698.046875 0)"/>
     <use xlink:href="#DejaVuSans-73" transform="translate(1759.326172 0)"/>
     <use xlink:href="#DejaVuSans-65" transform="translate(1811.425781 0)"/>
     <use xlink:href="#DejaVuSans-74" transform="translate(1872.949219 0)"/>
    </g>
   </g>
  </g>
 </g>
 <defs>
  <clipPath id="p50c7402449">
   <rect x="203.623437" y="53.51475" width="205.2" height="330.44"/>
  </clipPath>
 </defs>
</svg>
